<svg width="630" height="500" viewBox="0 0 630 500" fill="none" xmlns="http://www.w3.org/2000/svg">
<rect x="645.321" y="115.614" width="105" height="10" transform="rotate(150 645.321 115.614)" fill="#2789CD"/>
<rect x="655.321" y="139.515" width="147.198" height="10" transform="rotate(150 655.321 139.515)" fill="#2789CD"/>
<rect x="705.321" y="139.515" width="147.198" height="10" transform="rotate(150 705.321 139.515)" fill="#2789CD"/>
<rect x="665.321" y="76.4597" width="181.308" height="10" transform="rotate(150 665.321 76.4597)" fill="#2789CD"/>
<rect x="655.321" y="51.4597" width="214.906" height="10" transform="rotate(150 655.321 51.4597)" fill="#2789CD"/>
<rect x="465.321" y="161.114" width="20" height="10" transform="rotate(150 465.321 161.114)" fill="#2789CD"/>
<rect x="464.321" y="133.66" width="83.4875" height="10" transform="rotate(150 464.321 133.66)" fill="#2789CD"/>
<rect x="503.321" y="169.66" width="107.796" height="10" transform="rotate(150 503.321 169.66)" fill="#2789CD"/>
<rect x="444.321" y="174.113" width="128.173" height="10" transform="rotate(150 444.321 174.113)" fill="#2789CD"/>
<rect x="455.321" y="106.114" width="20" height="10" transform="rotate(150 455.321 106.114)" fill="#2789CD"/>
<rect x="523.321" y="216.113" width="20" height="10" transform="rotate(150 523.321 216.113)" fill="#2789CD"/>
<rect x="573.321" y="216.66" width="35.8892" height="10" transform="rotate(150 573.321 216.66)" fill="#2789CD"/>
<rect x="549.321" y="170.66" width="92.353" height="10" transform="rotate(150 549.321 170.66)" fill="#2789CD"/>
<rect x="655.321" y="22.6604" width="214.906" height="10" transform="rotate(150 655.321 22.6604)" fill="#2789CD"/>
<rect x="646.321" y="-4.3396" width="214.906" height="10" transform="rotate(150 646.321 -4.3396)" fill="#2789CD"/>
<rect x="665.321" y="-44.3398" width="214.906" height="10" transform="rotate(150 665.321 -44.3398)" fill="#2789CD"/>
<rect x="669.321" y="-77.3398" width="214.906" height="10" transform="rotate(150 669.321 -77.3398)" fill="#2789CD"/>
<rect x="-10" y="368.5" width="105" height="10" transform="rotate(-30 -10 368.5)" fill="#CE301C"/>
<rect x="-20" y="344.599" width="147.198" height="10" transform="rotate(-30 -20 344.599)" fill="#CE301C"/>
<rect x="-70" y="344.599" width="147.198" height="10" transform="rotate(-30 -70 344.599)" fill="#CE301C"/>
<rect x="-30" y="407.654" width="181.308" height="10" transform="rotate(-30 -30 407.654)" fill="#CE301C"/>
<rect x="-20" y="432.654" width="214.906" height="10" transform="rotate(-30 -20 432.654)" fill="#CE301C"/>
<rect x="170" y="323" width="20" height="10" transform="rotate(-30 170 323)" fill="#CE301C"/>
<rect x="191" y="310" width="104.673" height="10" transform="rotate(-30 191 310)" fill="#CE301C"/>
<rect x="180" y="378" width="20" height="10" transform="rotate(-30 180 378)" fill="#CE301C"/>
<rect x="156" y="451" width="78.1613" height="10" transform="rotate(-30 156 451)" fill="#CE301C"/>
<rect x="228" y="409.081" width="35.67" height="10" transform="rotate(-30 228 409.081)" fill="#CE301C"/>
<rect x="191" y="459.835" width="76.0806" height="10" transform="rotate(-30 191 459.835)" fill="#CE301C"/>
<rect x="171" y="502.04" width="76.0806" height="10" transform="rotate(-30 171 502.04)" fill="#CE301C"/>
<rect x="170" y="351.835" width="35.67" height="10" transform="rotate(-30 170 351.835)" fill="#CE301C"/>
<rect x="85" y="313.835" width="165.99" height="10" transform="rotate(-30 85 313.835)" fill="#CE301C"/>
<rect x="62" y="268.995" width="129.38" height="10" transform="rotate(-30 62 268.995)" fill="#CE301C"/>
<rect x="-4" y="276.69" width="129.38" height="10" transform="rotate(-30 -4 276.69)" fill="#CE301C"/>
<rect x="287" y="345" width="28.6381" height="10" transform="rotate(-30 287 345)" fill="#CE301C"/>
<rect x="160" y="418" width="141.581" height="10" transform="rotate(-30 160 418)" fill="#CE301C"/>
<rect x="112" y="268" width="20" height="10" transform="rotate(-30 112 268)" fill="#CE301C"/>
<rect x="-20" y="461.453" width="214.906" height="10" transform="rotate(-30 -20 461.453)" fill="#CE301C"/>
<rect x="-11" y="488.453" width="214.906" height="10" transform="rotate(-30 -11 488.453)" fill="#CE301C"/>
<rect x="-30" y="528.453" width="214.906" height="10" transform="rotate(-30 -30 528.453)" fill="#CE301C"/>
<rect x="-34" y="561.453" width="214.906" height="10" transform="rotate(-30 -34 561.453)" fill="#CE301C"/>
<rect y="570.453" width="214.906" height="10" transform="rotate(-30 0 570.453)" fill="#CE301C"/>
<rect x="737.477" y="163.66" width="147.198" height="10" transform="rotate(150 737.477 163.66)" fill="#2789CD"/>
</svg>
