<svg width="257" height="213" viewBox="0 0 257 213" fill="none" xmlns="http://www.w3.org/2000/svg">
<path d="M159.218 10.1819C159.218 12.222 157.978 14.1302 155.846 15.5513C153.718 16.97 150.749 17.8637 147.445 17.8637C144.141 17.8637 141.172 16.97 139.044 15.5513C136.913 14.1302 135.672 12.222 135.672 10.1819C135.672 8.14169 136.913 6.23347 139.044 4.81244C141.172 3.39374 144.141 2.5 147.445 2.5C150.749 2.5 153.718 3.39374 155.846 4.81244C157.978 6.23347 159.218 8.14169 159.218 10.1819Z" fill="#D9D9D9"/>
<path d="M159.218 10.1819C159.218 12.222 157.978 14.1302 155.846 15.5513C153.718 16.97 150.749 17.8637 147.445 17.8637C144.141 17.8637 141.172 16.97 139.044 15.5513C136.913 14.1302 135.672 12.222 135.672 10.1819C135.672 8.14169 136.913 6.23347 139.044 4.81244C141.172 3.39374 144.141 2.5 147.445 2.5C150.749 2.5 153.718 3.39374 155.846 4.81244C157.978 6.23347 159.218 8.14169 159.218 10.1819Z" fill="#B9451D"/>
<path d="M159.218 10.1819C159.218 12.222 157.978 14.1302 155.846 15.5513C153.718 16.97 150.749 17.8637 147.445 17.8637C144.141 17.8637 141.172 16.97 139.044 15.5513C136.913 14.1302 135.672 12.222 135.672 10.1819C135.672 8.14169 136.913 6.23347 139.044 4.81244C141.172 3.39374 144.141 2.5 147.445 2.5C150.749 2.5 153.718 3.39374 155.846 4.81244C157.978 6.23347 159.218 8.14169 159.218 10.1819Z" stroke="black"/>
<path d="M70.1722 35.6365C46.5357 62.9093 37.8993 110.334 36.5356 130.637C99.2632 117.455 181.991 157.001 220.627 152.455C251.881 148.778 252.9 142.91 255.628 115.637C242.446 -13.9092 99.7178 1.54539 70.1722 35.6365Z" fill="#B9451D" stroke="black"/>
<path d="M162.103 12.9091C206.025 41.7195 224.137 63.7775 219.609 152.91" stroke="black"/>
<path d="M103.809 212.001C166.355 212.728 207.446 172.91 220.173 152.91C169.264 102.728 76.2329 116.849 36.0812 130.182C28.96 139.425 12.9902 160.183 6.0811 169.274C-0.828018 178.364 0.77805 185.486 2.44472 187.91C10.172 195.637 41.2631 211.274 103.809 212.001Z" fill="#B9451D" stroke="black"/>
<path d="M111.945 41.5457C111.945 54.1224 102.761 64.2276 91.5361 64.2276C80.3117 64.2276 71.127 54.1224 71.127 41.5457C71.127 28.969 80.3117 18.8638 91.5361 18.8638C102.761 18.8638 111.945 28.969 111.945 41.5457Z" fill="white" stroke="black"/>
<path d="M175.582 41.5457C175.582 54.1224 166.397 64.2276 155.173 64.2276C143.948 64.2276 134.763 54.1224 134.763 41.5457C134.763 28.969 143.948 18.8638 155.173 18.8638C166.397 18.8638 175.582 28.969 175.582 41.5457Z" fill="white" stroke="black"/>
<ellipse cx="86.5361" cy="47.9092" rx="7.72731" ry="11.3637" fill="black"/>
<ellipse cx="150.173" cy="47.9092" rx="7.72731" ry="11.3637" fill="black"/>
<path d="M67.3926 22.761C67.7649 18.2928 70.8587 13.9889 74.1294 11.1855C76.1745 9.43252 78.2874 8.27598 80.5721 6.69432C84.9518 3.66217 91.2557 4.14493 96.2645 3.03186" stroke="black" stroke-width="5" stroke-linecap="round"/>
<path d="M188.59 24.4564C188.217 19.9882 185.124 15.6843 181.853 12.8809C179.808 11.128 177.695 9.97142 175.41 8.38975C171.031 5.3576 164.727 5.84037 159.718 4.72729" stroke="black" stroke-width="5" stroke-linecap="round"/>
<path d="M59.7178 82.9094C103.809 121.546 152.445 116.546 186.991 87.9094" stroke="black" stroke-width="5"/>
</svg>
