<svg width="1280" height="720" viewBox="0 0 1280 720" fill="none" xmlns="http://www.w3.org/2000/svg">
<rect width="1280" height="720" fill="white"/>
<path d="M894 25H1050C1053.87 25 1057 28.134 1057 32V50C1057 54.9706 1061.03 59 1066 59H1248C1251.87 59 1255 62.134 1255 66V464C1255 467.866 1251.87 471 1248 471H868C864.134 471 861 467.866 861 464V60C861 56.134 864.134 53 868 53H878C882.971 53 887 48.9706 887 44V32C887 28.134 890.134 25 894 25Z" stroke="#1B2447" stroke-width="2"/>
<path d="M984.5 497H1248C1251.87 497 1255 500.134 1255 504V690C1255 693.866 1251.87 697 1248 697H868C864.134 697 861 693.866 861 690V550.5C861 546.634 864.134 543.5 868 543.5H968.5C973.471 543.5 977.5 539.471 977.5 534.5V504C977.5 500.134 980.634 497 984.5 497Z" stroke="#1B2447" stroke-width="2"/>
<mask id="path-3-inside-1_11_8" fill="white">
<path fill-rule="evenodd" clip-rule="evenodd" d="M92.25 24H32C27.5817 24 24 27.5817 24 32V52V402V417V464C24 468.418 27.5817 472 32 472H343C347.418 472 351 468.418 351 464V425C351 420.582 354.582 417 359 417H828C832.418 417 836 413.418 836 409V32C836 27.5817 832.418 24 828 24H160.5H92.25Z"/>
</mask>
<path fill-rule="evenodd" clip-rule="evenodd" d="M92.25 24H32C27.5817 24 24 27.5817 24 32V52V402V417V464C24 468.418 27.5817 472 32 472H343C347.418 472 351 468.418 351 464V425C351 420.582 354.582 417 359 417H828C832.418 417 836 413.418 836 409V32C836 27.5817 832.418 24 828 24H160.5H92.25Z" fill="#E8EFFF"/>
<path d="M32 26H92.25V22H32V26ZM26 52V32H22V52H26ZM26 402V52H22V402H26ZM26 417V402H22V417H26ZM26 464V417H22V464H26ZM343 470H32V474H343V470ZM349 425V464H353V425H349ZM828 415H359V419H828V415ZM834 32V409H838V32H834ZM160.5 26H828V22H160.5V26ZM92.25 26H160.5V22H92.25V26ZM838 32C838 26.4772 833.523 22 828 22V26C831.314 26 834 28.6863 834 32H838ZM828 419C833.523 419 838 414.523 838 409H834C834 412.314 831.314 415 828 415V419ZM353 425C353 421.686 355.686 419 359 419V415C353.477 415 349 419.477 349 425H353ZM343 474C348.523 474 353 469.523 353 464H349C349 467.314 346.314 470 343 470V474ZM22 464C22 469.523 26.4772 474 32 474V470C28.6863 470 26 467.314 26 464H22ZM32 22C26.4772 22 22 26.4772 22 32H26C26 28.6863 28.6863 26 32 26V22Z" fill="#1B2447" mask="url(#path-3-inside-1_11_8)"/>
<path d="M393.5 449H828C831.866 449 835 452.134 835 456V690C835 693.866 831.866 697 828 697H32C28.134 697 25 693.866 25 690V506.5C25 502.634 28.134 499.5 32 499.5H377.5C382.471 499.5 386.5 495.471 386.5 490.5V456C386.5 452.134 389.634 449 393.5 449Z" stroke="#1B2447" stroke-width="2"/>
</svg>
