<svg width="348" height="292" viewBox="0 0 348 292" fill="none" xmlns="http://www.w3.org/2000/svg">
<rect x="10.6894" y="8.75208" width="28.5051" height="49.3297" rx="4" fill="#FCA570"/>
<rect x="43.9454" y="8.75208" width="28.5051" height="49.3297" rx="4" fill="#FCA570"/>
<rect x="77.2014" y="8.75208" width="28.5051" height="49.3297" rx="4" fill="#FCA570"/>
<rect x="110.457" y="8.75208" width="28.5051" height="49.3297" rx="4" fill="#FCA570"/>
<rect x="143.713" y="8.75208" width="28.5051" height="49.3297" rx="4" fill="#FCA570"/>
<rect x="176.969" y="8.75208" width="28.5051" height="49.3297" rx="4" fill="#FCA570"/>
<rect x="210.225" y="8.75208" width="28.5051" height="49.3297" rx="4" fill="#FCA570"/>
<rect x="243.481" y="8.75208" width="28.5051" height="49.3297" rx="4" fill="#FCA570"/>
<rect x="276.737" y="8.75208" width="28.5051" height="49.3297" rx="4" fill="#FCA570"/>
<rect x="309.993" y="8.75208" width="28.5051" height="49.3297" rx="4" fill="#FCA570"/>
<rect x="1" y="1" width="346" height="63.2425" rx="3" stroke="#F1641F" stroke-width="2"/>
<rect x="10.6894" y="84.3379" width="28.5051" height="49.3297" rx="4" fill="#8AA1F6"/>
<rect x="43.9454" y="84.3379" width="28.5051" height="49.3297" rx="4" fill="#8AA1F6"/>
<rect x="77.2014" y="84.3379" width="28.5051" height="49.3297" rx="4" fill="#8AA1F6"/>
<rect x="110.457" y="84.3379" width="28.5051" height="49.3297" rx="4" fill="#8AA1F6"/>
<rect x="143.713" y="84.3379" width="28.5051" height="49.3297" rx="4" fill="#8AA1F6"/>
<rect x="176.969" y="84.3379" width="28.5051" height="49.3297" rx="4" fill="#8AA1F6"/>
<rect x="210.225" y="84.3379" width="28.5051" height="49.3297" rx="4" fill="#8AA1F6"/>
<rect x="243.481" y="84.3379" width="28.5051" height="49.3297" rx="4" fill="#8AA1F6"/>
<rect x="276.737" y="84.3379" width="28.5051" height="49.3297" rx="4" fill="#8AA1F6"/>
<rect x="309.993" y="84.3379" width="28.5051" height="49.3297" rx="4" fill="#8AA1F6"/>
<rect x="1" y="76.5858" width="346" height="63.2425" rx="3" stroke="#4572E3" stroke-width="2"/>
<rect x="10.6894" y="159.924" width="28.5051" height="49.3297" rx="4" fill="#97EDCA"/>
<rect x="43.9454" y="159.924" width="28.5051" height="49.3297" rx="4" fill="#97EDCA"/>
<rect x="77.2014" y="159.924" width="28.5051" height="49.3297" rx="4" fill="#97EDCA"/>
<rect x="110.457" y="159.924" width="28.5051" height="49.3297" rx="4" fill="#97EDCA"/>
<rect x="143.713" y="159.924" width="28.5051" height="49.3297" rx="4" fill="#97EDCA"/>
<rect x="176.969" y="159.924" width="28.5051" height="49.3297" rx="4" fill="#97EDCA"/>
<rect x="210.225" y="159.924" width="28.5051" height="49.3297" rx="4" fill="#97EDCA"/>
<rect x="243.481" y="159.924" width="28.5051" height="49.3297" rx="4" fill="#97EDCA"/>
<rect x="276.737" y="159.924" width="28.5051" height="49.3297" rx="4" fill="#97EDCA"/>
<rect x="309.993" y="159.924" width="28.5051" height="49.3297" rx="4" fill="#97EDCA"/>
<rect x="1" y="152.172" width="346" height="63.2425" rx="3" stroke="#59CF93" stroke-width="2"/>
<rect x="10.6894" y="235.51" width="28.5051" height="49.3297" rx="4" fill="#FAD6FF"/>
<rect x="43.9454" y="235.51" width="28.5051" height="49.3297" rx="4" fill="#FAD6FF"/>
<rect x="77.2014" y="235.51" width="28.5051" height="49.3297" rx="4" fill="#FAD6FF"/>
<rect x="110.457" y="235.51" width="28.5051" height="49.3297" rx="4" fill="#FAD6FF"/>
<rect x="143.713" y="235.51" width="28.5051" height="49.3297" rx="4" fill="#FAD6FF"/>
<rect x="176.969" y="235.51" width="28.5051" height="49.3297" rx="4" fill="#FAD6FF"/>
<rect x="210.225" y="235.51" width="28.5051" height="49.3297" rx="4" fill="#FAD6FF"/>
<rect x="243.481" y="235.51" width="28.5051" height="49.3297" rx="4" fill="#FAD6FF"/>
<rect x="276.737" y="235.51" width="28.5051" height="49.3297" rx="4" fill="#FAD6FF"/>
<rect x="309.993" y="235.51" width="28.5051" height="49.3297" rx="4" fill="#FAD6FF"/>
<rect x="1" y="227.757" width="346" height="63.2425" rx="3" stroke="#D480BB" stroke-width="2"/>
</svg>
