<svg width="1172" height="368" viewBox="0 0 1172 368" fill="none" xmlns="http://www.w3.org/2000/svg">
<path d="M650.398 236.33L650.419 236.327L650.44 236.325C651.897 236.143 653.304 236.007 654.662 235.916L654.72 235.912L654.777 235.905L656.722 235.662L644.71 343.769C644.272 346.996 645.068 349.927 647.105 352.416L647.111 352.424C649.202 354.954 651.904 356.431 655.129 356.773C658.353 357.209 661.281 356.412 663.769 354.376C666.224 352.368 667.681 349.715 668.121 346.527L668.125 346.501L668.128 346.475L672.234 309.651C672.5 309.67 672.774 309.725 673.062 309.821L673.282 309.894L673.513 309.915C674.568 310.011 675.897 310.106 677.494 310.2C679.124 310.296 680.889 310.343 682.787 310.343C685.944 310.343 689.415 310.152 693.198 309.773C697.057 309.388 700.998 308.617 705.02 307.468L705.034 307.464L705.049 307.46C709.191 306.207 713.23 304.523 717.167 302.411L717.174 302.407L717.182 302.403C721.286 300.155 725.081 297.232 728.566 293.65L728.575 293.641L728.585 293.631C732.095 289.926 735.139 285.469 737.732 280.286C740.446 274.953 742.455 268.704 743.787 261.566L743.788 261.562C744.462 257.904 744.801 254.285 744.801 250.708C744.801 245.565 744.024 240.928 742.425 236.831C740.844 232.779 738.612 229.203 735.728 226.119C732.851 223.044 729.393 220.529 725.378 218.566C721.502 216.534 717.168 214.902 712.389 213.659C707.987 212.511 703.312 211.701 698.367 211.226C693.448 210.753 688.301 210.517 682.927 210.517C677.188 210.517 671.359 210.752 665.438 211.222C659.533 211.597 653.628 212.159 647.724 212.908C644.496 213.248 641.824 214.728 639.817 217.283C637.802 219.755 636.959 222.661 637.291 225.873L637.295 225.907L637.299 225.94C637.739 229.128 639.196 231.781 641.651 233.79L641.668 233.803L641.685 233.817C644.237 235.814 647.177 236.663 650.398 236.33ZM675.341 286.354L675.273 286.345L675.204 286.342L674.797 286.319L680.297 236.952C680.297 236.95 680.297 236.948 680.298 236.946C680.41 235.984 680.396 235.035 680.257 234.102H682.647C687.068 234.102 691.298 234.286 695.336 234.653L695.359 234.655L695.381 234.657C699.371 234.929 703.067 235.517 706.473 236.413C711.061 237.649 714.654 239.602 717.348 242.212L717.359 242.223L717.371 242.234C719.862 244.57 721.216 247.906 721.216 252.526C721.216 253.291 721.173 254.057 721.088 254.823C721.002 255.599 720.872 256.427 720.695 257.31L720.69 257.333L720.686 257.356C719.513 264.035 717.374 269.195 714.376 272.964L714.373 272.969C711.351 276.79 707.966 279.678 704.226 281.679C700.401 283.725 696.511 285.047 692.552 285.663L692.545 285.664C688.519 286.304 684.943 286.618 681.808 286.618H681.8H681.791H681.783H681.775H681.767H681.759H681.75H681.742H681.734H681.726H681.718H681.71H681.701H681.693H681.685H681.677H681.669H681.661H681.652H681.644H681.636H681.628H681.62H681.612H681.604H681.595H681.587H681.579H681.571H681.563H681.555H681.547H681.538H681.53H681.522H681.514H681.506H681.498H681.49H681.482H681.473H681.465H681.457H681.449H681.441H681.433H681.425H681.417H681.409H681.401H681.392H681.384H681.376H681.368H681.36H681.352H681.344H681.336H681.328H681.32H681.312H681.304H681.296H681.288H681.279H681.271H681.263H681.255H681.247H681.239H681.231H681.223H681.215H681.207H681.199H681.191H681.183H681.175H681.167H681.159H681.151H681.143H681.135H681.127H681.119H681.111H681.103H681.095H681.087H681.079H681.071H681.063H681.055H681.047H681.039H681.031H681.023H681.015H681.007H680.999H680.991H680.983H680.975H680.967H680.959H680.951H680.943H680.935H680.927H680.919H680.911H680.903H680.895H680.887H680.879H680.871H680.863H680.855H680.847H680.84H680.832H680.824H680.816H680.808H680.8H680.792H680.784H680.776H680.768H680.76H680.752H680.744H680.736H680.729H680.721H680.713H680.705H680.697H680.689H680.681H680.673H680.665H680.657H680.65H680.642H680.634H680.626H680.618H680.61H680.602H680.594H680.587H680.579H680.571H680.563H680.555H680.547H680.539H680.531H680.524H680.516H680.508H680.5H680.492H680.484H680.477H680.469H680.461H680.453H680.445H680.437H680.429H680.422H680.414H680.406H680.398H680.39H680.383H680.375H680.367H680.359H680.351H680.343H680.336H680.328H680.32H680.312H680.304H680.297H680.289H680.281H680.273H680.266H680.258H680.25H680.242H680.234H680.227H680.219H680.211H680.203H680.196H680.188H680.18H680.172H680.165H680.157H680.149H680.141H680.133H680.126H680.118H680.11H680.103H680.095H680.087H680.079H680.072H680.064H680.056H680.048H680.041H680.033H680.025H680.018H680.01H680.002H679.994H679.987H679.979H679.971H679.964H679.956H679.948H679.94H679.933H679.925H679.917H679.91H679.902H679.894H679.887H679.879H679.871H679.864H679.856H679.848H679.841H679.833H679.825H679.818H679.81H679.802H679.795H679.787H679.779H679.772H679.764H679.756H679.749H679.741H679.733H679.726H679.718H679.711H679.703H679.695H679.688H679.68H679.672H679.665H679.657H679.65H679.642H679.634H679.627H679.619H679.612H679.604H679.596H679.589H679.581H679.574H679.566H679.558H679.551H679.543H679.536H679.528H679.52H679.513H679.505H679.498H679.49H679.483H679.475H679.467H679.46H679.452H679.445H679.437H679.43H679.422H679.415H679.407H679.399H679.392H679.384H679.377H679.369H679.362H679.354H679.347H679.339H679.332H679.324H679.317H679.309H679.302H679.294H679.287H679.279H679.272H679.264H679.257H679.249H679.242H679.234H679.227H679.219H679.212H679.204H679.197H679.189H679.182H679.174H679.167H679.159H679.152H679.144H679.137H679.129H679.122H679.114H679.107H679.099H679.092H679.085H679.077H679.07H679.062H679.055H679.047H679.04H679.032H679.025H679.018H679.01H679.003H678.995H678.988H678.98H678.973H678.966H678.958H678.951H678.943H678.936H678.928H678.921H678.914H678.906H678.899H678.891H678.884H678.877H678.869H678.862H678.854H678.847H678.84H678.832H678.825H678.818H678.81H678.803H678.795H678.788H678.781H678.773H678.766H678.759H678.751H678.744H678.737H678.729H678.722H678.715H678.707H678.7H678.692H678.685H678.678H678.67H678.663H678.656H678.648H678.641H678.634H678.626H678.619H678.612H678.605H678.597H678.59H678.583H678.575H678.568H678.561H678.553H678.546H678.539H678.531H678.524H678.517H678.51H678.502H678.495H678.488H678.48H678.473H678.466H678.459H678.451H678.444H678.437H678.43H678.422H678.415H678.408H678.401H678.393H678.386H678.379H678.372H678.364H678.357H678.35H678.343H678.335H678.328H678.321H678.314H678.306H678.299H678.292H678.285H678.278H678.27H678.263H678.256H678.249H678.241H678.234H678.227H678.22H678.213H678.205H678.198H678.191H678.184H678.177H678.169H678.162H678.155H678.148H678.141H678.134H678.126H678.119H678.112H678.105H678.098H678.091H678.083H678.076H678.069H678.062H678.055H678.048H678.04H678.033H678.026H678.019H678.012H678.005H677.998H677.99H677.983H677.976H677.974C676.908 286.529 676.032 286.44 675.341 286.354Z" fill="#CE301C" stroke="#14121D" stroke-width="4"/>
<path d="M560.052 357.418L560.065 357.381L560.077 357.345L560.077 357.344L560.077 357.344L560.078 357.34L560.083 357.326L560.101 357.268L560.173 357.039L560.461 356.121L561.605 352.482C562.722 349.318 564.209 345.135 566.067 339.931C567.933 334.708 570.078 328.692 572.503 321.884L572.506 321.875C574.768 315.436 577.112 308.834 579.537 302.069L604.818 304.165C604.726 309.055 604.598 313.687 604.433 318.059L604.432 318.078L604.432 318.097C604.339 323.025 604.199 327.388 604.014 331.187L604.013 331.211L604.012 331.235C603.919 334.96 603.826 337.932 603.734 340.155L603.732 340.196V340.238V340.251V340.264V340.277V340.29V340.303V340.316V340.329V340.342V340.355V340.368V340.381V340.393V340.406V340.419V340.432V340.444V340.457V340.47V340.482V340.495V340.508V340.52V340.533V340.545V340.558V340.57V340.583V340.595V340.607V340.62V340.632V340.644V340.657V340.669V340.681V340.693V340.706V340.718V340.73V340.742V340.754V340.766V340.778V340.79V340.802V340.814V340.826V340.838V340.85V340.862V340.873V340.885V340.897V340.909V340.92V340.932V340.944V340.955V340.967V340.979V340.99V341.002V341.013V341.025V341.036V341.048V341.059V341.07V341.082V341.093V341.104V341.116V341.127V341.138V341.149V341.161V341.172V341.183V341.194V341.205V341.216V341.227V341.238V341.249V341.26V341.271V341.282V341.293V341.304V341.314V341.325V341.336V341.347V341.357V341.368V341.379V341.389V341.4V341.411V341.421V341.432V341.442V341.453V341.463V341.474V341.484V341.494V341.505V341.515V341.525V341.536V341.546V341.556V341.566V341.577V341.587V341.597V341.607V341.617V341.627V341.637V341.647V341.657V341.667V341.677V341.687V341.697V341.707V341.716V341.726V341.736V341.746V341.756V341.765V341.775V341.785V341.794V341.804V341.813V341.823V341.832V341.842V341.851V341.861V341.87V341.88V341.889V341.898V341.908V341.917V341.926V341.935V341.945V341.954V341.963V341.972V341.981V341.99V341.999V342.008V342.017V342.026V342.035V342.044V342.053V342.062V342.071V342.08V342.088V342.097V342.106V342.115V342.123V342.132V342.141V342.149V342.158V342.166V342.175V342.184V342.192V342.2V342.209V342.217V342.226V342.234V342.242V342.251V342.259V342.267V342.276V342.284V342.292V342.3V342.308V342.316V342.324V342.332V342.34V342.348V342.356V342.364V342.372V342.38V342.388V342.396V342.404V342.412V342.419V342.427V342.435V342.443V342.45V342.458V342.465V342.473V342.481V342.488V342.496V342.503V342.511V342.518V342.526V342.533V342.54V342.548V342.555V342.562V342.569V342.577V342.584V342.591V342.598V342.605V342.613V342.62V342.627V342.634V342.641V342.648V342.655V342.662V342.668V342.675V342.682V342.689V342.696V342.703V342.709V342.716V342.723V342.729V342.736V342.743V342.749V342.756V342.762V342.769V342.775V342.782V342.788V342.795V342.801V342.807V342.814V342.82V342.826V342.833V342.839V342.845V342.851V342.857V342.864V342.87V342.876V342.882V342.888V342.894V342.9V342.906V342.912V342.918V342.924V342.929V342.935V342.941V342.947V342.953V342.958V342.964V342.97V342.975V342.981V342.987V342.992V342.998V343.003V343.009V343.014V343.02V343.025V343.03V343.036V343.041V343.046V343.052V343.057V343.062V343.067V343.073V343.078V343.083V343.088V343.093V343.098V343.103V343.108V343.113V343.118V343.123V343.128V343.133V343.138V343.143V343.147V343.152V343.157V343.162V343.166V343.171V343.176V343.18V343.185V343.189V343.194V343.198V343.203V343.207V343.212V343.216V343.221V343.225V343.229V343.234V343.238V343.242V343.247V343.251V343.255V343.259V343.263V343.267V343.271V343.275V343.28V343.284V343.288V343.291V343.295V343.299V343.303V343.307V343.311V343.315V343.318V343.322V343.326V343.33V343.333V343.337V343.341V343.344V343.348V343.351V343.355V343.358V343.362V343.365V343.369V343.372V343.375V343.379V343.382V343.385V343.389V343.392V343.395V343.398V343.401V343.405V343.408V343.411V343.414V343.417V343.42V343.423V343.426V343.429V343.432V343.435V343.437V343.44V343.443V343.446V343.449V343.451V343.454V343.457V343.459V343.462V343.465V343.467V343.47V343.472V343.475V343.477V343.48V343.482V343.484V343.487V343.489V343.491V343.494V343.496V343.498V343.5V343.503V343.505V343.507V343.509V343.511V343.513V343.515V343.517V343.519V343.521V343.523V343.525V343.527V343.529V343.531V343.532V343.534V343.536V343.538V343.539V343.541V343.543V343.544V343.546V343.548V343.549V343.551V343.552V343.554V343.555V343.556V343.558V343.559V343.561V343.562V343.562C603.629 346.789 604.714 349.63 606.942 351.969L606.958 351.987L606.976 352.004C609.268 354.297 612.024 355.554 615.173 355.666L615.176 355.666C618.417 355.778 621.27 354.694 623.618 352.458C625.956 350.231 627.204 347.451 627.316 344.224L627.317 344.189V344.155C627.317 344.158 627.319 344.033 627.325 343.723C627.331 343.432 627.34 343.007 627.351 342.448C627.375 341.329 627.41 339.674 627.456 337.483C627.55 333.079 627.597 327.375 627.597 320.373V320.357V320.341V320.326V320.31V320.294V320.278V320.262V320.246V320.23V320.215V320.199V320.183V320.167V320.151V320.135V320.119V320.103V320.088V320.072V320.056V320.04V320.024V320.008V319.992V319.976V319.96V319.945V319.929V319.913V319.897V319.881V319.865V319.849V319.833V319.817V319.801V319.785V319.769V319.754V319.738V319.722V319.706V319.69V319.674V319.658V319.642V319.626V319.61V319.594V319.578V319.562V319.546V319.53V319.514V319.498V319.482V319.466V319.45V319.434V319.418V319.403V319.387V319.371V319.355V319.339V319.323V319.307V319.291V319.275V319.259V319.243V319.227V319.211V319.195V319.179V319.163V319.147V319.131V319.115V319.099V319.083V319.067V319.051V319.034V319.018V319.002V318.986V318.97V318.954V318.938V318.922V318.906V318.89V318.874V318.858V318.842V318.826V318.81V318.794V318.778V318.762V318.746V318.73V318.714V318.697V318.681V318.665V318.649V318.633V318.617V318.601V318.585V318.569V318.553V318.537V318.521V318.504V318.488V318.472V318.456V318.44V318.424V318.408V318.392V318.376V318.359V318.343V318.327V318.311V318.295V318.279V318.263V318.247V318.23V318.214V318.198V318.182V318.166V318.15V318.134V318.118V318.101V318.085V318.069V318.053V318.037V318.021V318.004V317.988V317.972V317.956V317.94V317.924V317.907V317.891V317.875V317.859V317.843V317.826V317.81V317.794V317.778V317.762V317.746V317.729V317.713V317.697V317.681V317.665V317.648V317.632V317.616V317.6V317.583V317.567V317.551V317.535V317.519V317.502V317.486V317.47V317.454V317.437V317.421V317.405V317.389V317.372V317.356V317.34V317.324V317.307V317.291V317.275V317.259V317.242V317.226V317.21V317.194V317.177V317.161V317.145V317.129V317.112V317.096V317.08V317.063V317.047V317.031V317.015V316.998V316.982V316.966V316.949V316.933V316.917V316.9V316.884V316.868V316.851V316.835V316.819V316.803V316.786V316.77V316.754V316.737V316.721V316.705V316.688V316.672V316.656V316.639V316.623V316.607V316.59V316.574V316.557V316.541V316.525V316.508V316.492V316.476V316.459V316.443V316.427V316.41V316.394V316.377V316.361V316.345V316.328V316.312V316.296V316.279V316.263V316.246V316.23V316.214V316.197V316.181V316.164V316.148V316.132V316.115V316.099V316.082V316.066V316.049V316.033V316.017V316V315.984V315.967V315.951V315.935V315.918V315.902V315.885V315.869V315.852V315.836V315.819V315.803V315.787V315.77V315.754V315.737V315.721V315.704V315.688V315.671V315.655V315.638V315.622V315.605V315.589V315.572V315.556V315.539V315.523V315.506V315.49V315.474V315.457V315.441V315.424V315.408V315.391V315.375V315.358V315.341V315.325V315.308V315.292V315.275V315.259V315.242V315.226V315.209V315.193V315.176V315.16V315.143V315.127V315.11V315.094V315.077V315.06V315.044V315.027V315.011V314.994V314.978V314.961V314.945V314.928V314.911V314.895V314.878V314.862V314.845V314.829V314.812V314.795V314.779V314.762V314.746V314.729V314.713V314.696V314.679V314.663V314.646V314.63V314.613V314.596V314.58V314.563V314.547V314.53V314.513V314.497V314.48V314.463V314.447V314.43V314.414V314.397V314.38V314.364V314.347V314.33V314.314V314.297V314.28V314.264V314.247V314.23V314.214V314.197V314.18V314.164V314.147V314.131V314.114V314.097V314.08V314.064V314.047V314.03V314.014V313.997V313.98V313.964V313.947V313.93V313.914V313.897V313.88V313.864V313.847V313.83V313.813V313.797V313.78V313.763V313.747V313.73V313.713V313.696V313.68V313.663V313.646V313.63V313.613V313.596V313.579V313.563V313.546V313.529V313.512V313.496V313.479V313.462V313.445V313.429V313.412V313.395V313.378V313.362V313.345V313.328V313.311V313.294V313.278V313.261V313.244V313.227V313.211V313.194V313.177V313.16V313.143V313.127V313.11V313.093V313.076V313.059V313.043V313.026V313.009V312.992V312.975V312.959V312.942V312.925V312.908V312.891V312.874V312.858V312.841V312.824V312.807V312.79V312.773V312.757V312.74V312.723V312.706V312.689V312.672V312.656V312.639V312.622V312.605V312.588V312.571V312.554V312.538V312.521V312.504V312.487V312.47V312.453V312.436V312.419V312.403V312.386V312.369V312.352V312.335V312.318V312.301V312.284V312.267V312.25V312.234V312.217V312.2V312.183V312.166V312.149V312.132V312.115V312.098V312.081V312.064V312.047V312.03V312.014V311.997V311.98C627.597 309.5 627.562 306.953 627.494 304.34C629.088 303.56 630.437 302.46 631.51 301.04C632.976 299.224 633.805 297.079 634.023 294.674L634.025 294.66L634.026 294.647C634.246 291.779 633.526 289.164 631.846 286.903C630.565 284.999 628.889 283.594 626.85 282.72C626.657 277.363 626.344 272.007 625.913 266.651C625.537 260.746 625.021 255.117 624.364 249.764C623.707 244.412 622.908 239.424 621.965 234.802C621.113 230.071 620.063 225.954 618.804 222.469C617.549 218.994 616.062 216.124 614.299 213.939C612.539 211.639 610.282 210.237 607.55 210.237C603.997 210.237 600.542 212.778 597.216 216.674C593.844 220.624 590.324 225.82 586.65 232.226L586.646 232.234C583.07 238.538 579.408 245.722 575.66 253.781C572.116 261.4 568.657 269.228 565.282 277.264L561.982 276.973L561.965 276.971L561.948 276.97C558.79 276.745 555.912 277.725 553.398 279.801L553.381 279.815L553.364 279.83C550.911 281.949 549.544 284.679 549.319 287.913C549.099 290.797 549.832 293.453 551.505 295.796L551.537 295.84L551.571 295.882C552.855 297.487 554.416 298.694 556.229 299.489C553.727 305.787 551.417 311.819 549.297 317.585C546.966 323.925 544.915 329.471 543.145 334.224L543.139 334.24L543.133 334.256C541.454 339.012 540.102 342.835 539.077 345.724L539.071 345.742L539.065 345.761L538.015 348.908L537.753 349.695L537.688 349.892L537.671 349.941L537.667 349.953L537.666 349.956L537.666 349.957L537.666 349.957L539.316 350.507L537.666 349.957C536.664 352.961 536.836 355.959 538.167 358.842L538.18 358.871L538.194 358.898C539.648 361.807 541.984 363.798 545.095 364.801C548.116 365.805 551.123 365.574 553.999 364.144C556.917 362.788 558.95 360.503 560.052 357.418ZM599.179 250.23L599.182 250.222L599.186 250.214C600.753 246.434 602.069 243.582 603.135 241.623C603.197 241.517 603.259 241.415 603.319 241.317C603.627 243.039 603.909 245.42 604.158 248.491L604.16 248.52L604.164 248.55C604.532 251.862 604.856 255.882 605.134 260.617L605.134 260.619C605.411 265.235 605.55 270.37 605.55 276.027C605.55 276.993 605.507 278.01 605.417 279.079L605.411 279.162V279.245V279.252V279.258V279.265V279.271V279.278V279.284V279.291V279.297V279.304V279.311V279.317V279.324V279.33V279.337V279.343V279.35V279.356V279.363V279.37V279.376V279.383V279.389V279.396V279.402V279.409V279.415V279.422V279.429V279.435V279.442V279.448V279.455V279.461V279.468V279.474V279.481V279.488V279.494V279.501V279.507V279.514V279.52V279.527V279.534V279.54V279.547V279.553V279.56V279.566V279.573V279.579V279.586V279.593V279.599V279.606V279.612V279.619V279.625V279.632V279.638V279.645V279.652V279.658V279.665V279.671V279.678V279.684V279.691V279.697V279.704V279.711V279.717V279.724V279.73V279.737V279.743V279.75V279.756V279.763V279.77V279.776V279.783V279.789V279.796V279.802V279.809V279.815V279.822V279.829V279.835V279.842V279.848V279.855V279.861V279.868V279.874V279.881V279.888V279.894V279.901V279.907V279.914V279.92V279.927V279.934V279.94V279.947V279.953V279.96V279.966V279.973V279.979V279.986V279.993V279.999V280.006V280.012V280.019V280.025V280.032V280.038V280.045V280.052V280.058V280.065V280.071V280.078V280.084V280.091V280.097V280.104V280.111V280.117V280.124V280.13V280.137V280.143V280.15V280.156V280.163V280.17V280.176V280.183V280.189V280.196V280.202V280.209V280.215V280.222V280.229V280.235V280.242V280.248V280.255V280.261V280.268V280.274V280.281V280.288V280.294V280.301V280.307V280.314V280.32V280.327V280.334V280.34V280.347V280.353V280.36V280.366V280.373V280.379V280.386V280.393V280.399V280.406V280.412V280.419V280.425V280.431L588.101 279.007C590.162 273.452 592.046 268.358 593.754 263.723C595.798 258.427 597.606 253.931 599.179 250.23Z" fill="#CE301C" stroke="#14121D" stroke-width="4"/>
<path d="M524.557 265.227L524.6 265.205L524.643 265.181C526.461 264.159 527.917 262.69 529.014 260.831C533.439 253.612 535.655 246.614 535.454 239.877L535.454 239.865L535.453 239.853C535.253 235.053 533.948 230.623 531.533 226.597C529.116 222.568 525.792 219.349 521.599 216.949C517.846 214.681 513.496 213.029 508.579 211.966C503.728 210.805 498.301 210.331 492.316 210.517C487.868 210.425 483.382 210.911 478.861 211.969C474.357 213.023 470.083 214.463 466.042 216.291L466.035 216.294L466.028 216.297C461.016 218.611 456.3 221.595 451.883 225.245L451.875 225.251L451.867 225.258C447.532 228.919 443.596 233.242 440.056 238.217L440.052 238.223C436.591 243.127 433.627 248.727 431.152 255.011L431.149 255.019L431.146 255.026C428.754 261.244 426.996 268.149 425.859 275.732L425.856 275.75L425.854 275.767C425.384 279.338 425.007 282.771 424.725 286.067C424.44 289.292 424.298 292.427 424.298 295.473C424.298 302.773 424.961 309.45 426.304 315.492L426.308 315.51L426.312 315.529C427.744 321.448 429.709 326.825 432.217 331.649L432.222 331.659C435.999 338.824 441.014 344.537 447.276 348.747C453.507 353.029 460.556 355.745 468.392 356.906L468.406 356.908L468.421 356.91C469.844 357.1 471.267 357.243 472.691 357.339C474.246 357.531 475.802 357.627 477.358 357.627C484.567 357.627 492.122 356.473 500.017 354.191C507.908 351.909 516.055 348.542 524.456 344.106L524.475 344.096L524.494 344.085C526.449 342.999 527.991 341.542 529.033 339.698C530.133 337.822 530.699 335.8 530.699 333.664C530.699 331.752 530.246 329.908 529.368 328.153L529.338 328.092L529.303 328.033C528.2 326.158 526.693 324.692 524.801 323.676C523.005 322.569 521.026 322.011 518.906 322.011C516.919 322.011 515.054 322.456 513.348 323.366L513.347 323.366C506.64 326.95 500.239 329.644 494.142 331.465C488.135 333.193 482.591 334.042 477.498 334.042C475.538 334.042 473.679 333.908 471.921 333.645C463.291 332.337 457.031 327.993 452.955 320.537C451.286 317.461 449.993 313.912 449.095 309.872C448.199 305.751 447.743 301.049 447.743 295.753C447.743 293.2 447.834 290.55 448.016 287.805C448.292 285.054 448.659 282.161 449.119 279.126L449.12 279.121C450.766 268.054 454.038 259.19 458.844 252.426C463.707 245.582 469.416 240.701 475.955 237.697L475.962 237.694L475.969 237.69C478.83 236.349 481.567 235.426 484.185 234.903C486.837 234.373 489.735 234.102 492.886 234.102H492.91L492.934 234.102C500.628 233.919 505.977 235.04 509.302 237.149L509.323 237.162L509.344 237.175C511.258 238.324 511.87 239.525 511.87 240.776C511.87 241.746 511.627 242.871 511.058 244.171C510.441 245.581 509.686 247.049 508.789 248.575C507.683 250.455 507.114 252.482 507.114 254.625C507.114 256.611 507.557 258.533 508.423 260.373L508.454 260.438L508.49 260.502C509.511 262.317 510.977 263.772 512.833 264.869C514.657 266.002 516.699 266.557 518.906 266.557C520.893 266.557 522.785 266.113 524.557 265.227Z" fill="#CE301C" stroke="#14121D" stroke-width="4"/>
<path d="M246.297 330.35L256.177 242.746C255.311 242.952 254.418 243.055 253.502 243.055C251.285 243.055 249.209 242.496 247.312 241.38L247.275 241.358L247.239 241.335C245.33 240.099 243.873 238.41 242.881 236.316L242.845 236.24L242.816 236.162C242.521 235.374 242.27 234.623 242.066 233.91L243.989 233.361L242.066 233.91C241.824 233.062 241.709 232.176 241.709 231.263C241.709 229.046 242.268 226.97 243.385 225.073L243.406 225.036L243.429 225C244.665 223.09 246.355 221.634 248.449 220.642L248.451 220.641C255.276 217.418 261.982 215.037 268.568 213.509C275.233 211.891 281.73 211.077 288.055 211.077C290.637 211.077 293.218 211.22 295.798 211.505C304.327 212.18 312.047 214.343 318.926 218.023C325.772 221.592 331.621 226.279 336.455 232.081C341.28 237.87 344.94 244.472 347.441 251.872C350.036 259.181 351.328 266.911 351.328 275.049C351.328 277.549 351.184 280.093 350.896 282.68C350.896 282.681 350.896 282.682 350.896 282.684L348.908 282.463C347.882 292.069 346.297 300.556 344.152 307.923C342.007 315.198 339.349 321.539 336.178 326.949C333.1 332.265 329.51 336.788 325.406 340.518L246.297 330.35ZM246.297 330.35C243.283 329.959 240.494 330.664 238.044 332.475C235.472 334.376 233.896 336.982 233.345 340.178C232.789 343.403 233.466 346.383 235.386 348.981C237.288 351.554 239.894 353.129 243.09 353.68L243.105 353.683L243.119 353.685C249.673 354.715 256.044 355.558 262.23 356.215C268.452 356.969 274.45 357.347 280.221 357.347C286.2 357.347 291.865 356.872 297.214 355.918L246.297 330.35ZM318.605 314.117L318.602 314.124L318.598 314.131C316.534 318.08 314.184 321.301 311.566 323.832C309.017 326.293 306.166 328.266 303.009 329.757C299.841 331.253 296.345 332.319 292.509 332.945C288.704 333.488 284.563 333.762 280.081 333.762C278.06 333.762 275.992 333.716 273.875 333.624C272.509 333.562 271.12 333.479 269.71 333.374L280.528 237.522C280.636 236.697 280.653 235.889 280.57 235.105C281.602 234.953 282.595 234.851 283.55 234.798L283.605 234.795L283.66 234.789C285.265 234.611 286.87 234.522 288.475 234.522C289.341 234.522 290.153 234.565 290.912 234.649L291.022 234.662H291.133C291.898 234.662 292.664 234.704 293.43 234.789L293.459 234.792L293.487 234.795C298.933 235.241 303.742 236.619 307.947 238.897L307.961 238.904L307.975 238.912C312.225 241.125 315.788 243.989 318.688 247.504L318.695 247.513L318.704 247.523C321.603 250.949 323.813 254.961 325.324 259.583L325.329 259.599L325.335 259.615C326.937 264.243 327.743 269.151 327.743 274.349V274.355V274.361V274.367V274.373V274.379V274.385V274.391V274.397V274.403V274.409V274.415V274.421V274.427V274.433V274.439V274.445V274.451V274.457V274.463V274.469V274.476V274.482V274.488V274.494V274.5V274.506V274.512V274.518V274.524V274.53V274.536V274.542V274.548V274.554V274.56V274.566V274.572V274.578V274.584V274.59V274.596V274.602V274.608V274.614V274.62V274.626V274.632V274.638V274.644V274.65V274.656V274.662V274.668V274.674V274.68V274.686V274.692V274.698V274.704V274.71V274.716V274.722V274.728V274.734V274.74V274.746V274.752V274.758V274.764V274.77V274.776V274.782V274.788V274.794V274.8V274.806V274.812V274.818V274.824V274.83V274.836V274.842V274.848V274.854V274.86V274.866V274.872V274.878V274.884V274.89V274.896V274.902V274.908V274.914V274.92V274.926V274.932V274.938V274.944V274.95V274.956V274.962V274.968V274.974V274.98V274.986V274.992V274.998V275.004V275.01V275.016V275.023V275.029V275.035V275.041V275.047V275.053V275.059V275.065V275.071V275.077V275.083V275.089V275.095V275.101V275.107V275.113V275.119V275.125V275.131V275.137V275.143V275.149V275.155V275.161V275.167V275.173V275.179V275.185V275.191V275.197V275.203V275.209V275.215V275.221V275.227V275.233V275.239V275.245V275.251V275.257V275.263V275.269V275.275V275.281V275.287V275.293V275.299V275.305V275.311V275.317V275.323V275.329V275.335V275.341V275.347V275.353V275.359V275.365V275.371V275.377V275.383V275.389V275.395V275.401V275.407V275.413V275.419V275.425V275.431V275.437V275.443V275.449V275.455V275.461V275.467V275.473V275.479V275.485V275.491V275.497V275.503V275.509V275.515V275.521V275.527V275.533V275.539V275.545V275.551V275.557V275.563V275.57V275.576V275.582V275.588V275.594V275.6V275.606V275.612V275.618V275.624V275.63V275.636V275.642V275.648V275.654V275.66V275.666V275.672V275.678V275.684V275.69V275.696V275.702V275.708V275.714V275.72V275.726V275.732V275.738V275.744V275.75V275.756V275.762V275.768V275.774V275.78V275.786V275.792V275.798V275.804V275.81V275.816V275.822V275.828V275.834V275.84V275.846V275.852V275.858V275.864V275.87V275.876V275.882V275.888V275.894V275.9V275.906V275.912V275.918V275.924V275.93V275.936V275.942V275.948V275.954V275.96V275.966V275.972V275.978V275.984V275.99V275.996V276.002V276.008V276.014V276.02V276.026V276.032V276.038V276.044V276.05V276.056V276.062V276.068V276.074V276.08V276.086V276.092V276.098V276.104V276.11V276.117V276.123V276.129V276.135V276.141V276.147V276.153V276.159V276.165V276.171V276.177V276.183V276.189V276.195V276.201V276.207V276.213V276.219V276.225V276.231V276.237V276.243V276.249V276.255V276.261V276.267V276.273V276.279V276.285V276.291V276.297V276.303V276.309V276.315V276.321V276.327V276.333V276.339V276.345V276.351V276.357V276.363V276.369V276.375V276.381V276.387V276.393V276.399V276.405V276.411V276.417V276.423V276.429V276.435V276.441V276.447V276.453V276.459V276.465V276.471V276.477V276.483V276.489V276.495V276.501V276.507V276.513V276.519V276.525V276.531V276.537V276.543V276.549V276.555V276.561V276.567V276.573V276.579V276.585V276.591V276.597V276.603V276.609V276.615V276.621V276.627V276.633V276.639V276.645V276.651V276.657V276.664V276.67V276.676V276.682V276.688V276.694V276.7V276.706V276.712V276.718V276.724V276.73V276.736V276.742V276.748V276.754V276.76V276.766V276.772V276.778V276.784V276.79V276.796V276.802V276.808V276.814V276.82V276.826V276.832V276.838V276.844V276.85V276.856V276.862V276.868V276.874V276.88V276.886V276.892V276.898V276.904V276.91V276.916V276.922V276.928V276.934V276.94V276.946V276.952V276.958V276.964V276.97V276.976V276.982V276.988V276.994V277V277.006V277.012V277.018V277.024V277.03V277.036V277.042V277.048V277.054V277.06V277.066V277.072V277.078V277.084V277.09V277.096V277.102V277.108V277.114V277.12V277.126V277.132V277.138V277.144V277.15V277.156V277.162V277.168V277.174V277.18V277.186V277.192V277.198V277.204V277.211V277.217V277.223V277.229V277.235V277.241V277.247V277.253V277.259V277.265V277.271V277.277V277.283V277.289V277.295V277.301V277.307V277.313V277.319V277.325V277.331V277.337V277.343V277.349V277.355V277.361V277.367V277.373V277.379V277.385V277.391V277.397V277.403V277.409V277.415V277.421V277.427C327.743 278.226 327.663 279.085 327.495 280.007L327.483 280.075L327.475 280.144C326.644 287.628 325.493 294.15 324.031 299.722C322.57 305.294 320.756 310.085 318.605 314.117Z" fill="#CE301C" stroke="#14121D" stroke-width="4"/>
<path d="M134.67 239.396C133.739 243.331 132.776 247.514 131.783 251.945C130.675 256.802 129.568 261.89 128.461 267.21C125.399 267.509 122.772 268.85 120.658 271.168C118.416 273.531 117.385 276.408 117.609 279.663L117.611 279.681L117.612 279.699C117.829 282.192 118.656 284.403 120.151 286.242C121.238 287.58 122.548 288.637 124.063 289.407C122.697 296.874 121.576 303.939 120.699 310.6C119.76 317.736 119.283 323.752 119.283 328.627C119.283 330.251 119.331 331.745 119.428 333.106L119.429 333.117C119.522 334.322 119.702 335.442 119.983 336.463V336.933L120.194 337.356C120.231 337.431 120.291 337.57 120.365 337.793L122.26 337.162L120.365 337.793L120.645 338.633L120.666 338.697L120.692 338.76C123.045 344.488 127.297 348.755 133.294 351.557C139.179 354.399 146.07 355.982 153.92 356.365L153.923 356.365C157.948 356.557 162.285 356.413 166.929 355.94C171.663 355.56 176.441 354.897 181.262 353.952C186.081 353.007 190.852 351.826 195.575 350.409C200.392 348.992 204.935 347.384 209.202 345.583C212.213 344.353 214.376 342.187 215.604 339.174C216.821 336.186 216.834 333.167 215.599 330.238C214.371 327.232 212.209 325.071 209.203 323.843C206.275 322.607 203.255 322.62 200.267 323.837L200.262 323.839C196.694 325.303 192.938 326.632 188.992 327.826C185.038 328.929 181.084 329.894 177.132 330.722C173.186 331.456 169.288 332.005 165.439 332.372L165.435 332.372C161.69 332.738 158.19 332.873 154.932 332.784C151.1 332.6 148.039 332.192 145.707 331.588C143.5 331.015 142.719 330.318 142.476 329.896C142.289 329.117 142.169 327.927 142.169 326.249C142.169 322.481 142.664 317.237 143.683 310.471C144.726 304.041 145.973 297.16 147.424 289.826L194.422 287.118L194.436 287.117L194.449 287.116C195.994 287.006 197.454 286.618 198.81 285.945C200.241 285.28 201.483 284.381 202.508 283.241C203.517 282.121 204.296 280.836 204.847 279.404C205.422 277.909 205.643 276.322 205.537 274.668C205.418 271.428 204.101 268.683 201.649 266.557C199.21 264.349 196.31 263.319 193.061 263.54C193.057 263.54 193.054 263.541 193.05 263.541L152.623 265.903C153.736 260.882 154.849 256.067 155.962 251.457C157.125 246.638 158.178 242.224 159.12 238.217L218.753 235.078L218.769 235.078L218.786 235.076C221.987 234.856 224.74 233.564 226.951 231.243L225.503 229.864L226.951 231.243C229.196 228.885 230.234 226.015 230.018 222.766C229.898 219.522 228.58 216.745 226.149 214.535L224.835 215.979L226.149 214.535C223.708 212.316 220.804 211.28 217.548 211.5L163.276 214.349C162.787 212.805 161.976 211.387 160.863 210.108C159.379 208.294 157.443 207.059 155.127 206.397L155.087 206.386L155.047 206.376C151.849 205.604 148.795 206.048 146.005 207.718C143.277 209.313 141.527 211.777 140.753 214.944L140.598 215.484L133.219 215.835L133.198 215.836L133.176 215.838C129.975 216.059 127.222 217.35 125.011 219.671C122.758 222.037 121.721 224.92 121.946 228.183C122.167 231.384 123.458 234.137 125.779 236.348C128.14 238.596 131.014 239.633 134.267 239.415L134.67 239.396Z" fill="#CE301C" stroke="#14121D" stroke-width="4"/>
<path d="M15.8453 239.947C17.4336 239.667 18.9759 239.386 20.4721 239.106C21.1837 238.98 21.8951 238.864 22.6065 238.758L10.7155 342.087C10.276 345.315 11.0726 348.247 13.1105 350.738L13.1165 350.745C15.1866 353.251 17.8174 354.781 20.9505 355.228L20.9889 355.234L21.0275 355.238C24.2395 355.57 27.1452 354.727 29.6173 352.712C32.1624 350.713 33.6833 348.059 34.1261 344.848L34.1294 344.825L34.1321 344.801L38.9663 302.338C40.4543 303.061 41.9888 303.613 43.569 303.993L43.6061 304.002L43.6435 304.009C45.7924 304.439 47.9771 304.717 50.1968 304.843C53.3201 308.606 56.3204 312.493 59.1977 316.503C62.2768 320.796 65.4026 325.134 68.575 329.52L68.581 329.528L68.5871 329.536C71.7706 333.843 75.0937 338.196 78.5563 342.595L78.5628 342.603L78.5694 342.611C82.062 346.953 85.8354 351.198 89.8888 355.346L89.8968 355.354L89.9049 355.362C92.2132 357.67 94.9974 358.885 98.1738 358.885C101.394 358.885 104.192 357.753 106.443 355.502C108.751 353.193 109.966 350.409 109.966 347.233C109.966 344.018 108.837 341.224 106.593 338.975C100.601 332.797 95.2606 326.442 90.5689 319.911C86.3914 314.014 82.2496 308.224 78.1436 302.541C78.7499 302.364 79.3424 302.18 79.9209 301.987L79.956 301.975L79.9907 301.962C81.5171 301.39 83.0424 300.77 84.5666 300.103L84.5752 300.099L84.5838 300.095C92.1616 296.695 98.4879 291.683 103.539 285.078C108.697 278.362 112.032 270.454 113.574 261.401C113.865 259.75 114.061 258.138 114.159 256.568L114.16 256.561C114.255 254.939 114.303 253.36 114.303 251.827C114.303 246.696 113.53 242.068 111.938 237.977C110.454 233.833 108.271 230.203 105.382 227.111C102.6 224.035 99.1954 221.476 95.1949 219.424C91.2932 217.281 86.8878 215.642 81.9953 214.49C74.9982 212.765 67.0015 211.916 58.0249 211.916C50.9451 211.916 43.5006 212.388 35.6933 213.328C28.0013 214.173 20.0338 215.344 11.7912 216.843C8.56968 217.401 5.96306 219.045 4.0733 221.713L4.06839 221.72L4.06354 221.727C2.25479 224.327 1.64499 227.29 2.19562 230.483C2.74775 233.686 4.33297 236.266 6.94138 238.08L6.95763 238.092L6.97411 238.103C9.64786 239.885 12.6398 240.5 15.8376 239.948L15.8376 239.948L15.8453 239.947ZM74.9895 278.532L74.9562 278.547L74.9235 278.563C72.5676 279.697 70.0785 280.528 67.4513 281.056C65.0866 281.462 62.6825 281.683 60.2379 281.717C58.1864 280.165 56.1447 278.917 54.1121 277.992C51.9057 276.944 49.6136 276.406 47.2532 276.406C45.3925 276.406 43.5824 276.734 41.8294 277.373L46.3021 238.908L46.3034 238.897L46.3045 238.886C46.4138 237.848 46.4148 236.844 46.2924 235.884C47.8483 235.782 49.3621 235.7 50.8338 235.639L50.8719 235.637L50.91 235.634C53.1932 235.452 55.378 235.361 57.4653 235.361C64.7122 235.361 71.0249 236.05 76.4252 237.4C80.9999 238.543 84.4626 240.441 86.9442 243.005L86.967 243.029L86.9906 243.052C89.3923 245.376 90.7181 248.761 90.7181 253.505C90.7181 254.866 90.5911 256.333 90.3297 257.908C89.351 262.963 87.5473 267.185 84.9628 270.631L84.9531 270.644L84.9436 270.657C82.4608 274.082 79.1603 276.708 74.9895 278.532Z" fill="#CE301C" stroke="#14121D" stroke-width="4"/>
<path d="M1160.3 57.9141L1160.32 57.9071L1164.84 50.6164L1166.69 51.3755C1166.69 51.3746 1166.69 51.3737 1166.69 51.3728C1168.28 47.485 1169.08 43.3566 1169.08 39.0054C1169.08 36.1171 1168.68 33.2771 1167.88 30.4906C1167.08 27.5834 1165.83 24.8327 1164.13 22.243L1164.13 22.2346C1160.26 16.375 1154.97 12.1905 1148.33 9.71279C1141.86 7.29841 1135.01 6.04715 1127.81 5.94975C1120.32 5.76095 1113.28 6.28191 1106.69 7.52279L1106.69 7.5238C1100.14 8.77517 1094.23 10.949 1088.98 14.0628C1083.67 17.2056 1079.22 21.4722 1075.61 26.8306C1071.98 32.136 1069.38 38.7393 1067.75 46.5732L1067.75 46.5732L1067.75 46.587C1067.17 49.492 1066.87 52.236 1066.87 54.8132C1066.87 60.4209 1068.1 65.258 1070.7 69.2021L1070.71 69.2173L1070.72 69.2323C1073.31 73.0147 1076.68 76.228 1080.8 78.8782L1080.81 78.884L1080.82 78.8896C1084.97 81.4959 1089.63 83.7024 1094.79 85.5175C1099.85 87.297 1105.04 89.0291 1110.38 90.714L1110.39 90.7177L1110.4 90.7213C1114.39 91.9259 1118.23 93.176 1121.93 94.4717L1121.94 94.4742L1121.94 94.4767C1125.65 95.741 1128.75 97.2126 1131.29 98.8733L1131.32 98.895L1131.35 98.9154C1133.93 100.459 1135.76 102.246 1136.96 104.245L1136.97 104.26L1136.98 104.276C1138.02 105.936 1138.32 108.042 1137.58 110.818C1136.51 114.838 1135.06 118.102 1133.27 120.661C1131.45 123.173 1129.35 125.183 1126.97 126.714C1124.57 128.254 1121.91 129.329 1118.97 129.935C1115.94 130.558 1112.76 130.873 1109.44 130.873H1109.44H1109.43H1109.43H1109.42H1109.42H1109.41H1109.41H1109.41H1109.4H1109.4H1109.39H1109.39H1109.38H1109.38H1109.38H1109.37H1109.37H1109.36H1109.36H1109.35H1109.35H1109.35H1109.34H1109.34H1109.33H1109.33H1109.32H1109.32H1109.31H1109.31H1109.31H1109.3H1109.3H1109.29H1109.29H1109.28H1109.28H1109.28H1109.27H1109.27H1109.26H1109.26H1109.25H1109.25H1109.25H1109.24H1109.24H1109.23H1109.23H1109.22H1109.22H1109.22H1109.21H1109.21H1109.2H1109.2H1109.19H1109.19H1109.18H1109.18H1109.18H1109.17H1109.17H1109.16H1109.16H1109.15H1109.15H1109.15H1109.14H1109.14H1109.13H1109.13H1109.12H1109.12H1109.12H1109.11H1109.11H1109.1H1109.1H1109.09H1109.09H1109.09H1109.08H1109.08H1109.07H1109.07H1109.06H1109.06H1109.06H1109.05H1109.05H1109.04H1109.04H1109.03H1109.03H1109.03H1109.02H1109.02H1109.01H1109.01H1109H1109H1109H1108.99H1108.99H1108.98H1108.98H1108.98H1108.97H1108.97H1108.96H1108.96H1108.95H1108.95H1108.95H1108.94H1108.94H1108.93H1108.93H1108.92H1108.92H1108.92H1108.91H1108.91H1108.9H1108.9H1108.89H1108.89H1108.89H1108.88H1108.88H1108.87H1108.87H1108.86H1108.86H1108.86H1108.85H1108.85H1108.84H1108.84H1108.84H1108.83H1108.83H1108.82H1108.82H1108.81H1108.81H1108.81H1108.8H1108.8H1108.79H1108.79H1108.78H1108.78H1108.78H1108.77H1108.77H1108.76H1108.76H1108.76H1108.75H1108.75H1108.74H1108.74H1108.73H1108.73H1108.73H1108.72H1108.72H1108.71H1108.71H1108.7H1108.7H1108.7H1108.69H1108.69H1108.68H1108.68H1108.68H1108.67H1108.67H1108.66H1108.66H1108.65H1108.65H1108.65H1108.64H1108.64H1108.63H1108.63H1108.63H1108.62H1108.62H1108.61H1108.61H1108.6H1108.6H1108.6H1108.59H1108.59H1108.58H1108.58H1108.58H1108.57H1108.57H1108.56H1108.56H1108.55H1108.55H1108.55H1108.54H1108.54H1108.53H1108.53H1108.53H1108.52H1108.52H1108.51H1108.51H1108.5H1108.5H1108.5H1108.49H1108.49H1108.48H1108.48H1108.48H1108.47H1108.47H1108.46H1108.46H1108.46H1108.45H1108.45H1108.44H1108.44H1108.43H1108.43H1108.43H1108.42H1108.42H1108.41H1108.41H1108.41H1108.4H1108.4H1108.39H1108.39H1108.39H1108.38H1108.38H1108.37H1108.37H1108.36H1108.36H1108.36H1108.35H1108.35H1108.34H1108.34H1108.34H1108.33H1108.33H1108.32H1108.32H1108.32H1108.31H1108.31H1108.3H1108.3H1108.3H1108.29H1108.29H1108.28H1108.28H1108.28H1108.27H1108.27H1108.26H1108.26H1108.25H1108.25H1108.25H1108.24H1108.24H1108.23H1108.23H1108.23H1108.22H1108.22H1108.21H1108.21H1108.21H1108.2H1108.2H1108.19H1108.19H1108.19H1108.18H1108.18H1108.17H1108.17H1108.17H1108.16H1108.16H1108.15H1108.15H1108.15H1108.14H1108.14H1108.13H1108.13H1108.12H1108.12H1108.12H1108.11H1108.11H1108.1H1108.1H1108.1H1108.09H1108.09H1108.08H1108.08H1108.08H1108.07H1108.07H1108.06H1108.06H1108.06H1108.05H1108.05H1108.04H1108.04H1108.04H1108.03H1108.03H1108.02H1108.02H1108.02H1108.01H1108.01H1108H1108H1108H1107.99H1107.99H1107.98H1107.98H1107.98H1107.97H1107.97H1107.96H1107.96H1107.96H1107.95H1107.95H1107.94H1107.94H1107.94H1107.93H1107.93H1107.92H1107.92H1107.92H1107.91H1107.91H1107.9H1107.9H1107.9H1107.89H1107.89H1107.88H1107.88H1107.88H1107.87H1107.87H1107.86H1107.86H1107.86H1107.85H1107.85H1107.84H1107.84H1107.84H1107.83H1107.83H1107.83H1107.82H1107.82H1107.81H1107.81H1107.81H1107.8H1107.8H1107.79H1107.79H1107.79H1107.78H1107.78H1107.77H1107.77H1107.77H1107.76H1107.76H1107.75H1107.75H1107.75H1107.74H1107.74H1107.73H1107.73H1107.73H1107.72H1107.72H1107.71H1107.71H1107.71H1107.7H1107.7H1107.7H1107.69H1107.69H1107.68H1107.68H1107.68H1107.67H1107.67H1107.66H1107.66H1107.66H1107.65H1107.65H1107.64H1107.64H1107.64H1107.63H1107.63H1107.62H1107.62H1107.62H1107.61H1107.61H1107.61H1107.6H1107.6H1107.59H1107.59H1107.59H1107.58H1107.58H1107.57H1107.57H1107.57H1107.56H1107.56H1107.55H1107.55H1107.55H1107.54H1107.54H1107.54H1107.53H1107.53H1107.52H1107.52H1107.52H1107.51H1107.51H1107.5H1107.5H1107.5H1107.49H1107.49H1107.48H1107.48H1107.48H1107.47H1107.47H1107.47H1107.46H1107.46H1107.45H1107.45H1107.45H1107.44H1107.44H1107.43H1107.43H1107.43H1107.42H1107.42H1107.42H1107.41H1107.41H1107.4H1107.4H1107.4H1107.39H1107.39H1107.38H1107.38H1107.38H1107.37H1107.37H1107.37H1107.36H1107.36H1107.35H1107.35H1107.35H1107.34C1106.78 130.873 1106.17 130.833 1105.49 130.748L1105.43 130.741L1105.38 130.737C1102.76 130.563 1100.13 130.04 1097.49 129.16C1094.92 128.272 1092.48 127.165 1090.18 125.839C1087.89 124.429 1085.83 122.851 1084 121.106C1082.29 119.303 1080.98 117.398 1080.06 115.392L1080.06 115.381L1080.05 115.369C1079.04 113.236 1077.5 111.572 1075.46 110.433C1073.57 109.325 1071.5 108.77 1069.29 108.77C1067.7 108.77 1066.09 109.113 1064.49 109.752L1064.43 109.775L1064.38 109.802C1062.28 110.794 1060.6 112.25 1059.36 114.16L1059.34 114.196L1059.31 114.232C1058.2 116.13 1057.64 118.206 1057.64 120.422C1057.64 122.207 1058.03 123.903 1058.82 125.485C1060.59 129.33 1063.1 132.948 1066.3 136.343C1069.49 139.73 1073.12 142.724 1077.16 145.327C1081.22 147.934 1085.56 150.009 1090.19 151.553C1094.93 153.196 1099.69 154.12 1104.46 154.316C1110.58 154.602 1116.57 154.172 1122.42 153.021C1128.31 151.861 1133.75 149.827 1138.71 146.911C1143.79 143.975 1148.19 140.065 1151.88 135.202C1155.71 130.188 1158.52 124.004 1160.34 116.711C1161.4 112.498 1161.94 108.692 1161.94 105.314C1161.94 99.5093 1160.61 94.4856 1157.83 90.3601C1155.24 86.3771 1151.77 83.0164 1147.45 80.2703C1143.29 77.5614 1138.53 75.3054 1133.19 73.4902C1128.03 71.6164 1122.74 69.8368 1117.31 68.1512L1117.3 68.1484L1117.29 68.1457C1113.58 67.033 1109.92 65.8741 1106.3 64.6691C1102.85 63.4874 1099.84 62.1806 1097.26 60.7561C1094.73 59.3623 1092.87 57.8477 1091.58 56.2469C1090.58 54.9071 1090.24 53.3342 1090.69 51.3301L1090.69 51.3227L1090.69 51.3153C1091.78 46.2539 1093.33 42.3818 1095.27 39.5945C1097.34 36.6695 1099.79 34.5236 1102.64 33.1002L1102.65 33.0951L1102.66 33.0899C1105.68 31.538 1109.17 30.525 1113.16 30.0816L1113.18 30.0795L1113.2 30.077C1117.37 29.5327 1122.07 29.3022 1127.31 29.3941L1127.33 29.3944H1127.35C1129.47 29.3944 1131.65 29.5716 1133.89 29.9289L1133.9 29.9307C1136.15 30.2779 1138.16 30.8795 1139.92 31.7181L1139.95 31.7351L1139.99 31.7507C1141.69 32.4811 1143.07 33.4763 1144.17 34.7267L1144.19 34.7509L1144.21 34.7744C1145.13 35.7572 1145.63 37.0209 1145.63 38.7256C1145.63 40.0292 1145.36 41.3567 1144.8 42.7204L1144.79 42.7421L1144.79 42.764C1143.66 45.6875 1143.73 48.6858 1144.94 51.6508L1144.94 51.6632L1144.95 51.6755C1146.19 54.6052 1148.36 56.7061 1151.35 57.9244C1154.35 59.1435 1157.37 59.1546 1160.3 57.9141Z" fill="#CE301C" stroke="#14121D" stroke-width="4"/>
<path d="M1023.05 45.2452C1023.64 43.3687 1024.75 41.7958 1026.33 40.5462C1026.92 40.0189 1027.45 39.4169 1027.9 38.7352L1027.94 38.6744L1027.99 38.6167L1028.87 37.4841C1028.07 36.5291 1027.44 35.4489 1026.99 34.2517M1023.05 45.2452L1026.99 34.2517M1023.05 45.2452C1022.49 46.932 1022.33 48.7072 1022.54 50.5442C1022.78 53.0666 1023.87 55.2815 1025.71 57.1476C1026.93 58.564 1028.39 59.6297 1030.08 60.3072L1030.1 60.3153L1030.12 60.3229C1031.91 60.9946 1033.77 61.2198 1035.67 60.9961L1035.7 60.9932L1035.72 60.9897C1038.12 60.6471 1040.29 59.5633 1042.23 57.8467L1042.25 57.8266L1042.27 57.8059C1044.05 56.1293 1045.8 54.1301 1047.53 51.8214C1049.36 49.4063 1050.84 47.008 1051.93 44.6256C1052.73 43.0237 1053.34 41.4049 1053.75 39.7701L1053.75 39.7566L1053.76 39.7431C1054.15 38.0578 1054.4 36.4073 1054.5 34.7934L1054.51 34.6542L1054.5 34.5152C1054.3 31.8889 1053.69 29.4653 1052.65 27.2689C1051.63 24.8992 1049.85 22.9493 1047.45 21.3879M1023.05 45.2452L1047.45 21.3879M1026.99 34.2517C1026.32 32.4476 1026.1 30.5442 1026.32 28.5723L1026.32 28.5413L1026.33 28.5103C1026.55 26.9473 1027.06 25.5076 1027.88 24.2221L1027.89 24.2042L1027.9 24.1865C1028.75 22.9175 1029.72 21.826 1030.83 20.9363L1030.87 20.9076L1030.91 20.8806C1032.11 20.0047 1033.43 19.3457 1034.85 18.9078L1034.87 18.9018L1034.89 18.8963C1036.47 18.4448 1038.1 18.3357 1039.76 18.5571L1039.77 18.5583L1039.78 18.5596C1042.65 18.9693 1045.22 19.9008 1047.45 21.3879M1026.99 34.2517L1047.45 21.3879" fill="#CE301C" stroke="#14121D" stroke-width="4"/>
<path d="M914.52 37.508H914.512C911.294 37.508 908.469 36.3778 906.138 34.1584L906.103 34.1247L906.069 34.0894C903.866 31.776 902.691 28.9782 902.581 25.7844L902.58 25.75V25.7155C902.58 22.4956 903.713 19.6974 905.963 17.4466L914.52 37.508ZM914.52 37.508L914.529 37.5079M914.52 37.508L914.529 37.5079M914.529 37.5079L946.553 37.2465L935.186 141.329L935.185 141.34C934.852 144.559 935.699 147.471 937.725 149.947C939.748 152.419 942.427 153.835 945.642 154.167C948.854 154.499 951.76 153.657 954.232 151.641C956.793 149.631 958.273 146.951 958.609 143.714C958.609 143.713 958.609 143.711 958.609 143.71L970.029 37.0755L1007.54 36.8085C1007.54 36.8085 1007.55 36.8085 1007.55 36.8085C1010.76 36.8068 1013.56 35.674 1015.81 33.4249C1018.14 31.093 1019.3 28.2405 1019.19 24.9817C1019.18 21.7606 1017.99 18.9759 1015.67 16.7467C1013.43 14.4152 1010.64 13.2236 1007.4 13.2236L1007.39 13.2237L914.36 13.7832L914.332 13.7834M914.529 37.5079L914.332 13.7834M914.332 13.7834L914.303 13.7844M914.332 13.7834L914.303 13.7844M914.303 13.7844C911.079 13.8956 908.271 15.1392 905.963 17.4466L914.303 13.7844Z" fill="#CE301C" stroke="#14121D" stroke-width="4"/>
<path d="M866.563 107.181L866.56 107.196L866.558 107.211C865.729 112.002 864.818 115.855 863.836 118.801C863.347 120.224 862.905 121.142 862.544 121.667C862.519 121.704 862.495 121.737 862.473 121.766C862.332 121.663 862.13 121.493 861.867 121.215C861.183 120.493 860.341 119.316 859.348 117.601C857.349 114.149 855.146 109.658 852.74 104.105C850.332 98.4541 847.827 92.1478 845.227 85.1841C842.714 78.1099 840.247 71.0823 837.827 64.1013C835.5 57.12 833.36 50.5591 831.406 44.4182C829.515 38.3843 828.02 33.4087 826.918 29.4862L827.703 23.4705C827.703 23.4679 827.704 23.4653 827.704 23.4627C828.147 20.236 827.356 17.3042 825.325 14.8131C823.319 12.2587 820.647 10.7793 817.421 10.4389C814.889 10.1139 812.504 10.554 810.346 11.7937C808.331 12.8626 806.767 14.4367 805.668 16.4607C804.143 17.7775 803.021 19.4338 802.302 21.3867L802.285 21.4309L802.271 21.4758C801.596 23.6128 801.546 25.8082 802.098 28.0189C802.276 28.7303 802.403 29.3288 802.485 29.8212L802.511 29.976L802.561 30.1248C802.697 30.5328 802.834 30.9217 802.973 31.2908L790.303 138.775C789.864 141.997 790.656 144.924 792.684 147.412C794.683 149.957 797.337 151.478 800.548 151.92L800.581 151.925L800.615 151.929C803.818 152.26 806.716 151.423 809.184 149.42C811.749 147.508 813.271 144.887 813.714 141.679L813.717 141.659L813.719 141.639L820.445 84.402C823.055 91.2273 825.788 97.9056 828.646 104.437L828.649 104.444C832.589 113.357 836.586 121.305 840.64 128.282L840.648 128.295L840.656 128.309C844.809 135.199 848.953 140.788 853.101 145.034C857.281 149.405 861.637 151.939 866.15 151.939C870.16 151.939 873.488 149.478 876.192 145.476C878.948 141.536 881.305 136.449 883.299 130.278C885.379 124.036 887.216 117.011 888.814 109.212L888.815 109.208C890.407 101.339 891.812 93.3318 893.029 85.1851L893.03 85.1818C894.246 76.9473 895.229 68.9434 895.979 61.1703C896.818 53.3324 897.473 46.3722 897.94 40.2917C898.499 34.1432 898.874 29.1823 899.063 25.4186L899.376 21.1399L899.455 20.0644L899.474 19.7956L899.479 19.7283L899.48 19.7115L899.481 19.7073L899.481 19.7063L899.481 19.706L899.481 19.7059L899.484 19.6675L899.485 19.629C899.596 16.4039 898.524 13.5627 896.31 11.2214C894.194 8.78917 891.471 7.43489 888.251 7.21279C884.989 6.9878 882.078 8.0237 879.634 10.2462L879.616 10.2618L879.6 10.2778C877.276 12.4909 876.029 15.251 875.905 18.4535L875.903 18.4719L875.883 18.6883L875.805 19.5539L875.49 23.0162L875.487 23.0443L875.486 23.0725C875.3 26.0453 875.021 30.0461 874.648 35.0779C874.276 40.0096 873.81 45.6422 873.251 51.9764C872.692 58.218 872.087 64.6464 871.435 71.2615C870.784 77.7679 870.041 84.1805 869.204 90.4993C868.369 96.7209 867.488 102.281 866.563 107.181ZM862.245 122.024C862.245 122.023 862.251 122.018 862.263 122.01C862.251 122.02 862.245 122.024 862.245 122.024Z" fill="#CE301C" stroke="#14121D" stroke-width="4"/>
<path d="M691.642 35.3877C690.71 39.3218 689.748 43.5048 688.754 47.9364C687.647 52.7933 686.539 57.8815 685.432 63.2008C682.371 63.5 679.744 64.8416 677.63 67.1595C675.388 69.5224 674.356 72.3988 674.581 75.6541L674.582 75.672L674.584 75.6898C674.801 78.1837 675.628 80.3943 677.122 82.2335C678.209 83.5715 679.52 84.6277 681.034 85.3979C679.669 92.8655 678.547 99.9302 677.671 106.591C676.732 113.727 676.255 119.743 676.255 124.619C676.255 126.242 676.303 127.736 676.4 129.098L676.4 129.098L676.401 129.109C676.493 130.314 676.673 131.433 676.954 132.454V132.925L677.165 133.347C677.203 133.422 677.262 133.561 677.337 133.784L679.234 133.152L677.337 133.784L677.617 134.624L677.638 134.688L677.664 134.751C680.016 140.479 684.269 144.746 690.266 147.548C696.15 150.39 703.042 151.973 710.892 152.356L710.894 152.356C714.92 152.548 719.256 152.404 723.901 151.931C728.635 151.551 733.413 150.888 738.234 149.943C743.052 148.998 747.823 147.817 752.547 146.401C757.364 144.984 761.907 143.375 766.175 141.574C769.185 140.344 771.348 138.178 772.576 135.166C773.793 132.177 773.806 129.158 772.57 126.23C771.342 123.223 769.18 121.062 766.174 119.834C763.246 118.598 760.227 118.611 757.239 119.829L757.234 119.83C753.666 121.294 749.909 122.624 745.963 123.817C742.009 124.92 738.056 125.886 734.103 126.713C730.157 127.447 726.26 127.997 722.411 128.363L722.406 128.364C718.662 128.729 715.162 128.865 711.904 128.775C708.072 128.592 705.01 128.183 702.678 127.579C700.471 127.007 699.69 126.309 699.448 125.887C699.261 125.108 699.14 123.918 699.14 122.24C699.14 118.473 699.636 113.228 700.655 106.462C701.698 100.032 702.945 93.151 704.396 85.8177L751.393 83.1089L751.407 83.1081L751.421 83.1071C752.965 82.9968 754.425 82.6094 755.782 81.9358C757.213 81.2712 758.454 80.3721 759.48 79.2326C760.488 78.1119 761.267 76.8275 761.818 75.3951C762.393 73.9005 762.615 72.313 762.509 70.6593C762.389 67.4191 761.072 64.6745 758.62 62.5484C756.182 60.3401 753.282 59.3099 750.032 59.5313C750.029 59.5316 750.025 59.5318 750.022 59.5321L709.594 61.8946C710.708 56.8737 711.821 52.0581 712.934 47.4479C714.097 42.6289 715.149 38.2156 716.091 34.2083L775.725 31.0697L775.741 31.0688L775.757 31.0677C778.959 30.8469 781.712 29.5555 783.923 27.2342L782.474 25.8549L783.923 27.2342C786.168 24.8764 787.205 22.0059 786.99 18.7569C786.869 15.5132 785.551 12.736 783.12 10.5257C780.68 8.3071 777.775 7.27094 774.52 7.49115L720.248 10.3404C719.759 8.79593 718.948 7.37863 717.834 6.09947C716.351 4.28527 714.414 3.05018 712.099 2.38853L712.059 2.37714L712.018 2.36741C708.821 1.59562 705.767 2.03874 702.977 3.70938C700.249 5.30438 698.499 7.76866 697.724 10.935L697.57 11.4751L690.19 11.8265L690.169 11.8275L690.148 11.829C686.946 12.0498 684.193 13.3411 681.983 15.6624C679.729 18.0285 678.693 20.9109 678.918 24.1739C679.138 27.3757 680.43 30.1285 682.751 32.3393C685.111 34.5871 687.985 35.6242 691.238 35.406L691.642 35.3877Z" fill="#CE301C" stroke="#14121D" stroke-width="4"/>
<path d="M566.381 126.341L576.261 38.7363C575.395 38.9428 574.503 39.0457 573.586 39.0457C571.37 39.0457 569.294 38.4868 567.396 37.3707L567.36 37.3491L567.324 37.326C565.414 36.0901 563.958 34.4007 562.966 32.3062L562.93 32.2306L562.901 32.1523C562.605 31.3644 562.354 30.6135 562.151 29.9011C561.908 29.0529 561.794 28.167 561.794 27.2533C561.794 25.0368 562.353 22.9606 563.469 21.0633L563.491 21.0266L563.514 20.9908C564.75 19.0809 566.439 17.6248 568.533 16.6327L568.536 16.6316C575.36 13.409 582.066 11.0277 588.652 9.49957C595.318 7.88163 601.815 7.06738 608.14 7.06738C610.721 7.06738 613.302 7.21022 615.883 7.49574C624.412 8.17045 632.131 10.3337 639.011 14.0137C645.857 17.5829 651.705 22.27 656.54 28.0713C661.364 33.8603 665.025 40.4628 667.525 47.8619C670.12 55.1718 671.412 62.9019 671.412 71.0395C671.412 73.5399 671.268 76.0837 670.981 78.6704C670.981 78.6718 670.98 78.6732 670.98 78.6746L668.993 78.4537C667.967 88.0596 666.381 96.5464 664.236 103.914C662.091 111.188 659.433 117.53 656.262 122.939C653.185 128.255 649.594 132.778 645.491 136.509L566.381 126.341ZM566.381 126.341C563.367 125.95 560.578 126.655 558.129 128.465C555.556 130.367 553.981 132.973 553.43 136.169C552.874 139.394 553.551 142.374 555.471 144.972C557.372 147.545 559.978 149.12 563.174 149.671L563.189 149.674L563.204 149.676C569.757 150.706 576.127 151.549 582.313 152.205C588.536 152.959 594.534 153.337 600.306 153.337C606.286 153.337 611.953 152.863 617.303 151.907L566.381 126.341ZM638.69 110.107L638.686 110.115L638.682 110.122C636.618 114.071 634.268 117.292 631.65 119.823C629.101 122.284 626.251 124.256 623.093 125.747C619.925 127.243 616.429 128.31 612.594 128.936C608.789 129.479 604.647 129.753 600.166 129.753C598.146 129.753 596.077 129.707 593.961 129.615C592.594 129.553 591.205 129.469 589.794 129.365L600.612 33.512C600.721 32.688 600.738 31.8801 600.654 31.0953C601.686 30.9438 602.679 30.8421 603.634 30.789L603.689 30.786L603.744 30.7799C605.35 30.6015 606.955 30.5123 608.559 30.5123C609.426 30.5123 610.237 30.5557 610.996 30.64L611.106 30.6522H611.217C611.982 30.6522 612.748 30.6947 613.514 30.7799L613.543 30.7831L613.572 30.7854C619.018 31.2318 623.826 32.6098 628.031 34.8874L628.045 34.8951L628.06 34.9026C632.309 37.1158 635.872 39.9799 638.772 43.4945L638.78 43.5041L638.788 43.5136C641.687 46.94 643.897 50.9517 645.408 55.5734L645.414 55.5898L645.419 55.6061C647.021 60.2341 647.827 65.1414 647.827 70.34V70.346V70.352V70.358V70.364V70.37V70.3761V70.3821V70.3881V70.3941V70.4001V70.4061V70.4121V70.4181V70.4241V70.4302V70.4362V70.4422V70.4482V70.4542V70.4602V70.4662V70.4722V70.4782V70.4843V70.4903V70.4963V70.5023V70.5083V70.5143V70.5203V70.5263V70.5323V70.5384V70.5444V70.5504V70.5564V70.5624V70.5684V70.5744V70.5804V70.5864V70.5925V70.5985V70.6045V70.6105V70.6165V70.6225V70.6285V70.6345V70.6405V70.6466V70.6526V70.6586V70.6646V70.6706V70.6766V70.6826V70.6886V70.6946V70.7006V70.7067V70.7127V70.7187V70.7247V70.7307V70.7367V70.7427V70.7487V70.7547V70.7608V70.7668V70.7728V70.7788V70.7848V70.7908V70.7968V70.8028V70.8088V70.8149V70.8209V70.8269V70.8329V70.8389V70.8449V70.8509V70.8569V70.8629V70.869V70.875V70.881V70.887V70.893V70.899V70.905V70.911V70.917V70.9231V70.9291V70.9351V70.9411V70.9471V70.9531V70.9591V70.9651V70.9711V70.9772V70.9832V70.9892V70.9952V71.0012V71.0072V71.0132V71.0192V71.0252V71.0313V71.0373V71.0433V71.0493V71.0553V71.0613V71.0673V71.0733V71.0793V71.0854V71.0914V71.0974V71.1034V71.1094V71.1154V71.1214V71.1274V71.1334V71.1395V71.1455V71.1515V71.1575V71.1635V71.1695V71.1755V71.1815V71.1875V71.1936V71.1996V71.2056V71.2116V71.2176V71.2236V71.2296V71.2356V71.2416V71.2477V71.2537V71.2597V71.2657V71.2717V71.2777V71.2837V71.2897V71.2957V71.3018V71.3078V71.3138V71.3198V71.3258V71.3318V71.3378V71.3438V71.3498V71.3559V71.3619V71.3679V71.3739V71.3799V71.3859V71.3919V71.3979V71.4039V71.4099V71.416V71.422V71.428V71.434V71.44V71.446V71.452V71.458V71.464V71.4701V71.4761V71.4821V71.4881V71.4941V71.5001V71.5061V71.5121V71.5181V71.5242V71.5302V71.5362V71.5422V71.5482V71.5542V71.5602V71.5662V71.5722V71.5783V71.5843V71.5903V71.5963V71.6023V71.6083V71.6143V71.6203V71.6263V71.6324V71.6384V71.6444V71.6504V71.6564V71.6624V71.6684V71.6744V71.6804V71.6865V71.6925V71.6985V71.7045V71.7105V71.7165V71.7225V71.7285V71.7345V71.7406V71.7466V71.7526V71.7586V71.7646V71.7706V71.7766V71.7826V71.7886V71.7947V71.8007V71.8067V71.8127V71.8187V71.8247V71.8307V71.8367V71.8427V71.8488V71.8548V71.8608V71.8668V71.8728V71.8788V71.8848V71.8908V71.8968V71.9028V71.9089V71.9149V71.9209V71.9269V71.9329V71.9389V71.9449V71.9509V71.9569V71.963V71.969V71.975V71.981V71.987V71.993V71.999V72.005V72.011V72.0171V72.0231V72.0291V72.0351V72.0411V72.0471V72.0531V72.0591V72.0651V72.0712V72.0772V72.0832V72.0892V72.0952V72.1012V72.1072V72.1132V72.1192V72.1253V72.1313V72.1373V72.1433V72.1493V72.1553V72.1613V72.1673V72.1733V72.1794V72.1854V72.1914V72.1974V72.2034V72.2094V72.2154V72.2214V72.2274V72.2335V72.2395V72.2455V72.2515V72.2575V72.2635V72.2695V72.2755V72.2815V72.2876V72.2936V72.2996V72.3056V72.3116V72.3176V72.3236V72.3296V72.3356V72.3417V72.3477V72.3537V72.3597V72.3657V72.3717V72.3777V72.3837V72.3897V72.3957V72.4018V72.4078V72.4138V72.4198V72.4258V72.4318V72.4378V72.4438V72.4498V72.4559V72.4619V72.4679V72.4739V72.4799V72.4859V72.4919V72.4979V72.5039V72.51V72.516V72.522V72.528V72.534V72.54V72.546V72.552V72.558V72.5641V72.5701V72.5761V72.5821V72.5881V72.5941V72.6001V72.6061V72.6121V72.6182V72.6242V72.6302V72.6362V72.6422V72.6482V72.6542V72.6602V72.6662V72.6723V72.6783V72.6843V72.6903V72.6963V72.7023V72.7083V72.7143V72.7203V72.7264V72.7324V72.7384V72.7444V72.7504V72.7564V72.7624V72.7684V72.7744V72.7805V72.7865V72.7925V72.7985V72.8045V72.8105V72.8165V72.8225V72.8285V72.8345V72.8406V72.8466V72.8526V72.8586V72.8646V72.8706V72.8766V72.8826V72.8886V72.8947V72.9007V72.9067V72.9127V72.9187V72.9247V72.9307V72.9367V72.9427V72.9488V72.9548V72.9608V72.9668V72.9728V72.9788V72.9848V72.9908V72.9968V73.0029V73.0089V73.0149V73.0209V73.0269V73.0329V73.0389V73.0449V73.0509V73.057V73.063V73.069V73.075V73.081V73.087V73.093V73.099V73.105V73.1111V73.1171V73.1231V73.1291V73.1351V73.1411V73.1471V73.1531V73.1591V73.1652V73.1712V73.1772V73.1832V73.1892V73.1952V73.2012V73.2072V73.2132V73.2193V73.2253V73.2313V73.2373V73.2433V73.2493V73.2553V73.2613V73.2673V73.2734V73.2794V73.2854V73.2914V73.2974V73.3034V73.3094V73.3154V73.3214V73.3275V73.3335V73.3395V73.3455V73.3515V73.3575V73.3635V73.3695V73.3755V73.3816V73.3876V73.3936V73.3996V73.4056V73.4116V73.4176C647.827 74.2172 647.747 75.0762 647.58 75.9976L647.567 76.0657L647.56 76.1345C646.728 83.6183 645.577 90.1403 644.116 95.7126C642.654 101.285 640.84 106.076 638.69 110.107Z" fill="#CE301C" stroke="#14121D" stroke-width="4"/>
<path d="M471.005 151.658L471.008 151.658L489.81 150.981C491.282 151.897 492.973 152.476 494.841 152.756L494.893 152.764L494.945 152.769C498.083 153.073 500.908 152.336 503.29 150.516L523.044 149.839L523.045 149.839C526.296 149.727 529.079 148.414 531.295 145.986C533.522 143.639 534.554 140.786 534.349 137.559C534.339 135.993 533.997 134.506 533.312 133.125C532.663 131.727 531.79 130.509 530.687 129.497C529.642 128.361 528.374 127.511 526.911 126.949C525.416 126.373 523.828 126.152 522.173 126.258L509.86 126.727L521.391 33.1449L538.659 32.8909C541.905 32.8871 544.708 31.6836 546.947 29.3325C549.166 27.0021 550.296 24.1767 550.296 20.9586C550.296 17.7149 549.099 14.9125 546.756 12.6726C544.508 10.4332 541.716 9.30607 538.504 9.30607H538.492L538.48 9.30621L515.566 9.58063C514.67 9.20229 513.636 8.9432 512.508 8.76976L512.407 8.75413L512.304 8.749C510.263 8.64694 508.272 8.97842 506.347 9.7303L482.815 10.0055C479.571 10.0085 476.739 11.2085 474.418 13.529C472.167 15.7798 471.035 18.578 471.035 21.798C471.035 25.0471 472.235 27.8833 474.558 30.2068L474.575 30.224L474.593 30.2408C476.934 32.4707 479.779 33.555 483.009 33.4502L497.495 33.3295L486.084 127.57L470.173 128.075L470.168 128.075C466.941 128.187 464.16 129.435 461.934 131.773C459.688 134.13 458.651 137.001 458.866 140.25C458.985 143.462 460.233 146.231 462.562 148.449C464.91 150.686 467.764 151.77 471.005 151.658Z" fill="#CE301C" stroke="#14121D" stroke-width="4"/>
<path d="M446.771 57.9141L446.788 57.9071L451.308 50.6164L453.158 51.3755C453.158 51.3746 453.159 51.3737 453.159 51.3728C454.754 47.485 455.546 43.3566 455.546 39.0054C455.546 36.1171 455.148 33.2771 454.352 30.4906C453.549 27.5834 452.297 24.8327 450.603 22.243L450.598 22.2346C446.725 16.375 441.44 12.1905 434.8 9.71279C428.33 7.29841 421.484 6.04716 414.275 5.94975C406.788 5.76095 399.748 6.28191 393.162 7.52279L393.157 7.5238C386.611 8.77517 380.7 10.949 375.446 14.0628C370.142 17.2056 365.687 21.4722 362.081 26.8306C358.447 32.136 355.847 38.7393 354.223 46.5732L354.223 46.5732L354.22 46.587C353.639 49.492 353.342 52.236 353.342 54.8132C353.342 60.4209 354.574 65.258 357.168 69.2021L357.178 69.2173L357.189 69.2323C359.777 73.0147 363.148 76.228 367.27 78.8782L367.279 78.884L367.288 78.8896C371.439 81.4959 376.099 83.7024 381.258 85.5175C386.315 87.297 391.511 89.0291 396.847 90.714L396.859 90.7177L396.871 90.7213C400.855 91.9259 404.698 93.176 408.4 94.4717L408.407 94.4742L408.414 94.4767C412.117 95.741 415.222 97.2126 417.757 98.8733L417.79 98.895L417.824 98.9154C420.396 100.459 422.234 102.246 423.433 104.245L423.442 104.26L423.452 104.276C424.49 105.936 424.788 108.042 424.054 110.816C422.982 114.838 421.53 118.102 419.741 120.662C417.92 123.174 415.817 125.183 413.435 126.714C411.039 128.254 408.38 129.329 405.44 129.935C402.41 130.558 399.235 130.873 395.911 130.873H395.906H395.902H395.897H395.893H395.889H395.884H395.88H395.876H395.871H395.867H395.862H395.858H395.854H395.849H395.845H395.841H395.836H395.832H395.828H395.823H395.819H395.815H395.81H395.806H395.802H395.797H395.793H395.789H395.784H395.78H395.776H395.771H395.767H395.762H395.758H395.754H395.749H395.745H395.741H395.736H395.732H395.728H395.724H395.719H395.715H395.711H395.706H395.702H395.698H395.693H395.689H395.685H395.68H395.676H395.672H395.667H395.663H395.659H395.654H395.65H395.646H395.642H395.637H395.633H395.629H395.624H395.62H395.616H395.611H395.607H395.603H395.599H395.594H395.59H395.586H395.581H395.577H395.573H395.568H395.564H395.56H395.556H395.551H395.547H395.543H395.538H395.534H395.53H395.526H395.521H395.517H395.513H395.509H395.504H395.5H395.496H395.491H395.487H395.483H395.479H395.474H395.47H395.466H395.462H395.457H395.453H395.449H395.445H395.44H395.436H395.432H395.428H395.423H395.419H395.415H395.411H395.406H395.402H395.398H395.394H395.389H395.385H395.381H395.377H395.372H395.368H395.364H395.36H395.355H395.351H395.347H395.343H395.339H395.334H395.33H395.326H395.322H395.317H395.313H395.309H395.305H395.301H395.296H395.292H395.288H395.284H395.279H395.275H395.271H395.267H395.263H395.258H395.254H395.25H395.246H395.242H395.237H395.233H395.229H395.225H395.221H395.216H395.212H395.208H395.204H395.2H395.195H395.191H395.187H395.183H395.179H395.174H395.17H395.166H395.162H395.158H395.153H395.149H395.145H395.141H395.137H395.133H395.128H395.124H395.12H395.116H395.112H395.108H395.103H395.099H395.095H395.091H395.087H395.083H395.078H395.074H395.07H395.066H395.062H395.058H395.053H395.049H395.045H395.041H395.037H395.033H395.028H395.024H395.02H395.016H395.012H395.008H395.004H394.999H394.995H394.991H394.987H394.983H394.979H394.975H394.97H394.966H394.962H394.958H394.954H394.95H394.946H394.942H394.937H394.933H394.929H394.925H394.921H394.917H394.913H394.909H394.904H394.9H394.896H394.892H394.888H394.884H394.88H394.876H394.871H394.867H394.863H394.859H394.855H394.851H394.847H394.843H394.839H394.835H394.83H394.826H394.822H394.818H394.814H394.81H394.806H394.802H394.798H394.794H394.79H394.785H394.781H394.777H394.773H394.769H394.765H394.761H394.757H394.753H394.749H394.745H394.741H394.736H394.732H394.728H394.724H394.72H394.716H394.712H394.708H394.704H394.7H394.696H394.692H394.688H394.684H394.679H394.675H394.671H394.667H394.663H394.659H394.655H394.651H394.647H394.643H394.639H394.635H394.631H394.627H394.623H394.619H394.615H394.611H394.607H394.603H394.599H394.594H394.59H394.586H394.582H394.578H394.574H394.57H394.566H394.562H394.558H394.554H394.55H394.546H394.542H394.538H394.534H394.53H394.526H394.522H394.518H394.514H394.51H394.506H394.502H394.498H394.494H394.49H394.486H394.482H394.478H394.474H394.47H394.466H394.462H394.458H394.454H394.45H394.446H394.442H394.438H394.434H394.43H394.426H394.422H394.418H394.414H394.41H394.406H394.402H394.398H394.394H394.39H394.386H394.382H394.378H394.374H394.37H394.366H394.362H394.358H394.354H394.35H394.346H394.342H394.338H394.334H394.33H394.326H394.322H394.318H394.314H394.31H394.307H394.303H394.299H394.295H394.291H394.287H394.283H394.279H394.275H394.271H394.267H394.263H394.259H394.255H394.251H394.247H394.243H394.239H394.235H394.231H394.228H394.224H394.22H394.216H394.212H394.208H394.204H394.2H394.196H394.192H394.188H394.184H394.18H394.176H394.172H394.169H394.165H394.161H394.157H394.153H394.149H394.145H394.141H394.137H394.133H394.129H394.125H394.122H394.118H394.114H394.11H394.106H394.102H394.098H394.094H394.09H394.086H394.083H394.079H394.075H394.071H394.067H394.063H394.059H394.055H394.051H394.047H394.044H394.04H394.036H394.032H394.028H394.024H394.02H394.016H394.012H394.009H394.005H394.001H393.997H393.993H393.989H393.985H393.981H393.978H393.974H393.97H393.966H393.962H393.958H393.954H393.951H393.947H393.943H393.939H393.935H393.931H393.927H393.924H393.92H393.916H393.912H393.908H393.904H393.9H393.897H393.893H393.889H393.885H393.881H393.877H393.873H393.87H393.866H393.862H393.858H393.854H393.85H393.847H393.843H393.839H393.835H393.831H393.827H393.824H393.82H393.816H393.812C393.254 130.873 392.638 130.833 391.962 130.748L391.904 130.741L391.847 130.737C389.231 130.563 386.604 130.04 383.962 129.16C381.389 128.272 378.952 127.165 376.65 125.839C374.363 124.429 372.303 122.851 370.466 121.106C368.755 119.303 367.452 117.398 366.533 115.392L366.528 115.381L366.522 115.369C365.512 113.236 363.972 111.572 361.93 110.433C360.039 109.325 357.97 108.77 355.762 108.77C354.165 108.77 352.561 109.113 350.962 109.752L350.904 109.775L350.849 109.802C348.754 110.794 347.065 112.25 345.829 114.16L345.806 114.196L345.784 114.232C344.668 116.13 344.109 118.206 344.109 120.422C344.109 122.207 344.5 123.903 345.285 125.485C347.064 129.33 349.567 132.948 352.768 136.343C355.961 139.73 359.585 142.724 363.633 145.327C367.689 147.934 372.032 150.009 376.66 151.553C381.398 153.196 386.155 154.12 390.925 154.316C397.048 154.602 403.037 154.172 408.887 153.021C414.783 151.861 420.217 149.827 425.176 146.911C430.263 143.975 434.656 140.065 438.351 135.202C442.185 130.188 444.99 124.004 446.813 116.711C447.866 112.498 448.411 108.692 448.411 105.314C448.411 99.5094 447.082 94.4859 444.302 90.3604C441.71 86.3774 438.237 83.0167 433.925 80.2705C429.762 77.5615 425.001 75.3055 419.656 73.4903C414.502 71.6165 409.209 69.8368 403.778 68.1512L403.769 68.1484L403.76 68.1457C400.051 67.033 396.388 65.8741 392.773 64.6691C389.32 63.4874 386.309 62.1806 383.727 60.7561C381.201 59.3623 379.335 57.8477 378.047 56.2469C377.053 54.9071 376.714 53.3342 377.159 51.3301L377.161 51.3227L377.162 51.3153C378.247 46.2539 379.799 42.3818 381.74 39.5945C383.806 36.6695 386.264 34.5236 389.111 33.1002L389.121 33.0951L389.131 33.0899C392.149 31.538 395.638 30.525 399.629 30.0816L399.648 30.0795L399.666 30.077C403.84 29.5327 408.543 29.3022 413.782 29.3941L413.799 29.3944H413.817C415.943 29.3944 418.123 29.5716 420.355 29.9289L420.367 29.9307C422.624 30.2779 424.625 30.8795 426.386 31.7181L426.422 31.7351L426.458 31.7507C428.163 32.4811 429.543 33.4763 430.637 34.7267L430.658 34.7509L430.68 34.7744C431.598 35.7572 432.101 37.0209 432.101 38.7256C432.101 40.0292 431.834 41.3567 431.272 42.7204L431.263 42.7421L431.255 42.764C430.131 45.6875 430.202 48.6858 431.409 51.6508L431.415 51.6632L431.42 51.6755C432.659 54.6052 434.833 56.7061 437.823 57.9244C440.815 59.1435 443.839 59.1546 446.771 57.9141Z" fill="#CE301C" stroke="#14121D" stroke-width="4"/>
<path d="M244.012 11.8265L243.991 11.8275L243.97 11.829C240.768 12.0498 238.015 13.3411 235.804 15.6624C233.551 18.0285 232.514 20.9109 232.739 24.1739C232.96 27.3757 234.251 30.1286 236.573 32.3393C238.933 34.5871 241.807 35.6242 245.06 35.406L245.463 35.3877C244.532 39.3219 243.569 43.5048 242.576 47.9364C241.468 52.7933 240.361 57.8815 239.254 63.2008C236.192 63.5 233.566 64.8416 231.451 67.1595C229.209 69.5224 228.178 72.3988 228.402 75.6541L228.404 75.672L228.405 75.6898C228.622 78.1837 229.45 80.3943 230.944 82.2335C232.031 83.5715 233.341 84.6277 234.856 85.3979C233.49 92.8655 232.369 99.9302 231.492 106.591C230.554 113.727 230.076 119.743 230.076 124.619C230.076 126.242 230.124 127.736 230.221 129.098L230.221 129.098L230.222 129.109C230.315 130.314 230.495 131.433 230.776 132.454V132.925L230.987 133.347C231.025 133.422 231.084 133.561 231.158 133.784L233.056 133.152L231.158 133.784L231.438 134.624L231.46 134.688L231.485 134.751C233.838 140.479 238.09 144.746 244.088 147.548C249.972 150.39 256.864 151.973 264.714 152.356L264.716 152.356C268.741 152.548 273.078 152.404 277.722 151.931C282.457 151.551 287.234 150.888 292.055 149.943C296.874 148.998 301.645 147.817 306.369 146.4C311.186 144.984 315.729 143.375 319.997 141.574C323.007 140.344 325.17 138.178 326.397 135.166C327.615 132.177 327.627 129.158 326.392 126.23C325.164 123.223 323.002 121.062 319.996 119.834C317.068 118.598 314.048 118.611 311.06 119.829L311.056 119.83C307.487 121.294 303.731 122.624 299.785 123.817C295.831 124.92 291.877 125.886 287.925 126.713C283.979 127.447 280.081 127.997 276.233 128.363L276.228 128.364C272.483 128.729 268.983 128.865 265.726 128.775C261.894 128.592 258.832 128.183 256.5 127.579C254.293 127.007 253.512 126.309 253.269 125.887C253.082 125.108 252.962 123.918 252.962 122.24C252.962 118.473 253.457 113.228 254.477 106.462C255.519 100.032 256.766 93.151 258.217 85.8177L305.215 83.1089L305.229 83.1081L305.242 83.1071C306.787 82.9968 308.247 82.6094 309.604 81.9357C311.034 81.2712 312.276 80.3721 313.301 79.2326C314.31 78.1119 315.089 76.8275 315.64 75.3951C316.215 73.9003 316.437 72.3128 316.33 70.659C316.211 67.4189 314.894 64.6745 312.442 62.5484C310.004 60.3401 307.104 59.3099 303.854 59.5313C303.85 59.5316 303.847 59.5318 303.843 59.5321L263.416 61.8946C264.529 56.8737 265.642 52.0582 266.755 47.4479C267.918 42.6289 268.971 38.2156 269.913 34.2083L329.546 31.0697L329.563 31.0688L329.579 31.0677C332.781 30.8469 335.533 29.5555 337.744 27.2342L336.296 25.8549L337.744 27.2342C339.99 24.8765 341.027 22.0061 340.811 18.7572C340.691 15.5133 339.373 12.7361 336.942 10.5257L335.628 11.9706L336.942 10.5257C334.501 8.3071 331.597 7.27094 328.341 7.49115L274.07 10.3404C273.58 8.79595 272.769 7.37867 271.656 6.09954C270.172 4.2853 268.236 3.05019 265.92 2.38853L265.88 2.37714L265.84 2.36741C262.643 1.59562 259.588 2.03874 256.798 3.70938C254.07 5.30439 252.32 7.76867 251.546 10.935L251.392 11.4751L244.012 11.8265Z" fill="#CE301C" stroke="#14121D" stroke-width="4"/>
<path d="M131.265 35.097C131.977 34.9715 132.688 34.8557 133.4 34.7495L121.509 138.078C121.069 141.306 121.866 144.238 123.904 146.729L123.91 146.736C125.98 149.242 128.611 150.772 131.744 151.219L131.782 151.225L131.821 151.229C135.033 151.561 137.939 150.718 140.411 148.702C142.956 146.704 144.476 144.05 144.919 140.839L144.923 140.816L144.925 140.792L149.759 98.3296C151.247 99.0517 152.782 99.6046 154.362 99.9838L154.399 99.9927L154.437 100C156.586 100.43 158.77 100.708 160.99 100.834C164.113 104.597 167.114 108.484 169.991 112.495C173.07 116.787 176.196 121.126 179.368 125.511L179.374 125.519L179.38 125.528C182.564 129.835 185.887 134.187 189.349 138.586L189.356 138.594L189.363 138.602C192.855 142.944 196.629 147.189 200.682 151.337L200.69 151.345L200.698 151.353C203.006 153.661 205.791 154.877 208.967 154.877C212.187 154.877 214.985 153.744 217.236 151.493C219.544 149.185 220.759 146.401 220.759 143.224C220.759 140.009 219.63 137.215 217.387 134.966C211.394 128.788 206.054 122.433 201.362 115.902C197.184 110.005 193.043 104.215 188.937 98.5323C189.543 98.3555 190.136 98.1708 190.714 97.9779L190.749 97.9662L190.784 97.9532C192.31 97.3808 193.836 96.7611 195.36 96.0943L195.368 96.0905L195.377 96.0867C202.955 92.6864 209.281 87.6739 214.332 81.0688C219.49 74.3532 222.825 66.445 224.367 57.3924C224.658 55.7409 224.854 54.1295 224.952 52.5591L224.953 52.5518C225.048 50.9297 225.096 49.3517 225.096 47.8179C225.096 42.6871 224.323 38.0589 222.732 33.968C221.248 29.8237 219.064 26.1938 216.175 23.1023C213.393 20.0262 209.988 17.4675 205.988 15.415C202.086 13.2725 197.681 11.6329 192.788 10.4809C185.791 8.75671 177.795 7.90723 168.818 7.90723C161.738 7.90723 154.294 8.37897 146.486 9.31924C138.795 10.1637 130.827 11.3357 122.584 12.8341C119.363 13.3919 116.756 15.0364 114.866 17.7043L114.862 17.7112L114.857 17.7182C113.048 20.3182 112.438 23.2808 112.989 26.4745C113.541 29.6769 115.126 32.2571 117.735 34.0716L117.751 34.0829L117.767 34.0939C120.441 35.8764 123.433 36.4909 126.631 35.9395L126.631 35.9395L126.639 35.9382C128.227 35.6579 129.769 35.3775 131.265 35.097ZM185.783 74.5235L185.749 74.5381L185.717 74.5538C183.361 75.6882 180.871 76.5198 178.244 77.0474C175.88 77.4537 173.476 77.6743 171.031 77.7085C168.98 76.1566 166.938 74.9085 164.906 73.9829C162.699 72.9349 160.407 72.3973 158.046 72.3973C156.186 72.3973 154.376 72.7249 152.623 73.364L157.095 34.8991L157.097 34.8883L157.098 34.8774C157.207 33.8393 157.208 32.8352 157.086 31.8756C158.641 31.7733 160.155 31.6916 161.627 31.6302L161.665 31.6286L161.703 31.6256C163.986 31.4429 166.171 31.3522 168.259 31.3522C175.505 31.3522 181.818 32.0408 187.218 33.3908C191.793 34.5345 195.256 36.4323 197.737 38.9966L197.76 39.0202L197.784 39.043C200.185 41.3672 201.511 44.7519 201.511 49.4966C201.511 50.8573 201.384 52.3237 201.123 53.899C200.144 58.9539 198.341 63.1764 195.756 66.6224L195.746 66.6354L195.737 66.6485C193.254 70.073 189.953 72.6988 185.783 74.5235Z" fill="#CE301C" stroke="#14121D" stroke-width="4"/>
<path d="M15.2839 32.3208L15.305 32.3186L15.3261 32.316C16.7828 32.1339 18.1899 31.9978 19.5478 31.9073L19.6054 31.9035L19.6628 31.8963L21.6077 31.6532L9.5958 139.761C9.1575 142.987 9.95429 145.918 11.9913 148.408L11.9973 148.415C14.0876 150.945 16.7895 152.422 20.0147 152.764C23.2384 153.2 26.167 152.403 28.655 150.368C31.11 148.359 32.5673 145.706 33.007 142.518L33.0105 142.492L33.0134 142.467L37.1197 105.643C37.3854 105.662 37.6602 105.716 37.9474 105.812L38.1677 105.885L38.3988 105.906C39.4539 106.002 40.7828 106.097 42.3794 106.191C44.01 106.287 45.775 106.334 47.6729 106.334C50.8294 106.334 54.3011 106.143 58.084 105.765C61.9427 105.379 65.8838 104.608 69.9055 103.459L69.9202 103.455L69.9349 103.451C74.0766 102.199 78.1162 100.515 82.0526 98.4025L82.0602 98.3984L82.0676 98.3943C86.1723 96.1465 89.9666 93.2236 93.452 89.6413L93.4613 89.6318L93.4705 89.6221C96.9808 85.9168 100.025 81.4603 102.618 76.2772C105.331 70.9443 107.341 64.6947 108.673 57.5576L108.674 57.553C109.348 53.8948 109.686 50.2762 109.686 46.6988C109.686 41.5567 108.91 36.9193 107.311 32.8218L105.448 33.5489L107.311 32.8218C105.73 28.7703 103.498 25.1939 100.614 22.1104C97.7367 19.0351 94.2793 16.52 90.2642 14.5578C86.3878 12.5255 82.0542 10.8933 77.2752 9.65068C72.8728 8.50224 68.1975 7.69243 63.2524 7.21694C58.3337 6.744 53.1869 6.5083 47.8128 6.5083C42.0742 6.5083 36.2445 6.74328 30.3237 7.21278C24.4188 7.58803 18.5142 8.15031 12.61 8.89958C9.38205 9.23944 6.70953 10.7189 4.70323 13.274C2.68747 15.7462 1.84484 18.6519 2.17712 21.8639L2.18062 21.8977L2.18526 21.9314C2.62497 25.1193 4.08225 27.7723 6.53722 29.781L6.554 29.7947L6.57108 29.8081C9.12304 31.8052 12.0632 32.654 15.2839 32.3208ZM40.2269 82.3451L40.1585 82.3366L40.0897 82.3327L39.6826 82.3101L45.1826 32.9433C45.1829 32.9412 45.1831 32.939 45.1834 32.9369C45.2959 31.9754 45.2817 31.0261 45.1427 30.0932H47.533C51.9542 30.0932 56.1835 30.2774 60.222 30.6445L60.2444 30.6465L60.267 30.6481C64.2574 30.9202 67.9531 31.508 71.3596 32.404C75.9469 33.6398 79.5401 35.5937 82.2335 38.2029L82.2452 38.2143L82.2572 38.2255C84.7481 40.5608 86.1016 43.897 86.1016 48.5174C86.1016 49.2825 86.0591 50.0481 85.9739 50.8145L87.9617 51.0354L85.9739 50.8146C85.8878 51.5898 85.7574 52.4183 85.5809 53.3011L85.5763 53.3242L85.5722 53.3473C84.3989 60.0262 82.2602 65.1864 79.262 68.9555L79.2584 68.9601C76.2367 72.7816 72.8519 75.6696 69.1123 77.6699C65.2864 79.7163 61.3967 81.0381 57.4377 81.654L57.4308 81.655C53.4047 82.2956 49.8287 82.6094 46.6936 82.6094H46.6854H46.6772H46.669H46.6608H46.6527H46.6445H46.6363H46.6281H46.6199H46.6118H46.6036H46.5954H46.5872H46.5791H46.5709H46.5627H46.5546H46.5464H46.5383H46.5301H46.522H46.5138H46.5057H46.4975H46.4894H46.4812H46.4731H46.4649H46.4568H46.4487H46.4405H46.4324H46.4243H46.4162H46.408H46.3999H46.3918H46.3837H46.3756H46.3675H46.3593H46.3512H46.3431H46.335H46.3269H46.3188H46.3107H46.3026H46.2945H46.2864H46.2784H46.2703H46.2622H46.2541H46.246H46.2379H46.2299H46.2218H46.2137H46.2057H46.1976H46.1895H46.1815H46.1734H46.1653H46.1573H46.1492H46.1412H46.1331H46.1251H46.117H46.109H46.1009H46.0929H46.0849H46.0768H46.0688H46.0608H46.0527H46.0447H46.0367H46.0287H46.0206H46.0126H46.0046H45.9966H45.9886H45.9806H45.9726H45.9646H45.9565H45.9485H45.9405H45.9326H45.9246H45.9166H45.9086H45.9006H45.8926H45.8846H45.8766H45.8686H45.8607H45.8527H45.8447H45.8368H45.8288H45.8208H45.8128H45.8049H45.7969H45.789H45.781H45.7731H45.7651H45.7572H45.7492H45.7413H45.7333H45.7254H45.7174H45.7095H45.7016H45.6936H45.6857H45.6778H45.6698H45.6619H45.654H45.6461H45.6382H45.6302H45.6223H45.6144H45.6065H45.5986H45.5907H45.5828H45.5749H45.567H45.5591H45.5512H45.5433H45.5354H45.5275H45.5196H45.5118H45.5039H45.496H45.4881H45.4802H45.4724H45.4645H45.4566H45.4488H45.4409H45.433H45.4252H45.4173H45.4095H45.4016H45.3937H45.3859H45.3781H45.3702H45.3624H45.3545H45.3467H45.3388H45.331H45.3232H45.3153H45.3075H45.2997H45.2919H45.284H45.2762H45.2684H45.2606H45.2528H45.245H45.2372H45.2293H45.2215H45.2137H45.2059H45.1981H45.1903H45.1825H45.1748H45.167H45.1592H45.1514H45.1436H45.1358H45.128H45.1203H45.1125H45.1047H45.097H45.0892H45.0814H45.0737H45.0659H45.0581H45.0504H45.0426H45.0349H45.0271H45.0194H45.0116H45.0039H44.9961H44.9884H44.9806H44.9729H44.9652H44.9574H44.9497H44.942H44.9343H44.9265H44.9188H44.9111H44.9034H44.8957H44.8879H44.8802H44.8725H44.8648H44.8571H44.8494H44.8417H44.834H44.8263H44.8186H44.8109H44.8032H44.7956H44.7879H44.7802H44.7725H44.7648H44.7571H44.7495H44.7418H44.7341H44.7265H44.7188H44.7111H44.7035H44.6958H44.6881H44.6805H44.6728H44.6652H44.6575H44.6499H44.6422H44.6346H44.627H44.6193H44.6117H44.6041H44.5964H44.5888H44.5812H44.5735H44.5659H44.5583H44.5507H44.5431H44.5354H44.5278H44.5202H44.5126H44.505H44.4974H44.4898H44.4822H44.4746H44.467H44.4594H44.4518H44.4442H44.4366H44.4291H44.4215H44.4139H44.4063H44.3987H44.3912H44.3836H44.376H44.3684H44.3609H44.3533H44.3458H44.3382H44.3306H44.3231H44.3155H44.308H44.3004H44.2929H44.2853H44.2778H44.2703H44.2627H44.2552H44.2476H44.2401H44.2326H44.2251H44.2175H44.21H44.2025H44.195H44.1875H44.1799H44.1724H44.1649H44.1574H44.1499H44.1424H44.1349H44.1274H44.1199H44.1124H44.1049H44.0974H44.0899H44.0824H44.075H44.0675H44.06H44.0525H44.045H44.0376H44.0301H44.0226H44.0152H44.0077H44.0002H43.9928H43.9853H43.9778H43.9704H43.9629H43.9555H43.948H43.9406H43.9331H43.9257H43.9183H43.9108H43.9034H43.896H43.8885H43.8811H43.8737H43.8662H43.8588H43.8514H43.844H43.8366H43.8292H43.8217H43.8143H43.8069H43.7995H43.7921H43.7847H43.7773H43.7699H43.7625H43.7551H43.7477H43.7403H43.733H43.7256H43.7182H43.7108H43.7034H43.6961H43.6887H43.6813H43.6739H43.6666H43.6592H43.6518H43.6445H43.6371H43.6298H43.6224H43.6151H43.6077H43.6004H43.593H43.5857H43.5783H43.571H43.5637H43.5563H43.549H43.5417H43.5343H43.527H43.5197H43.5123H43.505H43.4977H43.4904H43.4831H43.4758H43.4685H43.4611H43.4538H43.4465H43.4392H43.4319H43.4246H43.4173H43.4101H43.4028H43.3955H43.3882H43.3809H43.3736H43.3663H43.3591H43.3518H43.3445H43.3372H43.33H43.3227H43.3154H43.3082H43.3009H43.2937H43.2864H43.2791H43.2719H43.2646H43.2574H43.2502H43.2429H43.2357H43.2284H43.2212H43.214H43.2067H43.1995H43.1923H43.185H43.1778H43.1706H43.1634H43.1562H43.1489H43.1417H43.1345H43.1273H43.1201H43.1129H43.1057H43.0985H43.0913H43.0841H43.0769H43.0697H43.0625H43.0553H43.0481H43.041H43.0338H43.0266H43.0194H43.0122H43.0051H42.9979H42.9907H42.9836H42.9764H42.9692H42.9621H42.9549H42.9478H42.9406H42.9334H42.9263H42.9192H42.912H42.9049H42.8977H42.8906H42.8834H42.8763H42.8692H42.862H42.8601C41.7939 82.5198 40.9182 82.4315 40.2269 82.3451Z" fill="#CE301C" stroke="#14121D" stroke-width="4"/>
</svg>
