<svg width="123" height="151" viewBox="0 0 123 151" fill="none" xmlns="http://www.w3.org/2000/svg">
<path d="M16.2752 32.3584L16.2394 32.3353C14.3295 31.0994 12.8734 29.41 11.8812 27.3155L11.8454 27.2399L11.8161 27.1616C11.5206 26.3736 11.2697 25.6228 11.0662 24.9104L12.9893 24.361L11.0662 24.9104C10.8239 24.0622 10.7095 23.1763 10.7095 22.2626C10.7095 20.0461 11.2685 17.9699 12.3845 16.0726L12.4061 16.0359L12.4293 16.0001C13.6651 14.0902 15.3545 12.6341 17.449 11.6419L17.4511 11.6409C24.2755 8.4183 30.9817 6.03699 37.568 4.50888C44.2333 2.89093 50.7304 2.07666 57.0552 2.07666C59.6368 2.07666 62.218 2.21952 64.7982 2.50504C73.3272 3.17974 81.0469 5.34294 87.9262 9.02301C94.7721 12.5922 100.621 17.2793 105.455 23.0806C110.28 28.8696 113.94 35.4721 116.44 42.8712C119.035 50.1811 120.328 57.9112 120.328 66.0488C120.328 68.5492 120.184 71.093 119.896 73.6797C119.896 73.6811 119.896 73.6825 119.896 73.6839L117.908 73.463C116.882 83.0689 115.297 91.5557 113.152 98.9233L16.2752 32.3584ZM16.2752 32.3584L16.3119 32.38C18.2092 33.496 20.2854 34.055 22.5019 34.055C23.4948 34.055 24.6003 33.8241 25.5652 33.5451M16.2752 32.3584L25.5652 33.5451M25.5652 33.5451C25.5499 33.8027 25.5324 34.0779 25.5128 34.3703C25.3457 36.8642 25.0338 40.4802 24.617 44.8572C23.7842 53.6046 22.539 65.328 21.2171 77.0489C19.8952 88.7698 18.498 100.476 17.3615 109.189C16.7929 113.549 16.2916 117.144 15.899 119.612C15.7796 120.363 15.6722 120.997 15.5778 121.51C14.4775 121.447 13.3078 121.482 12.1692 121.631C10.4105 121.862 8.50255 122.397 7.04418 123.475C4.47164 125.376 2.89611 127.982 2.34506 131.178C1.78908 134.403 2.46617 137.383 4.38632 139.981C6.28776 142.554 8.89381 144.129 12.0899 144.68L12.1045 144.683L12.1192 144.685C18.673 145.715 25.0429 146.558 31.2288 147.215C37.4517 147.968 43.4496 148.347 49.2212 148.347C55.2018 148.347 60.8689 147.872 66.2189 146.917C66.2193 146.917 66.2196 146.917 66.22 146.917L65.8684 144.948M25.5652 33.5451L94.4063 131.518C90.3961 135.155 85.9195 138.093 80.9767 140.331C76.2204 142.476 71.1843 144.015 65.8684 144.948M65.8684 144.948C60.6458 145.88 55.0967 146.347 49.2212 146.347C43.5323 146.347 37.6102 145.974 31.455 145.228L65.8684 144.948ZM17.1623 123.543L17.0461 123.684V121.786C17.0506 121.785 17.0549 121.785 17.0592 121.784C17.1526 121.772 17.228 121.769 17.2711 121.768C17.3143 121.767 17.3505 121.767 17.3765 121.768C17.3787 121.768 17.3808 121.768 17.3829 121.768C17.4342 121.77 17.4737 121.774 17.4935 121.775C17.5041 121.777 17.5139 121.778 17.5225 121.779C17.5403 121.781 17.5536 121.782 17.561 121.784C17.3977 122.681 17.2631 123.282 17.1623 123.543ZM49.525 28.5423C49.6285 27.7661 49.5637 26.8847 49.4689 26.161C50.5879 25.9981 51.8182 25.839 52.5497 25.7983L52.6048 25.7953L52.6596 25.7892C54.2654 25.6108 55.8704 25.5216 57.4749 25.5216C58.3412 25.5216 59.1531 25.565 59.9119 25.6493L60.022 25.6615H60.1328C60.8979 25.6615 61.6635 25.704 62.43 25.7892L62.4587 25.7924L62.4875 25.7947C67.9335 26.2411 72.7419 27.6191 76.9465 29.8966L76.9608 29.9044L76.9752 29.9119C81.2245 32.1251 84.788 34.9892 87.6876 38.5038L87.6955 38.5134L87.7035 38.5229C90.6027 41.9493 92.813 45.961 94.3239 50.5827L94.3293 50.5991L94.3349 50.6154C95.9369 55.2434 96.7429 60.1507 96.7429 65.3493V65.3553V65.3613V65.3673V65.3733V65.3793V65.3853V65.3914V65.3974V65.4034V65.4094V65.4154V65.4214V65.4274V65.4334V65.4394V65.4455V65.4515V65.4575V65.4635V65.4695V65.4755V65.4815V65.4875V65.4935V65.4996V65.5056V65.5116V65.5176V65.5236V65.5296V65.5356V65.5416V65.5476V65.5537V65.5597V65.5657V65.5717V65.5777V65.5837V65.5897V65.5957V65.6017V65.6078V65.6138V65.6198V65.6258V65.6318V65.6378V65.6438V65.6498V65.6558V65.6619V65.6679V65.6739V65.6799V65.6859V65.6919V65.6979V65.7039V65.7099V65.716V65.722V65.728V65.734V65.74V65.746V65.752V65.758V65.764V65.7701V65.7761V65.7821V65.7881V65.7941V65.8001V65.8061V65.8121V65.8181V65.8242V65.8302V65.8362V65.8422V65.8482V65.8542V65.8602V65.8662V65.8722V65.8782V65.8843V65.8903V65.8963V65.9023V65.9083V65.9143V65.9203V65.9263V65.9323V65.9384V65.9444V65.9504V65.9564V65.9624V65.9684V65.9744V65.9804V65.9864V65.9925V65.9985V66.0045V66.0105V66.0165V66.0225V66.0285V66.0345V66.0405V66.0466V66.0526V66.0586V66.0646V66.0706V66.0766V66.0826V66.0886V66.0946V66.1007V66.1067V66.1127V66.1187V66.1247V66.1307V66.1367V66.1427V66.1487V66.1548V66.1608V66.1668V66.1728V66.1788V66.1848V66.1908V66.1968V66.2028V66.2089V66.2149V66.2209V66.2269V66.2329V66.2389V66.2449V66.2509V66.2569V66.263V66.269V66.275V66.281V66.287V66.293V66.299V66.305V66.311V66.317V66.3231V66.3291V66.3351V66.3411V66.3471V66.3531V66.3591V66.3651V66.3711V66.3772V66.3832V66.3892V66.3952V66.4012V66.4072V66.4132V66.4192V66.4252V66.4313V66.4373V66.4433V66.4493V66.4553V66.4613V66.4673V66.4733V66.4793V66.4854V66.4914V66.4974V66.5034V66.5094V66.5154V66.5214V66.5274V66.5334V66.5395V66.5455V66.5515V66.5575V66.5635V66.5695V66.5755V66.5815V66.5875V66.5936V66.5996V66.6056V66.6116V66.6176V66.6236V66.6296V66.6356V66.6416V66.6477V66.6537V66.6597V66.6657V66.6717V66.6777V66.6837V66.6897V66.6957V66.7017V66.7078V66.7138V66.7198V66.7258V66.7318V66.7378V66.7438V66.7498V66.7558V66.7619V66.7679V66.7739V66.7799V66.7859V66.7919V66.7979V66.8039V66.8099V66.816V66.822V66.828V66.834V66.84V66.846V66.852V66.858V66.864V66.8701V66.8761V66.8821V66.8881V66.8941V66.9001V66.9061V66.9121V66.9181V66.9242V66.9302V66.9362V66.9422V66.9482V66.9542V66.9602V66.9662V66.9722V66.9783V66.9843V66.9903V66.9963V67.0023V67.0083V67.0143V67.0203V67.0263V67.0324V67.0384V67.0444V67.0504V67.0564V67.0624V67.0684V67.0744V67.0804V67.0865V67.0925V67.0985V67.1045V67.1105V67.1165V67.1225V67.1285V67.1345V67.1405V67.1466V67.1526V67.1586V67.1646V67.1706V67.1766V67.1826V67.1886V67.1946V67.2007V67.2067V67.2127V67.2187V67.2247V67.2307V67.2367V67.2427V67.2487V67.2548V67.2608V67.2668V67.2728V67.2788V67.2848V67.2908V67.2968V67.3028V67.3089V67.3149V67.3209V67.3269V67.3329V67.3389V67.3449V67.3509V67.3569V67.363V67.369V67.375V67.381V67.387V67.393V67.399V67.405V67.411V67.4171V67.4231V67.4291V67.4351V67.4411V67.4471V67.4531V67.4591V67.4651V67.4712V67.4772V67.4832V67.4892V67.4952V67.5012V67.5072V67.5132V67.5192V67.5252V67.5313V67.5373V67.5433V67.5493V67.5553V67.5613V67.5673V67.5733V67.5793V67.5854V67.5914V67.5974V67.6034V67.6094V67.6154V67.6214V67.6274V67.6334V67.6395V67.6455V67.6515V67.6575V67.6635V67.6695V67.6755V67.6815V67.6875V67.6936V67.6996V67.7056V67.7116V67.7176V67.7236V67.7296V67.7356V67.7416V67.7477V67.7537V67.7597V67.7657V67.7717V67.7777V67.7837V67.7897V67.7957V67.8018V67.8078V67.8138V67.8198V67.8258V67.8318V67.8378V67.8438V67.8498V67.8559V67.8619V67.8679V67.8739V67.8799V67.8859V67.8919V67.8979V67.9039V67.91V67.916V67.922V67.928V67.934V67.94V67.946V67.952V67.958V67.9641V67.9701V67.9761V67.9821V67.9881V67.9941V68.0001V68.0061V68.0121V68.0182V68.0242V68.0302V68.0362V68.0422V68.0482V68.0542V68.0602V68.0662V68.0722V68.0783V68.0843V68.0903V68.0963V68.1023V68.1083V68.1143V68.1203V68.1263V68.1324V68.1384V68.1444V68.1504V68.1564V68.1624V68.1684V68.1744V68.1804V68.1865V68.1925V68.1985V68.2045V68.2105V68.2165V68.2225V68.2285V68.2345V68.2406V68.2466V68.2526V68.2586V68.2646V68.2706V68.2766V68.2826V68.2886V68.2947V68.3007V68.3067V68.3127V68.3187V68.3247V68.3307V68.3367V68.3427V68.3488V68.3548V68.3608V68.3668V68.3728V68.3788V68.3848V68.3908V68.3968V68.4029V68.4089V68.4149V68.4209V68.4269C96.7429 69.2264 96.6629 70.0854 96.4954 71.0069L96.483 71.075L96.4754 71.1438C95.6439 78.6276 94.4929 85.1496 93.0313 90.7219C91.5698 96.294 89.7556 101.085 87.6055 105.117L87.6016 105.124L87.5977 105.131C85.5337 109.08 83.1836 112.301 80.5659 114.832C78.0165 117.293 75.1661 119.266 72.009 120.757C68.8409 122.253 65.3447 123.319 61.5092 123.945C57.7043 124.488 53.563 124.762 49.0814 124.762C47.0605 124.762 44.9917 124.716 42.8749 124.624C41.3613 124.555 39.8209 124.46 38.2536 124.34C38.2597 123.761 38.2878 123.017 38.3392 122.112C38.4875 119.503 38.8167 115.755 39.2765 111.221C40.1952 102.164 41.6239 90.0788 43.1273 77.9406C45.9767 54.936 49.0878 31.7945 49.4846 28.8428C49.5065 28.6803 49.5201 28.5789 49.525 28.5423Z" fill="#CE301C" stroke="#14121D" stroke-width="4"/>
</svg>
