<svg width="1280" height="720" viewBox="0 0 1280 720" fill="none" xmlns="http://www.w3.org/2000/svg">
<rect width="1280" height="720" fill="white"/>
<path d="M667.398 272.33L667.419 272.327L667.44 272.325C668.897 272.143 670.304 272.007 671.662 271.916L671.72 271.912L671.777 271.905L673.722 271.662L661.71 379.769C661.272 382.996 662.068 385.927 664.105 388.416L664.111 388.424C666.202 390.954 668.904 392.431 672.129 392.773C675.353 393.209 678.281 392.412 680.769 390.376C683.224 388.368 684.681 385.715 685.121 382.527L685.125 382.501L685.128 382.475L689.234 345.651C689.5 345.67 689.774 345.725 690.062 345.821L690.282 345.894L690.513 345.915C691.568 346.011 692.897 346.106 694.494 346.2C696.124 346.296 697.889 346.343 699.787 346.343C702.944 346.343 706.415 346.152 710.198 345.773C714.057 345.388 717.998 344.617 722.02 343.468L722.034 343.464L722.049 343.46C726.191 342.207 730.23 340.523 734.167 338.411L734.174 338.407L734.182 338.403C738.286 336.155 742.081 333.232 745.566 329.65L745.575 329.641L745.585 329.631C749.095 325.926 752.139 321.469 754.732 316.286C757.446 310.953 759.455 304.704 760.787 297.566L760.788 297.562C761.462 293.904 761.801 290.285 761.801 286.708C761.801 281.565 761.024 276.928 759.425 272.831C757.844 268.779 755.612 265.203 752.728 262.119C749.851 259.044 746.393 256.529 742.378 254.566C738.502 252.534 734.168 250.902 729.389 249.659C724.987 248.511 720.312 247.701 715.367 247.226C710.448 246.753 705.301 246.517 699.927 246.517C694.188 246.517 688.359 246.752 682.438 247.222C676.533 247.597 670.628 248.159 664.724 248.908C661.496 249.248 658.824 250.728 656.817 253.283C654.802 255.755 653.959 258.661 654.291 261.873L654.295 261.907L654.299 261.94C654.739 265.128 656.196 267.781 658.651 269.79L658.668 269.803L658.685 269.817C661.237 271.814 664.177 272.663 667.398 272.33ZM692.341 322.354L692.273 322.345L692.204 322.342L691.797 322.319L697.297 272.952C697.297 272.95 697.297 272.948 697.298 272.946C697.41 271.984 697.396 271.035 697.257 270.102H699.647C704.068 270.102 708.298 270.286 712.336 270.653L712.359 270.655L712.381 270.657C716.371 270.929 720.067 271.517 723.473 272.413C728.061 273.649 731.654 275.602 734.348 278.212L734.359 278.223L734.371 278.234C736.862 280.57 738.216 283.906 738.216 288.526C738.216 289.291 738.173 290.057 738.088 290.823C738.002 291.599 737.872 292.427 737.695 293.31L737.69 293.333L737.686 293.356C736.513 300.035 734.374 305.195 731.376 308.964L731.373 308.969C728.351 312.79 724.966 315.678 721.226 317.679C717.401 319.725 713.511 321.047 709.552 321.663L709.545 321.664C705.519 322.304 701.943 322.618 698.808 322.618H698.8H698.791H698.783H698.775H698.767H698.759H698.75H698.742H698.734H698.726H698.718H698.71H698.701H698.693H698.685H698.677H698.669H698.661H698.652H698.644H698.636H698.628H698.62H698.612H698.604H698.595H698.587H698.579H698.571H698.563H698.555H698.547H698.538H698.53H698.522H698.514H698.506H698.498H698.49H698.482H698.473H698.465H698.457H698.449H698.441H698.433H698.425H698.417H698.409H698.401H698.392H698.384H698.376H698.368H698.36H698.352H698.344H698.336H698.328H698.32H698.312H698.304H698.296H698.288H698.279H698.271H698.263H698.255H698.247H698.239H698.231H698.223H698.215H698.207H698.199H698.191H698.183H698.175H698.167H698.159H698.151H698.143H698.135H698.127H698.119H698.111H698.103H698.095H698.087H698.079H698.071H698.063H698.055H698.047H698.039H698.031H698.023H698.015H698.007H697.999H697.991H697.983H697.975H697.967H697.959H697.951H697.943H697.935H697.927H697.919H697.911H697.903H697.895H697.887H697.879H697.871H697.863H697.855H697.847H697.84H697.832H697.824H697.816H697.808H697.8H697.792H697.784H697.776H697.768H697.76H697.752H697.744H697.736H697.729H697.721H697.713H697.705H697.697H697.689H697.681H697.673H697.665H697.657H697.65H697.642H697.634H697.626H697.618H697.61H697.602H697.594H697.587H697.579H697.571H697.563H697.555H697.547H697.539H697.531H697.524H697.516H697.508H697.5H697.492H697.484H697.477H697.469H697.461H697.453H697.445H697.437H697.429H697.422H697.414H697.406H697.398H697.39H697.383H697.375H697.367H697.359H697.351H697.343H697.336H697.328H697.32H697.312H697.304H697.297H697.289H697.281H697.273H697.266H697.258H697.25H697.242H697.234H697.227H697.219H697.211H697.203H697.196H697.188H697.18H697.172H697.165H697.157H697.149H697.141H697.133H697.126H697.118H697.11H697.103H697.095H697.087H697.079H697.072H697.064H697.056H697.048H697.041H697.033H697.025H697.018H697.01H697.002H696.994H696.987H696.979H696.971H696.964H696.956H696.948H696.94H696.933H696.925H696.917H696.91H696.902H696.894H696.887H696.879H696.871H696.864H696.856H696.848H696.841H696.833H696.825H696.818H696.81H696.802H696.795H696.787H696.779H696.772H696.764H696.756H696.749H696.741H696.733H696.726H696.718H696.711H696.703H696.695H696.688H696.68H696.672H696.665H696.657H696.65H696.642H696.634H696.627H696.619H696.612H696.604H696.596H696.589H696.581H696.574H696.566H696.558H696.551H696.543H696.536H696.528H696.52H696.513H696.505H696.498H696.49H696.483H696.475H696.467H696.46H696.452H696.445H696.437H696.43H696.422H696.415H696.407H696.399H696.392H696.384H696.377H696.369H696.362H696.354H696.347H696.339H696.332H696.324H696.317H696.309H696.302H696.294H696.287H696.279H696.272H696.264H696.257H696.249H696.242H696.234H696.227H696.219H696.212H696.204H696.197H696.189H696.182H696.174H696.167H696.159H696.152H696.144H696.137H696.129H696.122H696.114H696.107H696.099H696.092H696.085H696.077H696.07H696.062H696.055H696.047H696.04H696.032H696.025H696.018H696.01H696.003H695.995H695.988H695.98H695.973H695.966H695.958H695.951H695.943H695.936H695.928H695.921H695.914H695.906H695.899H695.891H695.884H695.877H695.869H695.862H695.854H695.847H695.84H695.832H695.825H695.818H695.81H695.803H695.795H695.788H695.781H695.773H695.766H695.759H695.751H695.744H695.737H695.729H695.722H695.715H695.707H695.7H695.692H695.685H695.678H695.67H695.663H695.656H695.648H695.641H695.634H695.626H695.619H695.612H695.605H695.597H695.59H695.583H695.575H695.568H695.561H695.553H695.546H695.539H695.531H695.524H695.517H695.51H695.502H695.495H695.488H695.48H695.473H695.466H695.459H695.451H695.444H695.437H695.43H695.422H695.415H695.408H695.401H695.393H695.386H695.379H695.372H695.364H695.357H695.35H695.343H695.335H695.328H695.321H695.314H695.306H695.299H695.292H695.285H695.278H695.27H695.263H695.256H695.249H695.241H695.234H695.227H695.22H695.213H695.205H695.198H695.191H695.184H695.177H695.169H695.162H695.155H695.148H695.141H695.134H695.126H695.119H695.112H695.105H695.098H695.091H695.083H695.076H695.069H695.062H695.055H695.048H695.04H695.033H695.026H695.019H695.012H695.005H694.998H694.99H694.983H694.976H694.974C693.908 322.529 693.032 322.44 692.341 322.354Z" fill="#CE301C" stroke="#14121D" stroke-width="4"/>
<path d="M577.052 393.418L577.065 393.381L577.077 393.345L577.077 393.344L577.077 393.344L577.078 393.34L577.083 393.326L577.101 393.268L577.173 393.039L577.461 392.121L578.605 388.482C579.722 385.318 581.209 381.135 583.067 375.931C584.933 370.708 587.078 364.692 589.503 357.884L589.506 357.875C591.768 351.436 594.112 344.834 596.537 338.069L621.818 340.165C621.726 345.055 621.598 349.687 621.433 354.059L621.432 354.078L621.432 354.097C621.339 359.025 621.199 363.388 621.014 367.187L621.013 367.211L621.012 367.235C620.919 370.96 620.826 373.932 620.734 376.155L620.732 376.196V376.238V376.251V376.264V376.277V376.29V376.303V376.316V376.329V376.342V376.355V376.368V376.381V376.393V376.406V376.419V376.432V376.444V376.457V376.47V376.482V376.495V376.508V376.52V376.533V376.545V376.558V376.57V376.583V376.595V376.607V376.62V376.632V376.644V376.657V376.669V376.681V376.693V376.706V376.718V376.73V376.742V376.754V376.766V376.778V376.79V376.802V376.814V376.826V376.838V376.85V376.862V376.873V376.885V376.897V376.909V376.92V376.932V376.944V376.955V376.967V376.979V376.99V377.002V377.013V377.025V377.036V377.048V377.059V377.07V377.082V377.093V377.104V377.116V377.127V377.138V377.149V377.161V377.172V377.183V377.194V377.205V377.216V377.227V377.238V377.249V377.26V377.271V377.282V377.293V377.304V377.314V377.325V377.336V377.347V377.357V377.368V377.379V377.389V377.4V377.411V377.421V377.432V377.442V377.453V377.463V377.474V377.484V377.494V377.505V377.515V377.525V377.536V377.546V377.556V377.566V377.577V377.587V377.597V377.607V377.617V377.627V377.637V377.647V377.657V377.667V377.677V377.687V377.697V377.707V377.716V377.726V377.736V377.746V377.756V377.765V377.775V377.785V377.794V377.804V377.813V377.823V377.832V377.842V377.851V377.861V377.87V377.88V377.889V377.898V377.908V377.917V377.926V377.935V377.945V377.954V377.963V377.972V377.981V377.99V377.999V378.008V378.017V378.026V378.035V378.044V378.053V378.062V378.071V378.08V378.088V378.097V378.106V378.115V378.123V378.132V378.141V378.149V378.158V378.166V378.175V378.184V378.192V378.2V378.209V378.217V378.226V378.234V378.242V378.251V378.259V378.267V378.276V378.284V378.292V378.3V378.308V378.316V378.324V378.332V378.34V378.348V378.356V378.364V378.372V378.38V378.388V378.396V378.404V378.412V378.419V378.427V378.435V378.443V378.45V378.458V378.465V378.473V378.481V378.488V378.496V378.503V378.511V378.518V378.526V378.533V378.54V378.548V378.555V378.562V378.569V378.577V378.584V378.591V378.598V378.605V378.613V378.62V378.627V378.634V378.641V378.648V378.655V378.662V378.668V378.675V378.682V378.689V378.696V378.703V378.709V378.716V378.723V378.729V378.736V378.743V378.749V378.756V378.762V378.769V378.775V378.782V378.788V378.795V378.801V378.807V378.814V378.82V378.826V378.833V378.839V378.845V378.851V378.857V378.864V378.87V378.876V378.882V378.888V378.894V378.9V378.906V378.912V378.918V378.924V378.929V378.935V378.941V378.947V378.953V378.958V378.964V378.97V378.975V378.981V378.987V378.992V378.998V379.003V379.009V379.014V379.02V379.025V379.03V379.036V379.041V379.046V379.052V379.057V379.062V379.067V379.073V379.078V379.083V379.088V379.093V379.098V379.103V379.108V379.113V379.118V379.123V379.128V379.133V379.138V379.143V379.147V379.152V379.157V379.162V379.166V379.171V379.176V379.18V379.185V379.189V379.194V379.198V379.203V379.207V379.212V379.216V379.221V379.225V379.229V379.234V379.238V379.242V379.247V379.251V379.255V379.259V379.263V379.267V379.271V379.275V379.28V379.284V379.288V379.291V379.295V379.299V379.303V379.307V379.311V379.315V379.318V379.322V379.326V379.33V379.333V379.337V379.341V379.344V379.348V379.351V379.355V379.358V379.362V379.365V379.369V379.372V379.375V379.379V379.382V379.385V379.389V379.392V379.395V379.398V379.401V379.405V379.408V379.411V379.414V379.417V379.42V379.423V379.426V379.429V379.432V379.435V379.437V379.44V379.443V379.446V379.449V379.451V379.454V379.457V379.459V379.462V379.465V379.467V379.47V379.472V379.475V379.477V379.48V379.482V379.484V379.487V379.489V379.491V379.494V379.496V379.498V379.5V379.503V379.505V379.507V379.509V379.511V379.513V379.515V379.517V379.519V379.521V379.523V379.525V379.527V379.529V379.531V379.532V379.534V379.536V379.538V379.539V379.541V379.543V379.544V379.546V379.548V379.549V379.551V379.552V379.554V379.555V379.556V379.558V379.559V379.561V379.562V379.562C620.629 382.789 621.714 385.63 623.942 387.969L623.958 387.987L623.976 388.004C626.268 390.297 629.024 391.554 632.173 391.666L632.176 391.666C635.417 391.778 638.27 390.694 640.618 388.458C642.956 386.231 644.204 383.451 644.316 380.224L644.317 380.189V380.155C644.317 380.158 644.319 380.033 644.325 379.723C644.331 379.432 644.34 379.007 644.351 378.448C644.375 377.329 644.41 375.674 644.456 373.483C644.55 369.079 644.597 363.375 644.597 356.373V356.357V356.341V356.326V356.31V356.294V356.278V356.262V356.246V356.23V356.215V356.199V356.183V356.167V356.151V356.135V356.119V356.103V356.088V356.072V356.056V356.04V356.024V356.008V355.992V355.976V355.96V355.945V355.929V355.913V355.897V355.881V355.865V355.849V355.833V355.817V355.801V355.785V355.769V355.754V355.738V355.722V355.706V355.69V355.674V355.658V355.642V355.626V355.61V355.594V355.578V355.562V355.546V355.53V355.514V355.498V355.482V355.466V355.45V355.434V355.418V355.403V355.387V355.371V355.355V355.339V355.323V355.307V355.291V355.275V355.259V355.243V355.227V355.211V355.195V355.179V355.163V355.147V355.131V355.115V355.099V355.083V355.067V355.051V355.034V355.018V355.002V354.986V354.97V354.954V354.938V354.922V354.906V354.89V354.874V354.858V354.842V354.826V354.81V354.794V354.778V354.762V354.746V354.73V354.714V354.697V354.681V354.665V354.649V354.633V354.617V354.601V354.585V354.569V354.553V354.537V354.521V354.504V354.488V354.472V354.456V354.44V354.424V354.408V354.392V354.376V354.359V354.343V354.327V354.311V354.295V354.279V354.263V354.247V354.23V354.214V354.198V354.182V354.166V354.15V354.134V354.118V354.101V354.085V354.069V354.053V354.037V354.021V354.004V353.988V353.972V353.956V353.94V353.924V353.907V353.891V353.875V353.859V353.843V353.826V353.81V353.794V353.778V353.762V353.746V353.729V353.713V353.697V353.681V353.665V353.648V353.632V353.616V353.6V353.583V353.567V353.551V353.535V353.519V353.502V353.486V353.47V353.454V353.437V353.421V353.405V353.389V353.372V353.356V353.34V353.324V353.307V353.291V353.275V353.259V353.242V353.226V353.21V353.194V353.177V353.161V353.145V353.129V353.112V353.096V353.08V353.063V353.047V353.031V353.015V352.998V352.982V352.966V352.949V352.933V352.917V352.9V352.884V352.868V352.851V352.835V352.819V352.803V352.786V352.77V352.754V352.737V352.721V352.705V352.688V352.672V352.656V352.639V352.623V352.607V352.59V352.574V352.557V352.541V352.525V352.508V352.492V352.476V352.459V352.443V352.427V352.41V352.394V352.377V352.361V352.345V352.328V352.312V352.296V352.279V352.263V352.246V352.23V352.214V352.197V352.181V352.164V352.148V352.132V352.115V352.099V352.082V352.066V352.049V352.033V352.017V352V351.984V351.967V351.951V351.935V351.918V351.902V351.885V351.869V351.852V351.836V351.819V351.803V351.787V351.77V351.754V351.737V351.721V351.704V351.688V351.671V351.655V351.638V351.622V351.605V351.589V351.572V351.556V351.539V351.523V351.506V351.49V351.474V351.457V351.441V351.424V351.408V351.391V351.375V351.358V351.341V351.325V351.308V351.292V351.275V351.259V351.242V351.226V351.209V351.193V351.176V351.16V351.143V351.127V351.11V351.094V351.077V351.06V351.044V351.027V351.011V350.994V350.978V350.961V350.945V350.928V350.911V350.895V350.878V350.862V350.845V350.829V350.812V350.795V350.779V350.762V350.746V350.729V350.713V350.696V350.679V350.663V350.646V350.63V350.613V350.596V350.58V350.563V350.547V350.53V350.513V350.497V350.48V350.463V350.447V350.43V350.414V350.397V350.38V350.364V350.347V350.33V350.314V350.297V350.28V350.264V350.247V350.23V350.214V350.197V350.18V350.164V350.147V350.131V350.114V350.097V350.08V350.064V350.047V350.03V350.014V349.997V349.98V349.964V349.947V349.93V349.914V349.897V349.88V349.864V349.847V349.83V349.813V349.797V349.78V349.763V349.747V349.73V349.713V349.696V349.68V349.663V349.646V349.63V349.613V349.596V349.579V349.563V349.546V349.529V349.512V349.496V349.479V349.462V349.445V349.429V349.412V349.395V349.378V349.362V349.345V349.328V349.311V349.294V349.278V349.261V349.244V349.227V349.211V349.194V349.177V349.16V349.143V349.127V349.11V349.093V349.076V349.059V349.043V349.026V349.009V348.992V348.975V348.959V348.942V348.925V348.908V348.891V348.874V348.858V348.841V348.824V348.807V348.79V348.773V348.757V348.74V348.723V348.706V348.689V348.672V348.656V348.639V348.622V348.605V348.588V348.571V348.554V348.538V348.521V348.504V348.487V348.47V348.453V348.436V348.419V348.403V348.386V348.369V348.352V348.335V348.318V348.301V348.284V348.267V348.25V348.234V348.217V348.2V348.183V348.166V348.149V348.132V348.115V348.098V348.081V348.064V348.047V348.03V348.014V347.997V347.98C644.597 345.5 644.562 342.953 644.494 340.34C646.088 339.56 647.437 338.46 648.51 337.04C649.976 335.224 650.805 333.079 651.023 330.674L651.025 330.66L651.026 330.647C651.246 327.779 650.526 325.164 648.846 322.903C647.565 320.999 645.889 319.594 643.85 318.72C643.657 313.363 643.344 308.007 642.913 302.651C642.537 296.746 642.021 291.117 641.364 285.764C640.707 280.412 639.908 275.424 638.965 270.802C638.113 266.071 637.063 261.954 635.804 258.469C634.549 254.994 633.062 252.124 631.299 249.939C629.539 247.639 627.282 246.237 624.55 246.237C620.997 246.237 617.542 248.778 614.216 252.674C610.844 256.624 607.324 261.82 603.65 268.226L603.646 268.234C600.07 274.538 596.408 281.722 592.66 289.781C589.116 297.4 585.657 305.228 582.282 313.264L578.982 312.973L578.965 312.971L578.948 312.97C575.79 312.745 572.912 313.725 570.398 315.801L570.381 315.815L570.364 315.83C567.911 317.949 566.544 320.679 566.319 323.913C566.099 326.797 566.832 329.453 568.505 331.796L568.537 331.84L568.571 331.882C569.855 333.487 571.416 334.694 573.229 335.489C570.727 341.787 568.417 347.819 566.297 353.585C563.966 359.925 561.915 365.471 560.145 370.224L560.139 370.24L560.133 370.256C558.454 375.012 557.102 378.835 556.077 381.724L556.071 381.742L556.065 381.761L555.015 384.908L554.753 385.695L554.688 385.892L554.671 385.941L554.667 385.953L554.666 385.956L554.666 385.957L554.666 385.957L556.316 386.507L554.666 385.957C553.664 388.961 553.836 391.959 555.167 394.842L555.18 394.871L555.194 394.898C556.648 397.807 558.984 399.798 562.095 400.801C565.116 401.805 568.123 401.574 570.999 400.144C573.917 398.788 575.95 396.503 577.052 393.418ZM616.179 286.23L616.182 286.222L616.186 286.214C617.753 282.434 619.069 279.582 620.135 277.623C620.197 277.517 620.259 277.415 620.319 277.317C620.627 279.039 620.909 281.42 621.158 284.491L621.16 284.52L621.164 284.55C621.532 287.862 621.856 291.882 622.134 296.617L622.134 296.619C622.411 301.235 622.55 306.37 622.55 312.027C622.55 312.993 622.507 314.01 622.417 315.079L622.411 315.162V315.245V315.252V315.258V315.265V315.271V315.278V315.284V315.291V315.297V315.304V315.311V315.317V315.324V315.33V315.337V315.343V315.35V315.356V315.363V315.37V315.376V315.383V315.389V315.396V315.402V315.409V315.415V315.422V315.429V315.435V315.442V315.448V315.455V315.461V315.468V315.474V315.481V315.488V315.494V315.501V315.507V315.514V315.52V315.527V315.534V315.54V315.547V315.553V315.56V315.566V315.573V315.579V315.586V315.593V315.599V315.606V315.612V315.619V315.625V315.632V315.638V315.645V315.652V315.658V315.665V315.671V315.678V315.684V315.691V315.697V315.704V315.711V315.717V315.724V315.73V315.737V315.743V315.75V315.756V315.763V315.77V315.776V315.783V315.789V315.796V315.802V315.809V315.815V315.822V315.829V315.835V315.842V315.848V315.855V315.861V315.868V315.874V315.881V315.888V315.894V315.901V315.907V315.914V315.92V315.927V315.934V315.94V315.947V315.953V315.96V315.966V315.973V315.979V315.986V315.993V315.999V316.006V316.012V316.019V316.025V316.032V316.038V316.045V316.052V316.058V316.065V316.071V316.078V316.084V316.091V316.097V316.104V316.111V316.117V316.124V316.13V316.137V316.143V316.15V316.156V316.163V316.17V316.176V316.183V316.189V316.196V316.202V316.209V316.215V316.222V316.229V316.235V316.242V316.248V316.255V316.261V316.268V316.274V316.281V316.288V316.294V316.301V316.307V316.314V316.32V316.327V316.334V316.34V316.347V316.353V316.36V316.366V316.373V316.379V316.386V316.393V316.399V316.406V316.412V316.419V316.425V316.431L605.101 315.007C607.162 309.452 609.046 304.358 610.754 299.723C612.798 294.427 614.606 289.931 616.179 286.23Z" fill="#CE301C" stroke="#14121D" stroke-width="4"/>
<path d="M541.557 301.227L541.6 301.205L541.643 301.181C543.461 300.159 544.917 298.69 546.014 296.831C550.439 289.612 552.655 282.614 552.454 275.876L552.454 275.865L552.453 275.853C552.253 271.053 550.948 266.622 548.533 262.597C546.116 258.568 542.792 255.349 538.599 252.949C534.846 250.681 530.496 249.029 525.579 247.966C520.728 246.804 515.301 246.33 509.316 246.517C504.868 246.425 500.382 246.911 495.861 247.969C491.357 249.023 487.083 250.463 483.042 252.291L483.035 252.294L483.028 252.297C478.016 254.61 473.3 257.595 468.883 261.244L468.875 261.251L468.867 261.258C464.532 264.919 460.596 269.242 457.056 274.217L457.052 274.223C453.591 279.126 450.627 284.727 448.152 291.011L448.149 291.018L448.146 291.026C445.754 297.244 443.996 304.149 442.859 311.731L442.856 311.749L442.854 311.767C442.384 315.338 442.007 318.771 441.725 322.067C441.44 325.292 441.298 328.427 441.298 331.473C441.298 338.773 441.961 345.45 443.304 351.492L443.308 351.51L443.312 351.528C444.744 357.447 446.709 362.825 449.217 367.649L449.222 367.658C452.999 374.824 458.014 380.537 464.276 384.747C470.507 389.029 477.556 391.745 485.392 392.906L485.406 392.908L485.421 392.91C486.844 393.099 488.267 393.242 489.691 393.339C491.246 393.53 492.802 393.627 494.358 393.627C501.567 393.627 509.122 392.473 517.017 390.19C524.908 387.909 533.055 384.542 541.456 380.105L541.475 380.095L541.494 380.085C543.449 378.999 544.991 377.542 546.033 375.697C547.133 373.821 547.699 371.8 547.699 369.664C547.699 367.751 547.246 365.908 546.368 364.153L546.338 364.092L546.303 364.033C545.2 362.158 543.693 360.692 541.801 359.676C540.005 358.569 538.026 358.011 535.906 358.011C533.919 358.011 532.054 358.456 530.348 359.365L530.347 359.366C523.64 362.95 517.239 365.644 511.142 367.465C505.135 369.193 499.591 370.042 494.498 370.042C492.538 370.042 490.679 369.908 488.921 369.644C480.291 368.336 474.031 363.993 469.955 356.536C468.286 353.461 466.993 349.912 466.095 345.872C465.199 341.751 464.743 337.049 464.743 331.753C464.743 329.199 464.834 326.55 465.016 323.805C465.292 321.054 465.659 318.161 466.119 315.126L466.12 315.12C467.766 304.054 471.038 295.19 475.844 288.426C480.707 281.581 486.416 276.701 492.955 273.697L492.962 273.693L492.969 273.69C495.83 272.349 498.567 271.426 501.185 270.903C503.837 270.372 506.735 270.102 509.886 270.102H509.91L509.934 270.102C517.628 269.918 522.977 271.04 526.302 273.149L526.323 273.162L526.344 273.174C528.258 274.323 528.87 275.525 528.87 276.775C528.87 277.746 528.627 278.87 528.058 280.171C527.441 281.581 526.686 283.049 525.789 284.575C524.683 286.455 524.114 288.482 524.114 290.625C524.114 292.611 524.557 294.533 525.423 296.373L525.454 296.438L525.49 296.501C526.511 298.317 527.977 299.772 529.833 300.868C531.657 302.002 533.699 302.557 535.906 302.557C537.893 302.557 539.785 302.113 541.557 301.227Z" fill="#CE301C" stroke="#14121D" stroke-width="4"/>
<path d="M263.297 366.35L273.177 278.745C272.311 278.952 271.418 279.055 270.502 279.055C268.285 279.055 266.209 278.496 264.312 277.38L264.275 277.358L264.239 277.335C262.33 276.099 260.873 274.41 259.881 272.315L259.845 272.24L259.816 272.161C259.521 271.373 259.27 270.623 259.066 269.91L260.989 269.361L259.066 269.91C258.824 269.062 258.709 268.176 258.709 267.262C258.709 265.046 259.268 262.97 260.385 261.072L260.406 261.036L260.429 261C261.665 259.09 263.355 257.634 265.449 256.642L265.451 256.641C272.276 253.418 278.982 251.037 285.568 249.509C292.233 247.891 298.73 247.076 305.055 247.076C307.637 247.076 310.218 247.219 312.798 247.505C321.327 248.179 329.047 250.343 335.926 254.023C342.772 257.592 348.621 262.279 353.455 268.08C358.28 273.869 361.94 280.472 364.441 287.871C367.036 295.181 368.328 302.911 368.328 311.049C368.328 313.549 368.184 316.093 367.896 318.679C367.896 318.681 367.896 318.682 367.896 318.684L365.908 318.463C364.882 328.069 363.297 336.555 361.152 343.923C359.007 351.197 356.349 357.539 353.178 362.948C350.1 368.264 346.51 372.787 342.406 376.518L263.297 366.35ZM263.297 366.35C260.283 365.959 257.494 366.664 255.044 368.474C252.472 370.376 250.896 372.982 250.345 376.178C249.789 379.403 250.466 382.383 252.386 384.981C254.288 387.554 256.894 389.129 260.09 389.68L260.105 389.683L260.119 389.685C266.673 390.715 273.044 391.558 279.23 392.215C285.452 392.968 291.45 393.346 297.221 393.346C303.2 393.346 308.865 392.872 314.214 391.917L263.297 366.35ZM335.605 350.116L335.602 350.124L335.598 350.131C333.534 354.08 331.184 357.301 328.566 359.832C326.017 362.293 323.166 364.265 320.009 365.756C316.841 367.252 313.345 368.319 309.509 368.945C305.704 369.488 301.563 369.762 297.081 369.762C295.06 369.762 292.992 369.716 290.875 369.624C289.509 369.561 288.12 369.478 286.71 369.374L297.528 273.521C297.636 272.697 297.653 271.889 297.57 271.104C298.602 270.953 299.595 270.851 300.55 270.798L300.605 270.795L300.66 270.789C302.265 270.611 303.87 270.521 305.475 270.521C306.341 270.521 307.153 270.565 307.912 270.649L308.022 270.661H308.133C308.898 270.661 309.664 270.704 310.43 270.789L310.459 270.792L310.487 270.794C315.933 271.241 320.742 272.619 324.947 274.896L324.961 274.904L324.975 274.912C329.225 277.125 332.788 279.989 335.688 283.504L335.695 283.513L335.704 283.523C338.603 286.949 340.813 290.961 342.324 295.582L342.329 295.599L342.335 295.615C343.937 300.243 344.743 305.15 344.743 310.349V310.355V310.361V310.367V310.373V310.379V310.385V310.391V310.397V310.403V310.409V310.415V310.421V310.427V310.433V310.439V310.445V310.451V310.457V310.463V310.469V310.475V310.481V310.487V310.493V310.499V310.505V310.511V310.517V310.523V310.529V310.535V310.541V310.547V310.553V310.559V310.565V310.571V310.577V310.583V310.589V310.595V310.601V310.608V310.614V310.62V310.626V310.632V310.638V310.644V310.65V310.656V310.662V310.668V310.674V310.68V310.686V310.692V310.698V310.704V310.71V310.716V310.722V310.728V310.734V310.74V310.746V310.752V310.758V310.764V310.77V310.776V310.782V310.788V310.794V310.8V310.806V310.812V310.818V310.824V310.83V310.836V310.842V310.848V310.854V310.86V310.866V310.872V310.878V310.884V310.89V310.896V310.902V310.908V310.914V310.92V310.926V310.932V310.938V310.944V310.95V310.956V310.962V310.968V310.974V310.98V310.986V310.992V310.998V311.004V311.01V311.016V311.022V311.028V311.034V311.04V311.046V311.052V311.058V311.064V311.07V311.076V311.082V311.088V311.094V311.1V311.106V311.112V311.118V311.124V311.13V311.136V311.142V311.148V311.155V311.161V311.167V311.173V311.179V311.185V311.191V311.197V311.203V311.209V311.215V311.221V311.227V311.233V311.239V311.245V311.251V311.257V311.263V311.269V311.275V311.281V311.287V311.293V311.299V311.305V311.311V311.317V311.323V311.329V311.335V311.341V311.347V311.353V311.359V311.365V311.371V311.377V311.383V311.389V311.395V311.401V311.407V311.413V311.419V311.425V311.431V311.437V311.443V311.449V311.455V311.461V311.467V311.473V311.479V311.485V311.491V311.497V311.503V311.509V311.515V311.521V311.527V311.533V311.539V311.545V311.551V311.557V311.563V311.569V311.575V311.581V311.587V311.593V311.599V311.605V311.611V311.617V311.623V311.629V311.635V311.641V311.647V311.653V311.659V311.665V311.671V311.677V311.683V311.689V311.695V311.702V311.708V311.714V311.72V311.726V311.732V311.738V311.744V311.75V311.756V311.762V311.768V311.774V311.78V311.786V311.792V311.798V311.804V311.81V311.816V311.822V311.828V311.834V311.84V311.846V311.852V311.858V311.864V311.87V311.876V311.882V311.888V311.894V311.9V311.906V311.912V311.918V311.924V311.93V311.936V311.942V311.948V311.954V311.96V311.966V311.972V311.978V311.984V311.99V311.996V312.002V312.008V312.014V312.02V312.026V312.032V312.038V312.044V312.05V312.056V312.062V312.068V312.074V312.08V312.086V312.092V312.098V312.104V312.11V312.116V312.122V312.128V312.134V312.14V312.146V312.152V312.158V312.164V312.17V312.176V312.182V312.188V312.194V312.2V312.206V312.212V312.218V312.224V312.23V312.236V312.242V312.249V312.255V312.261V312.267V312.273V312.279V312.285V312.291V312.297V312.303V312.309V312.315V312.321V312.327V312.333V312.339V312.345V312.351V312.357V312.363V312.369V312.375V312.381V312.387V312.393V312.399V312.405V312.411V312.417V312.423V312.429V312.435V312.441V312.447V312.453V312.459V312.465V312.471V312.477V312.483V312.489V312.495V312.501V312.507V312.513V312.519V312.525V312.531V312.537V312.543V312.549V312.555V312.561V312.567V312.573V312.579V312.585V312.591V312.597V312.603V312.609V312.615V312.621V312.627V312.633V312.639V312.645V312.651V312.657V312.663V312.669V312.675V312.681V312.687V312.693V312.699V312.705V312.711V312.717V312.723V312.729V312.735V312.741V312.747V312.753V312.759V312.765V312.771V312.777V312.783V312.789V312.796V312.802V312.808V312.814V312.82V312.826V312.832V312.838V312.844V312.85V312.856V312.862V312.868V312.874V312.88V312.886V312.892V312.898V312.904V312.91V312.916V312.922V312.928V312.934V312.94V312.946V312.952V312.958V312.964V312.97V312.976V312.982V312.988V312.994V313V313.006V313.012V313.018V313.024V313.03V313.036V313.042V313.048V313.054V313.06V313.066V313.072V313.078V313.084V313.09V313.096V313.102V313.108V313.114V313.12V313.126V313.132V313.138V313.144V313.15V313.156V313.162V313.168V313.174V313.18V313.186V313.192V313.198V313.204V313.21V313.216V313.222V313.228V313.234V313.24V313.246V313.252V313.258V313.264V313.27V313.276V313.282V313.288V313.294V313.3V313.306V313.312V313.318V313.324V313.33V313.336V313.342V313.349V313.355V313.361V313.367V313.373V313.379V313.385V313.391V313.397V313.403V313.409V313.415V313.421V313.427C344.743 314.226 344.663 315.085 344.495 316.007L344.483 316.075L344.475 316.144C343.644 323.627 342.493 330.149 341.031 335.722C339.57 341.294 337.756 346.085 335.605 350.116Z" fill="#CE301C" stroke="#14121D" stroke-width="4"/>
<path d="M151.67 275.396C150.739 279.331 149.776 283.514 148.783 287.945C147.675 292.802 146.568 297.89 145.461 303.21C142.399 303.509 139.772 304.85 137.658 307.168C135.416 309.531 134.385 312.408 134.609 315.663L134.611 315.681L134.612 315.699C134.829 318.192 135.656 320.403 137.151 322.242C138.238 323.58 139.548 324.637 141.063 325.407C139.697 332.874 138.576 339.939 137.699 346.6C136.76 353.736 136.283 359.752 136.283 364.627C136.283 366.251 136.331 367.745 136.428 369.106L136.429 369.117C136.522 370.322 136.702 371.442 136.983 372.463V372.933L137.194 373.356C137.231 373.431 137.291 373.57 137.365 373.793L139.26 373.162L137.365 373.793L137.645 374.633L137.666 374.697L137.692 374.76C140.045 380.488 144.297 384.755 150.294 387.557C156.179 390.399 163.07 391.982 170.92 392.365L170.923 392.365C174.948 392.557 179.285 392.413 183.929 391.94C188.663 391.56 193.441 390.897 198.262 389.952C203.081 389.007 207.852 387.826 212.575 386.409C217.392 384.992 221.935 383.384 226.202 381.583C229.213 380.353 231.376 378.187 232.604 375.174C233.821 372.186 233.834 369.167 232.599 366.238C231.371 363.232 229.209 361.071 226.203 359.843C223.275 358.607 220.255 358.62 217.267 359.837L217.262 359.839C213.694 361.303 209.938 362.632 205.992 363.826C202.038 364.929 198.084 365.894 194.132 366.722C190.186 367.456 186.288 368.005 182.439 368.372L182.435 368.372C178.69 368.738 175.19 368.873 171.932 368.784C168.1 368.6 165.039 368.192 162.707 367.588C160.5 367.015 159.719 366.318 159.476 365.896C159.289 365.117 159.169 363.927 159.169 362.249C159.169 358.481 159.664 353.237 160.683 346.471C161.726 340.041 162.973 333.16 164.424 325.826L211.422 323.118L211.436 323.117L211.449 323.116C212.994 323.006 214.454 322.618 215.81 321.945C217.241 321.28 218.483 320.381 219.508 319.241C220.517 318.121 221.296 316.836 221.847 315.404C222.422 313.909 222.643 312.322 222.537 310.668C222.418 307.428 221.101 304.683 218.649 302.557C216.21 300.349 213.31 299.319 210.061 299.54C210.057 299.54 210.054 299.541 210.05 299.541L169.623 301.903C170.736 296.882 171.849 292.067 172.962 287.457C174.125 282.638 175.178 278.224 176.12 274.217L235.753 271.078L235.769 271.078L235.786 271.076C238.987 270.856 241.74 269.564 243.951 267.243L242.503 265.864L243.951 267.243C246.196 264.885 247.234 262.015 247.018 258.766C246.898 255.522 245.58 252.745 243.149 250.535L241.835 251.979L243.149 250.535C240.708 248.316 237.804 247.28 234.548 247.5L180.276 250.349C179.787 248.805 178.976 247.387 177.863 246.108C176.379 244.294 174.443 243.059 172.127 242.397L172.087 242.386L172.047 242.376C168.849 241.604 165.795 242.048 163.005 243.718C160.277 245.313 158.527 247.777 157.753 250.944L157.598 251.484L150.219 251.835L150.198 251.836L150.176 251.838C146.975 252.059 144.222 253.35 142.011 255.671C139.758 258.037 138.721 260.92 138.946 264.183C139.167 267.384 140.458 270.137 142.779 272.348C145.14 274.596 148.014 275.633 151.267 275.415L151.67 275.396Z" fill="#CE301C" stroke="#14121D" stroke-width="4"/>
<path d="M32.8453 275.947C34.4336 275.667 35.9759 275.386 37.4721 275.106C38.1837 274.98 38.8951 274.864 39.6065 274.758L27.7155 378.087C27.276 381.315 28.0726 384.247 30.1105 386.738L30.1165 386.745C32.1866 389.251 34.8174 390.781 37.9505 391.228L37.9889 391.234L38.0275 391.238C41.2395 391.57 44.1452 390.727 46.6173 388.712C49.1624 386.713 50.6833 384.059 51.1261 380.848L51.1294 380.825L51.1321 380.801L55.9663 338.338C57.4543 339.061 58.9888 339.613 60.569 339.993L60.6061 340.002L60.6435 340.009C62.7924 340.439 64.9771 340.717 67.1968 340.843C70.3201 344.606 73.3204 348.493 76.1977 352.503C79.2768 356.796 82.4026 361.134 85.575 365.52L85.581 365.528L85.5871 365.536C88.7706 369.843 92.0937 374.196 95.5563 378.595L95.5628 378.603L95.5694 378.611C99.062 382.953 102.835 387.198 106.889 391.346L106.897 391.354L106.905 391.362C109.213 393.67 111.997 394.885 115.174 394.885C118.394 394.885 121.192 393.753 123.443 391.502C125.751 389.193 126.966 386.409 126.966 383.233C126.966 380.018 125.837 377.224 123.593 374.975C117.601 368.797 112.261 362.442 107.569 355.911C103.391 350.014 99.2496 344.224 95.1436 338.541C95.7499 338.364 96.3424 338.18 96.9209 337.987L96.956 337.975L96.9907 337.962C98.5171 337.39 100.042 336.77 101.567 336.103L101.575 336.099L101.584 336.095C109.162 332.695 115.488 327.683 120.539 321.078C125.697 314.362 129.032 306.454 130.574 297.401C130.865 295.75 131.061 294.138 131.159 292.568L131.16 292.561C131.255 290.939 131.303 289.36 131.303 287.827C131.303 282.696 130.53 278.068 128.938 273.977C127.454 269.833 125.271 266.203 122.382 263.111C119.6 260.035 116.195 257.476 112.195 255.424C108.293 253.281 103.888 251.642 98.9953 250.49C91.9982 248.765 84.0015 247.916 75.0249 247.916C67.9451 247.916 60.5006 248.388 52.6933 249.328C45.0013 250.173 37.0338 251.344 28.7912 252.843C25.5697 253.401 22.9631 255.045 21.0733 257.713L21.0684 257.72L21.0635 257.727C19.2548 260.327 18.645 263.29 19.1956 266.483C19.7478 269.686 21.333 272.266 23.9414 274.08L23.9576 274.092L23.9741 274.103C26.6479 275.885 29.6398 276.5 32.8376 275.948L32.8376 275.948L32.8453 275.947ZM91.9895 314.532L91.9562 314.547L91.9235 314.563C89.5676 315.697 87.0785 316.528 84.4513 317.056C82.0866 317.462 79.6825 317.683 77.2379 317.717C75.1864 316.165 73.1447 314.917 71.1121 313.992C68.9057 312.944 66.6136 312.406 64.2532 312.406C62.3925 312.406 60.5824 312.734 58.8294 313.373L63.3021 274.908L63.3034 274.897L63.3045 274.886C63.4138 273.848 63.4148 272.844 63.2924 271.884C64.8483 271.782 66.3621 271.7 67.8338 271.639L67.8719 271.637L67.91 271.634C70.1932 271.452 72.378 271.361 74.4653 271.361C81.7122 271.361 88.0249 272.05 93.4252 273.4C97.9999 274.543 101.463 276.441 103.944 279.005L103.967 279.029L103.991 279.052C106.392 281.376 107.718 284.761 107.718 289.505C107.718 290.866 107.591 292.333 107.33 293.908C106.351 298.963 104.547 303.185 101.963 306.631L101.953 306.644L101.944 306.657C99.4608 310.082 96.1603 312.708 91.9895 314.532Z" fill="#CE301C" stroke="#14121D" stroke-width="4"/>
<path d="M1177.3 93.9141L1177.32 93.9071L1181.84 86.6164L1183.69 87.3755C1183.69 87.3746 1183.69 87.3737 1183.69 87.3728C1185.28 83.485 1186.08 79.3566 1186.08 75.0054C1186.08 72.1171 1185.68 69.2771 1184.88 66.4906C1184.08 63.5834 1182.83 60.8327 1181.13 58.243L1181.13 58.2346C1177.26 52.375 1171.97 48.1905 1165.33 45.7128C1158.86 43.2984 1152.01 42.0472 1144.81 41.9498C1137.32 41.7609 1130.28 42.2819 1123.69 43.5228L1123.69 43.5238C1117.14 44.7752 1111.23 46.949 1105.98 50.0628C1100.67 53.2056 1096.22 57.4722 1092.61 62.8306C1088.98 68.136 1086.38 74.7393 1084.75 82.5732L1084.75 82.5732L1084.75 82.587C1084.17 85.492 1083.87 88.236 1083.87 90.8132C1083.87 96.4209 1085.1 101.258 1087.7 105.202L1087.71 105.217L1087.72 105.232C1090.31 109.015 1093.68 112.228 1097.8 114.878L1097.81 114.884L1097.82 114.89C1101.97 117.496 1106.63 119.702 1111.79 121.518C1116.85 123.297 1122.04 125.029 1127.38 126.714L1127.39 126.718L1127.4 126.721C1131.39 127.926 1135.23 129.176 1138.93 130.472L1138.94 130.474L1138.94 130.477C1142.65 131.741 1145.75 133.213 1148.29 134.873L1148.32 134.895L1148.35 134.915C1150.93 136.459 1152.76 138.246 1153.96 140.245L1153.97 140.26L1153.98 140.276C1155.02 141.936 1155.32 144.042 1154.58 146.818C1153.51 150.838 1152.06 154.102 1150.27 156.661C1148.45 159.173 1146.35 161.183 1143.97 162.714C1141.57 164.254 1138.91 165.329 1135.97 165.935C1132.94 166.558 1129.76 166.873 1126.44 166.873H1126.44H1126.43H1126.43H1126.42H1126.42H1126.41H1126.41H1126.41H1126.4H1126.4H1126.39H1126.39H1126.38H1126.38H1126.38H1126.37H1126.37H1126.36H1126.36H1126.35H1126.35H1126.35H1126.34H1126.34H1126.33H1126.33H1126.32H1126.32H1126.31H1126.31H1126.31H1126.3H1126.3H1126.29H1126.29H1126.28H1126.28H1126.28H1126.27H1126.27H1126.26H1126.26H1126.25H1126.25H1126.25H1126.24H1126.24H1126.23H1126.23H1126.22H1126.22H1126.22H1126.21H1126.21H1126.2H1126.2H1126.19H1126.19H1126.18H1126.18H1126.18H1126.17H1126.17H1126.16H1126.16H1126.15H1126.15H1126.15H1126.14H1126.14H1126.13H1126.13H1126.12H1126.12H1126.12H1126.11H1126.11H1126.1H1126.1H1126.09H1126.09H1126.09H1126.08H1126.08H1126.07H1126.07H1126.06H1126.06H1126.06H1126.05H1126.05H1126.04H1126.04H1126.03H1126.03H1126.03H1126.02H1126.02H1126.01H1126.01H1126H1126H1126H1125.99H1125.99H1125.98H1125.98H1125.98H1125.97H1125.97H1125.96H1125.96H1125.95H1125.95H1125.95H1125.94H1125.94H1125.93H1125.93H1125.92H1125.92H1125.92H1125.91H1125.91H1125.9H1125.9H1125.89H1125.89H1125.89H1125.88H1125.88H1125.87H1125.87H1125.86H1125.86H1125.86H1125.85H1125.85H1125.84H1125.84H1125.84H1125.83H1125.83H1125.82H1125.82H1125.81H1125.81H1125.81H1125.8H1125.8H1125.79H1125.79H1125.78H1125.78H1125.78H1125.77H1125.77H1125.76H1125.76H1125.76H1125.75H1125.75H1125.74H1125.74H1125.73H1125.73H1125.73H1125.72H1125.72H1125.71H1125.71H1125.7H1125.7H1125.7H1125.69H1125.69H1125.68H1125.68H1125.68H1125.67H1125.67H1125.66H1125.66H1125.65H1125.65H1125.65H1125.64H1125.64H1125.63H1125.63H1125.63H1125.62H1125.62H1125.61H1125.61H1125.6H1125.6H1125.6H1125.59H1125.59H1125.58H1125.58H1125.58H1125.57H1125.57H1125.56H1125.56H1125.55H1125.55H1125.55H1125.54H1125.54H1125.53H1125.53H1125.53H1125.52H1125.52H1125.51H1125.51H1125.5H1125.5H1125.5H1125.49H1125.49H1125.48H1125.48H1125.48H1125.47H1125.47H1125.46H1125.46H1125.46H1125.45H1125.45H1125.44H1125.44H1125.43H1125.43H1125.43H1125.42H1125.42H1125.41H1125.41H1125.41H1125.4H1125.4H1125.39H1125.39H1125.39H1125.38H1125.38H1125.37H1125.37H1125.36H1125.36H1125.36H1125.35H1125.35H1125.34H1125.34H1125.34H1125.33H1125.33H1125.32H1125.32H1125.32H1125.31H1125.31H1125.3H1125.3H1125.3H1125.29H1125.29H1125.28H1125.28H1125.28H1125.27H1125.27H1125.26H1125.26H1125.25H1125.25H1125.25H1125.24H1125.24H1125.23H1125.23H1125.23H1125.22H1125.22H1125.21H1125.21H1125.21H1125.2H1125.2H1125.19H1125.19H1125.19H1125.18H1125.18H1125.17H1125.17H1125.17H1125.16H1125.16H1125.15H1125.15H1125.15H1125.14H1125.14H1125.13H1125.13H1125.12H1125.12H1125.12H1125.11H1125.11H1125.1H1125.1H1125.1H1125.09H1125.09H1125.08H1125.08H1125.08H1125.07H1125.07H1125.06H1125.06H1125.06H1125.05H1125.05H1125.04H1125.04H1125.04H1125.03H1125.03H1125.02H1125.02H1125.02H1125.01H1125.01H1125H1125H1125H1124.99H1124.99H1124.98H1124.98H1124.98H1124.97H1124.97H1124.96H1124.96H1124.96H1124.95H1124.95H1124.94H1124.94H1124.94H1124.93H1124.93H1124.92H1124.92H1124.92H1124.91H1124.91H1124.9H1124.9H1124.9H1124.89H1124.89H1124.88H1124.88H1124.88H1124.87H1124.87H1124.86H1124.86H1124.86H1124.85H1124.85H1124.84H1124.84H1124.84H1124.83H1124.83H1124.83H1124.82H1124.82H1124.81H1124.81H1124.81H1124.8H1124.8H1124.79H1124.79H1124.79H1124.78H1124.78H1124.77H1124.77H1124.77H1124.76H1124.76H1124.75H1124.75H1124.75H1124.74H1124.74H1124.73H1124.73H1124.73H1124.72H1124.72H1124.71H1124.71H1124.71H1124.7H1124.7H1124.7H1124.69H1124.69H1124.68H1124.68H1124.68H1124.67H1124.67H1124.66H1124.66H1124.66H1124.65H1124.65H1124.64H1124.64H1124.64H1124.63H1124.63H1124.62H1124.62H1124.62H1124.61H1124.61H1124.61H1124.6H1124.6H1124.59H1124.59H1124.59H1124.58H1124.58H1124.57H1124.57H1124.57H1124.56H1124.56H1124.55H1124.55H1124.55H1124.54H1124.54H1124.54H1124.53H1124.53H1124.52H1124.52H1124.52H1124.51H1124.51H1124.5H1124.5H1124.5H1124.49H1124.49H1124.48H1124.48H1124.48H1124.47H1124.47H1124.47H1124.46H1124.46H1124.45H1124.45H1124.45H1124.44H1124.44H1124.43H1124.43H1124.43H1124.42H1124.42H1124.42H1124.41H1124.41H1124.4H1124.4H1124.4H1124.39H1124.39H1124.38H1124.38H1124.38H1124.37H1124.37H1124.37H1124.36H1124.36H1124.35H1124.35H1124.35H1124.34C1123.78 166.873 1123.17 166.833 1122.49 166.748L1122.43 166.741L1122.38 166.737C1119.76 166.563 1117.13 166.04 1114.49 165.16C1111.92 164.272 1109.48 163.165 1107.18 161.839C1104.89 160.429 1102.83 158.851 1101 157.106C1099.29 155.303 1097.98 153.398 1097.06 151.392L1097.06 151.381L1097.05 151.369C1096.04 149.236 1094.5 147.572 1092.46 146.433C1090.57 145.325 1088.5 144.77 1086.29 144.77C1084.7 144.77 1083.09 145.113 1081.49 145.752L1081.43 145.775L1081.38 145.802C1079.28 146.794 1077.6 148.25 1076.36 150.16L1076.34 150.196L1076.31 150.232C1075.2 152.13 1074.64 154.206 1074.64 156.422C1074.64 158.207 1075.03 159.903 1075.82 161.485C1077.59 165.33 1080.1 168.948 1083.3 172.343C1086.49 175.73 1090.12 178.724 1094.16 181.327C1098.22 183.934 1102.56 186.009 1107.19 187.553C1111.93 189.196 1116.69 190.12 1121.46 190.316C1127.58 190.602 1133.57 190.172 1139.42 189.021C1145.31 187.861 1150.75 185.827 1155.71 182.911C1160.79 179.975 1165.19 176.065 1168.88 171.202C1172.71 166.188 1175.52 160.004 1177.34 152.711C1178.4 148.498 1178.94 144.692 1178.94 141.314C1178.94 135.509 1177.61 130.486 1174.83 126.36C1172.24 122.377 1168.77 119.016 1164.45 116.27C1160.29 113.561 1155.53 111.305 1150.19 109.49C1145.03 107.616 1139.74 105.837 1134.31 104.151L1134.3 104.148L1134.29 104.146C1130.58 103.033 1126.92 101.874 1123.3 100.669C1119.85 99.4874 1116.84 98.1806 1114.26 96.7561C1111.73 95.3623 1109.87 93.8477 1108.58 92.2469C1107.58 90.9071 1107.24 89.3342 1107.69 87.3301L1107.69 87.3227L1107.69 87.3153C1108.78 82.2539 1110.33 78.3818 1112.27 75.5945C1114.34 72.6695 1116.79 70.5236 1119.64 69.1002L1119.65 69.0951L1119.66 69.0899C1122.68 67.538 1126.17 66.525 1130.16 66.0816L1130.18 66.0795L1130.2 66.077C1134.37 65.5327 1139.07 65.3022 1144.31 65.3941L1144.33 65.3944H1144.35C1146.47 65.3944 1148.65 65.5716 1150.89 65.9289L1150.9 65.9307C1153.15 66.2779 1155.16 66.8795 1156.92 67.7181L1156.95 67.7351L1156.99 67.7507C1158.69 68.4811 1160.07 69.4763 1161.17 70.7267L1161.19 70.7509L1161.21 70.7744C1162.13 71.7572 1162.63 73.0209 1162.63 74.7256C1162.63 76.0292 1162.36 77.3567 1161.8 78.7204L1161.79 78.7421L1161.79 78.764C1160.66 81.6875 1160.73 84.6858 1161.94 87.6508L1161.94 87.6632L1161.95 87.6755C1163.19 90.6052 1165.36 92.7061 1168.35 93.9244C1171.35 95.1435 1174.37 95.1546 1177.3 93.9141Z" fill="#CE301C" stroke="#14121D" stroke-width="4"/>
<path d="M1040.05 81.245C1040.64 79.3684 1041.75 77.7956 1043.33 76.546C1043.92 76.0187 1044.45 75.4166 1044.9 74.735L1044.94 74.6742L1044.99 74.6165L1045.87 73.4838C1045.07 72.5288 1044.44 71.4487 1043.99 70.2515M1040.05 81.245L1043.99 70.2515M1040.05 81.245C1039.49 82.9318 1039.33 84.7069 1039.54 86.544C1039.78 89.0664 1040.87 91.2813 1042.71 93.1474C1043.93 94.5638 1045.39 95.6294 1047.08 96.3069L1047.1 96.315L1047.12 96.3226C1048.91 96.9943 1050.77 97.2196 1052.67 96.9959L1052.7 96.993L1052.72 96.9895C1055.12 96.6469 1057.29 95.5631 1059.23 93.8464L1059.25 93.8264L1059.27 93.8056C1061.05 92.129 1062.8 90.1299 1064.53 87.8211C1066.36 85.4061 1067.84 83.0077 1068.93 80.6254C1069.73 79.0235 1070.34 77.4046 1070.75 75.7699L1070.75 75.7564L1070.76 75.7429C1071.15 74.0575 1071.4 72.407 1071.5 70.7931L1071.51 70.654L1071.5 70.515C1071.3 67.8887 1070.69 65.4651 1069.65 63.2687C1068.63 60.899 1066.85 58.9491 1064.45 57.3877M1040.05 81.245L1064.45 57.3877M1043.99 70.2515C1043.32 68.4473 1043.1 66.544 1043.32 64.5721L1043.32 64.541L1043.33 64.5101C1043.55 62.9471 1044.06 61.5073 1044.88 60.2219L1044.89 60.2039L1044.9 60.1862C1045.75 58.9172 1046.72 57.8258 1047.83 56.9361L1047.87 56.9073L1047.91 56.8803C1049.11 56.0044 1050.43 55.3455 1051.85 54.9075L1051.87 54.9016L1051.89 54.896C1053.47 54.4445 1055.1 54.3355 1056.76 54.5568L1056.77 54.5581L1056.78 54.5594C1059.65 54.969 1062.22 55.9006 1064.45 57.3877M1043.99 70.2515L1064.45 57.3877" fill="#CE301C" stroke="#14121D" stroke-width="4"/>
<path d="M931.52 73.508H931.512C928.294 73.508 925.469 72.3778 923.138 70.1584L923.103 70.1247L923.069 70.0894C920.866 67.776 919.691 64.9782 919.581 61.7844L919.58 61.75V61.7155C919.58 58.4956 920.713 55.6974 922.963 53.4466L931.52 73.508ZM931.52 73.508L931.529 73.5079M931.52 73.508L931.529 73.5079M931.529 73.5079L963.553 73.2465L952.186 177.329L952.185 177.34C951.852 180.559 952.699 183.471 954.725 185.947C956.748 188.419 959.427 189.835 962.642 190.167C965.854 190.499 968.76 189.657 971.232 187.641C973.793 185.631 975.273 182.951 975.609 179.714C975.609 179.713 975.609 179.711 975.609 179.71L987.029 73.0755L1024.54 72.8085C1024.54 72.8085 1024.55 72.8085 1024.55 72.8085C1027.76 72.8068 1030.56 71.674 1032.81 69.4249C1035.14 67.093 1036.3 64.2405 1036.19 60.9817C1036.18 57.7606 1034.99 54.9759 1032.67 52.7467C1030.43 50.4152 1027.64 49.2236 1024.4 49.2236L1024.39 49.2237L931.36 49.7832L931.332 49.7834M931.529 73.5079L931.332 49.7834M931.332 49.7834L931.303 49.7844M931.332 49.7834L931.303 49.7844M931.303 49.7844C928.079 49.8956 925.271 51.1392 922.963 53.4466L931.303 49.7844Z" fill="#CE301C" stroke="#14121D" stroke-width="4"/>
<path d="M883.563 143.181L883.56 143.196L883.558 143.211C882.729 148.002 881.818 151.855 880.836 154.801C880.347 156.224 879.905 157.142 879.544 157.667C879.519 157.704 879.495 157.737 879.473 157.767C879.332 157.663 879.13 157.493 878.867 157.215C878.183 156.493 877.341 155.316 876.348 153.602C874.349 150.15 872.146 145.658 869.74 140.105C867.332 134.454 864.827 128.148 862.227 121.184C859.714 114.11 857.247 107.083 854.827 100.102C852.5 93.1203 850.36 86.5593 848.406 80.4184C846.515 74.3845 845.02 69.4089 843.918 65.4864L844.703 59.4707C844.703 59.4682 844.704 59.4656 844.704 59.463C845.147 56.2362 844.356 53.3045 842.325 50.8134C840.319 48.2589 837.647 46.7795 834.421 46.4392C831.889 46.1142 829.504 46.5542 827.346 47.7939C825.331 48.8629 823.767 50.437 822.668 52.461C821.143 53.7778 820.021 55.434 819.302 57.3869L819.285 57.4311L819.271 57.4761C818.596 59.6131 818.546 61.8085 819.098 64.0192C819.276 64.7305 819.403 65.3291 819.485 65.8214L819.511 65.9762L819.561 66.1251C819.697 66.5331 819.834 66.9219 819.973 67.291L807.303 174.775C806.864 177.997 807.656 180.924 809.684 183.412C811.683 185.957 814.337 187.478 817.548 187.921L817.581 187.925L817.615 187.929C820.818 188.26 823.716 187.423 826.184 185.42C828.749 183.508 830.271 180.887 830.714 177.679L830.717 177.659L830.719 177.639L837.445 120.402C840.055 127.228 842.788 133.906 845.646 140.437L845.649 140.444C849.589 149.357 853.586 157.305 857.64 164.282L857.648 164.296L857.656 164.309C861.809 171.199 865.953 176.788 870.101 181.034C874.281 185.406 878.637 187.939 883.15 187.939C887.16 187.939 890.488 185.478 893.192 181.477C895.948 177.536 898.305 172.45 900.299 166.279C902.379 160.036 904.216 153.012 905.814 145.213L905.815 145.208C907.407 137.34 908.812 129.332 910.029 121.185L910.03 121.182C911.246 112.948 912.229 104.944 912.979 97.1705C913.818 89.3326 914.473 82.3725 914.94 76.2919C915.499 70.1435 915.874 65.1825 916.063 61.4188L916.376 57.1401L916.455 56.0647L916.474 55.7958L916.479 55.7286L916.48 55.7118L916.481 55.7076L916.481 55.7065L916.481 55.7063L916.481 55.7062L916.484 55.6677L916.485 55.6292C916.596 52.4041 915.524 49.5629 913.31 47.2217C911.194 44.7894 908.471 43.4351 905.251 43.213C901.989 42.988 899.078 44.0239 896.634 46.2465L896.616 46.2621L896.6 46.2781C894.276 48.4911 893.029 51.2512 892.905 54.4538L892.903 54.4722L892.883 54.6885L892.805 55.5541L892.49 59.0164L892.487 59.0445L892.486 59.0727C892.3 62.0455 892.021 66.0464 891.648 71.0782C891.276 76.0098 890.81 81.6424 890.251 87.9767C889.692 94.2182 889.087 100.647 888.435 107.262C887.784 113.768 887.041 120.181 886.204 126.5C885.369 132.721 884.488 138.281 883.563 143.181ZM879.245 158.024C879.245 158.023 879.251 158.018 879.263 158.011C879.251 158.021 879.245 158.025 879.245 158.024Z" fill="#CE301C" stroke="#14121D" stroke-width="4"/>
<path d="M708.642 71.3877C707.71 75.3218 706.748 79.5048 705.754 83.9364C704.647 88.7933 703.539 93.8815 702.432 99.2008C699.371 99.5 696.744 100.842 694.63 103.16C692.388 105.522 691.356 108.399 691.581 111.654L691.582 111.672L691.584 111.69C691.801 114.184 692.628 116.394 694.122 118.233C695.209 119.572 696.52 120.628 698.034 121.398C696.669 128.865 695.547 135.93 694.671 142.591C693.732 149.727 693.255 155.743 693.255 160.619C693.255 162.242 693.303 163.736 693.4 165.098L693.4 165.098L693.401 165.109C693.493 166.314 693.673 167.433 693.954 168.454V168.925L694.165 169.347C694.203 169.422 694.262 169.561 694.337 169.784L696.234 169.152L694.337 169.784L694.617 170.624L694.638 170.688L694.664 170.751C697.016 176.479 701.269 180.746 707.266 183.548C713.15 186.39 720.042 187.973 727.892 188.356L727.894 188.356C731.92 188.548 736.256 188.404 740.901 187.931C745.635 187.551 750.413 186.888 755.234 185.943C760.052 184.998 764.823 183.817 769.547 182.401C774.364 180.984 778.907 179.375 783.175 177.574C786.185 176.344 788.348 174.178 789.576 171.166C790.793 168.177 790.806 165.158 789.57 162.23C788.342 159.223 786.18 157.062 783.174 155.834C780.246 154.598 777.227 154.611 774.239 155.829L774.234 155.83C770.666 157.294 766.909 158.624 762.963 159.817C759.009 160.92 755.056 161.886 751.103 162.713C747.157 163.447 743.26 163.997 739.411 164.363L739.406 164.364C735.662 164.729 732.162 164.865 728.904 164.775C725.072 164.592 722.01 164.183 719.678 163.579C717.471 163.007 716.69 162.309 716.448 161.887C716.261 161.108 716.14 159.918 716.14 158.24C716.14 154.473 716.636 149.228 717.655 142.462C718.698 136.032 719.945 129.151 721.396 121.818L768.393 119.109L768.407 119.108L768.421 119.107C769.965 118.997 771.425 118.609 772.782 117.936C774.213 117.271 775.454 116.372 776.48 115.233C777.488 114.112 778.267 112.827 778.818 111.395C779.393 109.9 779.615 108.313 779.509 106.659C779.389 103.419 778.072 100.675 775.62 98.5484C773.182 96.3401 770.282 95.3099 767.032 95.5313C767.029 95.5316 767.025 95.5318 767.022 95.5321L726.594 97.8946C727.708 92.8737 728.821 88.0581 729.934 83.4479C731.097 78.6289 732.149 74.2156 733.091 70.2083L792.725 67.0697L792.741 67.0688L792.757 67.0677C795.959 66.8469 798.712 65.5555 800.923 63.2342L799.474 61.8549L800.923 63.2342C803.168 60.8764 804.205 58.0059 803.99 54.7569C803.869 51.5132 802.551 48.736 800.12 46.5257C797.68 44.3071 794.775 43.2709 791.52 43.4911L737.248 46.3404C736.759 44.7959 735.948 43.3786 734.834 42.0995C733.351 40.2853 731.414 39.0502 729.099 38.3885L729.059 38.3771L729.018 38.3674C725.821 37.5956 722.767 38.0387 719.977 39.7094C717.249 41.3044 715.499 43.7687 714.724 46.935L714.57 47.4751L707.19 47.8265L707.169 47.8275L707.148 47.829C703.946 48.0498 701.193 49.3411 698.983 51.6624C696.729 54.0285 695.693 56.9109 695.918 60.1739C696.138 63.3757 697.43 66.1285 699.751 68.3393C702.111 70.5871 704.985 71.6242 708.238 71.406L708.642 71.3877Z" fill="#CE301C" stroke="#14121D" stroke-width="4"/>
<path d="M583.381 162.341L593.261 74.7363C592.395 74.9428 591.503 75.0457 590.586 75.0457C588.37 75.0457 586.294 74.4868 584.396 73.3707L584.36 73.3491L584.324 73.326C582.414 72.0901 580.958 70.4007 579.966 68.3062L579.93 68.2306L579.901 68.1523C579.605 67.3644 579.354 66.6135 579.151 65.9011C578.908 65.0529 578.794 64.167 578.794 63.2533C578.794 61.0368 579.353 58.9606 580.469 57.0633L580.491 57.0266L580.514 56.9908C581.75 55.0809 583.439 53.6248 585.533 52.6327L585.536 52.6316C592.36 49.409 599.066 47.0277 605.652 45.4996C612.318 43.8816 618.815 43.0674 625.14 43.0674C627.721 43.0674 630.302 43.2102 632.883 43.4957C641.412 44.1704 649.131 46.3337 656.011 50.0137C662.857 53.5829 668.705 58.27 673.54 64.0713C678.364 69.8603 682.025 76.4628 684.525 83.8619C687.12 91.1718 688.412 98.9019 688.412 107.039C688.412 109.54 688.268 112.084 687.981 114.67C687.981 114.672 687.98 114.673 687.98 114.675L685.993 114.454C684.967 124.06 683.381 132.546 681.236 139.914C679.091 147.188 676.433 153.53 673.262 158.939C670.185 164.255 666.594 168.778 662.491 172.509L583.381 162.341ZM583.381 162.341C580.367 161.95 577.578 162.655 575.129 164.465C572.556 166.367 570.981 168.973 570.43 172.169C569.874 175.394 570.551 178.374 572.471 180.972C574.372 183.545 576.978 185.12 580.174 185.671L580.189 185.674L580.204 185.676C586.757 186.706 593.127 187.549 599.313 188.205C605.536 188.959 611.534 189.337 617.306 189.337C623.286 189.337 628.953 188.863 634.303 187.907L583.381 162.341ZM655.69 146.107L655.686 146.115L655.682 146.122C653.618 150.071 651.268 153.292 648.65 155.823C646.101 158.284 643.251 160.256 640.093 161.747C636.925 163.243 633.429 164.31 629.594 164.936C625.789 165.479 621.647 165.753 617.166 165.753C615.146 165.753 613.077 165.707 610.961 165.615C609.594 165.553 608.205 165.469 606.794 165.365L617.612 69.512C617.721 68.688 617.738 67.8801 617.654 67.0953C618.686 66.9438 619.679 66.8421 620.634 66.789L620.689 66.786L620.744 66.7799C622.35 66.6015 623.955 66.5123 625.559 66.5123C626.426 66.5123 627.237 66.5557 627.996 66.64L628.106 66.6522H628.217C628.982 66.6522 629.748 66.6947 630.514 66.7799L630.543 66.7831L630.572 66.7854C636.018 67.2318 640.826 68.6098 645.031 70.8874L645.045 70.8951L645.06 70.9026C649.309 73.1158 652.872 75.9799 655.772 79.4945L655.78 79.5041L655.788 79.5136C658.687 82.94 660.897 86.9517 662.408 91.5734L662.414 91.5898L662.419 91.6061C664.021 96.2341 664.827 101.141 664.827 106.34V106.346V106.352V106.358V106.364V106.37V106.376V106.382V106.388V106.394V106.4V106.406V106.412V106.418V106.424V106.43V106.436V106.442V106.448V106.454V106.46V106.466V106.472V106.478V106.484V106.49V106.496V106.502V106.508V106.514V106.52V106.526V106.532V106.538V106.544V106.55V106.556V106.562V106.568V106.574V106.58V106.586V106.592V106.598V106.604V106.61V106.616V106.623V106.629V106.635V106.641V106.647V106.653V106.659V106.665V106.671V106.677V106.683V106.689V106.695V106.701V106.707V106.713V106.719V106.725V106.731V106.737V106.743V106.749V106.755V106.761V106.767V106.773V106.779V106.785V106.791V106.797V106.803V106.809V106.815V106.821V106.827V106.833V106.839V106.845V106.851V106.857V106.863V106.869V106.875V106.881V106.887V106.893V106.899V106.905V106.911V106.917V106.923V106.929V106.935V106.941V106.947V106.953V106.959V106.965V106.971V106.977V106.983V106.989V106.995V107.001V107.007V107.013V107.019V107.025V107.031V107.037V107.043V107.049V107.055V107.061V107.067V107.073V107.079V107.085V107.091V107.097V107.103V107.109V107.115V107.121V107.127V107.133V107.139V107.145V107.151V107.157V107.163V107.17V107.176V107.182V107.188V107.194V107.2V107.206V107.212V107.218V107.224V107.23V107.236V107.242V107.248V107.254V107.26V107.266V107.272V107.278V107.284V107.29V107.296V107.302V107.308V107.314V107.32V107.326V107.332V107.338V107.344V107.35V107.356V107.362V107.368V107.374V107.38V107.386V107.392V107.398V107.404V107.41V107.416V107.422V107.428V107.434V107.44V107.446V107.452V107.458V107.464V107.47V107.476V107.482V107.488V107.494V107.5V107.506V107.512V107.518V107.524V107.53V107.536V107.542V107.548V107.554V107.56V107.566V107.572V107.578V107.584V107.59V107.596V107.602V107.608V107.614V107.62V107.626V107.632V107.638V107.644V107.65V107.656V107.662V107.668V107.674V107.68V107.686V107.692V107.698V107.704V107.71V107.717V107.723V107.729V107.735V107.741V107.747V107.753V107.759V107.765V107.771V107.777V107.783V107.789V107.795V107.801V107.807V107.813V107.819V107.825V107.831V107.837V107.843V107.849V107.855V107.861V107.867V107.873V107.879V107.885V107.891V107.897V107.903V107.909V107.915V107.921V107.927V107.933V107.939V107.945V107.951V107.957V107.963V107.969V107.975V107.981V107.987V107.993V107.999V108.005V108.011V108.017V108.023V108.029V108.035V108.041V108.047V108.053V108.059V108.065V108.071V108.077V108.083V108.089V108.095V108.101V108.107V108.113V108.119V108.125V108.131V108.137V108.143V108.149V108.155V108.161V108.167V108.173V108.179V108.185V108.191V108.197V108.203V108.209V108.215V108.221V108.227V108.233V108.239V108.245V108.251V108.257V108.264V108.27V108.276V108.282V108.288V108.294V108.3V108.306V108.312V108.318V108.324V108.33V108.336V108.342V108.348V108.354V108.36V108.366V108.372V108.378V108.384V108.39V108.396V108.402V108.408V108.414V108.42V108.426V108.432V108.438V108.444V108.45V108.456V108.462V108.468V108.474V108.48V108.486V108.492V108.498V108.504V108.51V108.516V108.522V108.528V108.534V108.54V108.546V108.552V108.558V108.564V108.57V108.576V108.582V108.588V108.594V108.6V108.606V108.612V108.618V108.624V108.63V108.636V108.642V108.648V108.654V108.66V108.666V108.672V108.678V108.684V108.69V108.696V108.702V108.708V108.714V108.72V108.726V108.732V108.738V108.744V108.75V108.756V108.762V108.768V108.774V108.78V108.786V108.792V108.798V108.804V108.811V108.817V108.823V108.829V108.835V108.841V108.847V108.853V108.859V108.865V108.871V108.877V108.883V108.889V108.895V108.901V108.907V108.913V108.919V108.925V108.931V108.937V108.943V108.949V108.955V108.961V108.967V108.973V108.979V108.985V108.991V108.997V109.003V109.009V109.015V109.021V109.027V109.033V109.039V109.045V109.051V109.057V109.063V109.069V109.075V109.081V109.087V109.093V109.099V109.105V109.111V109.117V109.123V109.129V109.135V109.141V109.147V109.153V109.159V109.165V109.171V109.177V109.183V109.189V109.195V109.201V109.207V109.213V109.219V109.225V109.231V109.237V109.243V109.249V109.255V109.261V109.267V109.273V109.279V109.285V109.291V109.297V109.303V109.309V109.315V109.321V109.327V109.333V109.339V109.345V109.351V109.358V109.364V109.37V109.376V109.382V109.388V109.394V109.4V109.406V109.412V109.418C664.827 110.217 664.747 111.076 664.58 111.998L664.567 112.066L664.56 112.134C663.728 119.618 662.577 126.14 661.116 131.713C659.654 137.285 657.84 142.076 655.69 146.107Z" fill="#CE301C" stroke="#14121D" stroke-width="4"/>
<path d="M488.005 187.658L488.008 187.658L506.81 186.982C508.282 187.897 509.973 188.476 511.841 188.756L511.893 188.764L511.945 188.769C515.083 189.073 517.908 188.336 520.29 186.516L540.044 185.84L540.045 185.84C543.296 185.727 546.079 184.415 548.295 181.986C550.522 179.639 551.554 176.787 551.349 173.559C551.339 171.993 550.997 170.506 550.312 169.125C549.663 167.727 548.79 166.51 547.687 165.498C546.642 164.362 545.374 163.511 543.911 162.949C542.416 162.374 540.828 162.152 539.173 162.258L526.86 162.727L538.391 69.1451L555.659 68.8912C558.905 68.8874 561.708 67.6839 563.947 65.3328C566.166 63.0024 567.296 60.177 567.296 56.9588C567.296 53.7151 566.099 50.9127 563.756 48.6728C561.508 46.4334 558.716 45.3063 555.504 45.3063H555.492L555.48 45.3065L532.566 45.5809C531.67 45.2025 530.636 44.9434 529.508 44.77L529.407 44.7544L529.304 44.7492C527.263 44.6472 525.272 44.9787 523.347 45.7305L499.815 46.0058C496.571 46.0088 493.739 47.2088 491.418 49.5293C489.167 51.7801 488.035 54.5782 488.035 57.7982C488.035 61.0474 489.235 63.8836 491.558 66.207L491.575 66.2242L491.593 66.2411C493.934 68.4709 496.779 69.5552 500.009 69.4505L514.495 69.3297L503.084 163.57L487.173 164.075L487.168 164.076C483.941 164.187 481.16 165.435 478.934 167.773C476.688 170.131 475.651 173.001 475.866 176.25C475.985 179.463 477.233 182.231 479.562 184.45C481.91 186.686 484.764 187.77 488.005 187.658Z" fill="#CE301C" stroke="#14121D" stroke-width="4"/>
<path d="M463.771 93.9141L463.788 93.9071L468.308 86.6164L470.158 87.3755C470.158 87.3746 470.159 87.3737 470.159 87.3728C471.754 83.485 472.546 79.3566 472.546 75.0054C472.546 72.1171 472.148 69.2771 471.352 66.4906C470.549 63.5834 469.297 60.8327 467.603 58.243L467.598 58.2346C463.725 52.375 458.44 48.1905 451.8 45.7128C445.33 43.2984 438.484 42.0472 431.275 41.9498C423.788 41.7609 416.748 42.2819 410.162 43.5228L410.157 43.5238C403.611 44.7752 397.7 46.949 392.446 50.0628C387.142 53.2056 382.687 57.4722 379.081 62.8306C375.447 68.136 372.847 74.7393 371.223 82.5732L371.223 82.5732L371.22 82.587C370.639 85.492 370.342 88.236 370.342 90.8132C370.342 96.4209 371.574 101.258 374.168 105.202L374.178 105.217L374.189 105.232C376.777 109.015 380.148 112.228 384.27 114.878L384.279 114.884L384.288 114.89C388.439 117.496 393.099 119.702 398.258 121.518C403.315 123.297 408.511 125.029 413.847 126.714L413.859 126.718L413.871 126.721C417.855 127.926 421.698 129.176 425.4 130.472L425.407 130.474L425.414 130.477C429.117 131.741 432.222 133.213 434.757 134.873L434.79 134.895L434.824 134.915C437.396 136.459 439.234 138.246 440.433 140.245L440.442 140.26L440.452 140.276C441.49 141.936 441.788 144.042 441.054 146.816C439.982 150.838 438.53 154.102 436.741 156.662C434.92 159.174 432.817 161.183 430.435 162.714C428.039 164.254 425.38 165.329 422.44 165.935C419.41 166.558 416.235 166.873 412.911 166.873H412.906H412.902H412.897H412.893H412.889H412.884H412.88H412.876H412.871H412.867H412.862H412.858H412.854H412.849H412.845H412.841H412.836H412.832H412.828H412.823H412.819H412.815H412.81H412.806H412.802H412.797H412.793H412.789H412.784H412.78H412.776H412.771H412.767H412.762H412.758H412.754H412.749H412.745H412.741H412.736H412.732H412.728H412.724H412.719H412.715H412.711H412.706H412.702H412.698H412.693H412.689H412.685H412.68H412.676H412.672H412.667H412.663H412.659H412.654H412.65H412.646H412.642H412.637H412.633H412.629H412.624H412.62H412.616H412.611H412.607H412.603H412.599H412.594H412.59H412.586H412.581H412.577H412.573H412.568H412.564H412.56H412.556H412.551H412.547H412.543H412.538H412.534H412.53H412.526H412.521H412.517H412.513H412.509H412.504H412.5H412.496H412.491H412.487H412.483H412.479H412.474H412.47H412.466H412.462H412.457H412.453H412.449H412.445H412.44H412.436H412.432H412.428H412.423H412.419H412.415H412.411H412.406H412.402H412.398H412.394H412.389H412.385H412.381H412.377H412.372H412.368H412.364H412.36H412.355H412.351H412.347H412.343H412.339H412.334H412.33H412.326H412.322H412.317H412.313H412.309H412.305H412.301H412.296H412.292H412.288H412.284H412.279H412.275H412.271H412.267H412.263H412.258H412.254H412.25H412.246H412.242H412.237H412.233H412.229H412.225H412.221H412.216H412.212H412.208H412.204H412.2H412.195H412.191H412.187H412.183H412.179H412.174H412.17H412.166H412.162H412.158H412.153H412.149H412.145H412.141H412.137H412.133H412.128H412.124H412.12H412.116H412.112H412.108H412.103H412.099H412.095H412.091H412.087H412.083H412.078H412.074H412.07H412.066H412.062H412.058H412.053H412.049H412.045H412.041H412.037H412.033H412.028H412.024H412.02H412.016H412.012H412.008H412.004H411.999H411.995H411.991H411.987H411.983H411.979H411.975H411.97H411.966H411.962H411.958H411.954H411.95H411.946H411.942H411.937H411.933H411.929H411.925H411.921H411.917H411.913H411.909H411.904H411.9H411.896H411.892H411.888H411.884H411.88H411.876H411.871H411.867H411.863H411.859H411.855H411.851H411.847H411.843H411.839H411.835H411.83H411.826H411.822H411.818H411.814H411.81H411.806H411.802H411.798H411.794H411.79H411.785H411.781H411.777H411.773H411.769H411.765H411.761H411.757H411.753H411.749H411.745H411.741H411.736H411.732H411.728H411.724H411.72H411.716H411.712H411.708H411.704H411.7H411.696H411.692H411.688H411.684H411.679H411.675H411.671H411.667H411.663H411.659H411.655H411.651H411.647H411.643H411.639H411.635H411.631H411.627H411.623H411.619H411.615H411.611H411.607H411.603H411.599H411.594H411.59H411.586H411.582H411.578H411.574H411.57H411.566H411.562H411.558H411.554H411.55H411.546H411.542H411.538H411.534H411.53H411.526H411.522H411.518H411.514H411.51H411.506H411.502H411.498H411.494H411.49H411.486H411.482H411.478H411.474H411.47H411.466H411.462H411.458H411.454H411.45H411.446H411.442H411.438H411.434H411.43H411.426H411.422H411.418H411.414H411.41H411.406H411.402H411.398H411.394H411.39H411.386H411.382H411.378H411.374H411.37H411.366H411.362H411.358H411.354H411.35H411.346H411.342H411.338H411.334H411.33H411.326H411.322H411.318H411.314H411.31H411.307H411.303H411.299H411.295H411.291H411.287H411.283H411.279H411.275H411.271H411.267H411.263H411.259H411.255H411.251H411.247H411.243H411.239H411.235H411.231H411.228H411.224H411.22H411.216H411.212H411.208H411.204H411.2H411.196H411.192H411.188H411.184H411.18H411.176H411.172H411.169H411.165H411.161H411.157H411.153H411.149H411.145H411.141H411.137H411.133H411.129H411.125H411.122H411.118H411.114H411.11H411.106H411.102H411.098H411.094H411.09H411.086H411.083H411.079H411.075H411.071H411.067H411.063H411.059H411.055H411.051H411.047H411.044H411.04H411.036H411.032H411.028H411.024H411.02H411.016H411.012H411.009H411.005H411.001H410.997H410.993H410.989H410.985H410.981H410.978H410.974H410.97H410.966H410.962H410.958H410.954H410.951H410.947H410.943H410.939H410.935H410.931H410.927H410.924H410.92H410.916H410.912H410.908H410.904H410.9H410.897H410.893H410.889H410.885H410.881H410.877H410.873H410.87H410.866H410.862H410.858H410.854H410.85H410.847H410.843H410.839H410.835H410.831H410.827H410.824H410.82H410.816H410.812C410.254 166.873 409.638 166.833 408.962 166.748L408.904 166.741L408.847 166.737C406.231 166.563 403.604 166.04 400.962 165.16C398.389 164.272 395.952 163.165 393.65 161.839C391.363 160.429 389.303 158.851 387.466 157.106C385.755 155.303 384.452 153.398 383.533 151.392L383.528 151.381L383.522 151.369C382.512 149.236 380.972 147.572 378.93 146.433C377.039 145.325 374.97 144.77 372.762 144.77C371.165 144.77 369.561 145.113 367.962 145.752L367.904 145.775L367.849 145.802C365.754 146.794 364.065 148.25 362.829 150.16L362.806 150.196L362.784 150.232C361.668 152.13 361.109 154.206 361.109 156.422C361.109 158.207 361.5 159.903 362.285 161.485C364.064 165.33 366.567 168.948 369.768 172.343C372.961 175.73 376.585 178.724 380.633 181.327C384.689 183.934 389.032 186.009 393.66 187.553C398.398 189.196 403.155 190.12 407.925 190.316C414.048 190.602 420.037 190.172 425.887 189.021C431.783 187.861 437.217 185.827 442.176 182.911C447.263 179.975 451.656 176.065 455.351 171.202C459.185 166.188 461.99 160.004 463.813 152.711C464.866 148.498 465.411 144.692 465.411 141.314C465.411 135.509 464.082 130.486 461.302 126.36C458.71 122.377 455.237 119.017 450.925 116.271C446.762 113.562 442.001 111.305 436.656 109.49C431.502 107.616 426.209 105.837 420.778 104.151L420.769 104.148L420.76 104.146C417.051 103.033 413.388 101.874 409.773 100.669C406.32 99.4874 403.309 98.1806 400.727 96.7561C398.201 95.3623 396.335 93.8477 395.047 92.2469C394.053 90.9071 393.714 89.3342 394.159 87.3301L394.161 87.3227L394.162 87.3153C395.247 82.2539 396.799 78.3818 398.74 75.5945C400.806 72.6695 403.264 70.5236 406.111 69.1002L406.121 69.0951L406.131 69.0899C409.149 67.538 412.638 66.525 416.629 66.0816L416.648 66.0795L416.666 66.077C420.84 65.5327 425.543 65.3022 430.782 65.3941L430.799 65.3944H430.817C432.943 65.3944 435.123 65.5716 437.355 65.9289L437.367 65.9307C439.624 66.2779 441.625 66.8795 443.386 67.7181L443.422 67.7351L443.458 67.7507C445.163 68.4811 446.543 69.4763 447.637 70.7267L447.658 70.7509L447.68 70.7744C448.598 71.7572 449.101 73.0209 449.101 74.7256C449.101 76.0292 448.834 77.3567 448.272 78.7204L448.263 78.7421L448.255 78.764C447.131 81.6875 447.202 84.6858 448.409 87.6508L448.415 87.6632L448.42 87.6755C449.659 90.6052 451.833 92.7061 454.823 93.9244C457.815 95.1435 460.839 95.1546 463.771 93.9141Z" fill="#CE301C" stroke="#14121D" stroke-width="4"/>
<path d="M261.012 47.8265L260.991 47.8275L260.97 47.829C257.768 48.0498 255.015 49.3411 252.804 51.6624C250.551 54.0285 249.514 56.9109 249.739 60.1739C249.96 63.3757 251.251 66.1286 253.573 68.3393C255.933 70.5871 258.807 71.6242 262.06 71.406L262.463 71.3877C261.532 75.3219 260.569 79.5048 259.576 83.9364C258.468 88.7933 257.361 93.8815 256.254 99.2008C253.192 99.5 250.566 100.842 248.451 103.16C246.209 105.522 245.178 108.399 245.402 111.654L245.404 111.672L245.405 111.69C245.622 114.184 246.45 116.394 247.944 118.233C249.031 119.572 250.341 120.628 251.856 121.398C250.49 128.865 249.369 135.93 248.492 142.591C247.554 149.727 247.076 155.743 247.076 160.619C247.076 162.242 247.124 163.736 247.221 165.098L247.221 165.098L247.222 165.109C247.315 166.314 247.495 167.433 247.776 168.454V168.925L247.987 169.347C248.025 169.422 248.084 169.561 248.158 169.784L250.056 169.152L248.158 169.784L248.438 170.624L248.46 170.688L248.485 170.751C250.838 176.479 255.09 180.746 261.088 183.548C266.972 186.39 273.864 187.973 281.714 188.356L281.716 188.356C285.741 188.548 290.078 188.404 294.722 187.931C299.457 187.551 304.234 186.888 309.055 185.943C313.874 184.998 318.645 183.817 323.369 182.4C328.186 180.984 332.729 179.375 336.997 177.574C340.007 176.344 342.17 174.178 343.397 171.166C344.615 168.177 344.627 165.158 343.392 162.23C342.164 159.223 340.002 157.062 336.996 155.834C334.068 154.598 331.048 154.611 328.06 155.829L328.056 155.83C324.487 157.294 320.731 158.624 316.785 159.817C312.831 160.92 308.877 161.886 304.925 162.713C300.979 163.447 297.081 163.997 293.233 164.363L293.228 164.364C289.483 164.729 285.983 164.865 282.726 164.775C278.894 164.592 275.832 164.183 273.5 163.579C271.293 163.007 270.512 162.309 270.269 161.887C270.082 161.108 269.962 159.918 269.962 158.24C269.962 154.473 270.457 149.228 271.477 142.462C272.519 136.032 273.766 129.151 275.217 121.818L322.215 119.109L322.229 119.108L322.242 119.107C323.787 118.997 325.247 118.609 326.604 117.936C328.034 117.271 329.276 116.372 330.301 115.233C331.31 114.112 332.089 112.827 332.64 111.395C333.215 109.9 333.437 108.313 333.33 106.659C333.211 103.419 331.894 100.674 329.442 98.5484C327.004 96.3401 324.104 95.3099 320.854 95.5313C320.85 95.5316 320.847 95.5318 320.843 95.5321L280.416 97.8946C281.529 92.8737 282.642 88.0582 283.755 83.4479C284.918 78.6289 285.971 74.2156 286.913 70.2083L346.546 67.0697L346.563 67.0688L346.579 67.0677C349.781 66.8469 352.533 65.5555 354.744 63.2342L353.296 61.8549L354.744 63.2342C356.99 60.8765 358.027 58.0061 357.811 54.7572C357.691 51.5133 356.373 48.7361 353.942 46.5257L352.628 47.9706L353.942 46.5257C351.501 44.3071 348.597 43.2709 345.341 43.4911L291.07 46.3404C290.58 44.7959 289.769 43.3787 288.656 42.0995C287.172 40.2853 285.236 39.0502 282.92 38.3885L282.88 38.3771L282.84 38.3674C279.643 37.5956 276.588 38.0387 273.798 39.7094C271.07 41.3044 269.32 43.7687 268.546 46.935L268.392 47.4751L261.012 47.8265Z" fill="#CE301C" stroke="#14121D" stroke-width="4"/>
<path d="M148.265 71.0967C148.977 70.9713 149.688 70.8554 150.4 70.7492L138.509 174.078C138.069 177.306 138.866 180.238 140.904 182.729L140.91 182.736C142.98 185.242 145.611 186.772 148.744 187.219L148.782 187.225L148.821 187.229C152.033 187.561 154.939 186.718 157.411 184.702C159.956 182.704 161.476 180.05 161.919 176.839L161.923 176.816L161.925 176.792L166.759 134.329C168.247 135.051 169.782 135.604 171.362 135.984L171.399 135.992L171.437 136C173.586 136.43 175.77 136.708 177.99 136.834C181.113 140.597 184.114 144.484 186.991 148.494C190.07 152.787 193.196 157.125 196.368 161.511L196.374 161.519L196.38 161.527C199.564 165.834 202.887 170.187 206.349 174.586L206.356 174.594L206.363 174.602C209.855 178.944 213.629 183.189 217.682 187.337L217.69 187.345L217.698 187.353C220.006 189.661 222.791 190.876 225.967 190.876C229.187 190.876 231.985 189.744 234.236 187.493C236.544 185.184 237.759 182.4 237.759 179.224C237.759 176.009 236.63 173.215 234.387 170.966C228.394 164.788 223.054 158.433 218.362 151.902C214.184 146.004 210.043 140.214 205.937 134.532C206.543 134.355 207.136 134.171 207.714 133.978L207.749 133.966L207.784 133.953C209.31 133.381 210.836 132.761 212.36 132.094L212.368 132.09L212.377 132.086C219.955 128.686 226.281 123.674 231.332 117.069C236.49 110.353 239.825 102.445 241.367 93.3922C241.658 91.7407 241.854 90.1293 241.952 88.5588L241.953 88.5515C242.048 86.9295 242.096 85.3514 242.096 83.8177C242.096 78.6869 241.323 74.0586 239.732 69.9678C238.248 65.8235 236.064 62.1935 233.175 59.1021C230.393 56.026 226.988 53.4673 222.988 51.4147C219.086 49.2722 214.681 47.6327 209.788 46.4807C202.791 44.7565 194.795 43.907 185.818 43.907C178.738 43.907 171.294 44.3787 163.486 45.319C155.795 46.1635 147.827 47.3354 139.584 48.8339C136.363 49.3916 133.756 51.0361 131.866 53.704L131.862 53.711L131.857 53.7179C130.048 56.318 129.438 59.2806 129.989 62.4742C130.541 65.6766 132.126 68.2568 134.735 70.0714L134.751 70.0827L134.767 70.0937C137.441 71.8762 140.433 72.4906 143.631 71.9393L143.631 71.9393L143.639 71.9379C145.227 71.6576 146.769 71.3772 148.265 71.0967ZM202.783 110.523L202.749 110.538L202.717 110.554C200.361 111.688 197.871 112.52 195.244 113.047C192.88 113.453 190.476 113.674 188.031 113.708C185.98 112.156 183.938 110.908 181.906 109.983C179.699 108.935 177.407 108.397 175.046 108.397C173.186 108.397 171.376 108.725 169.623 109.364L174.095 70.8988L174.097 70.888L174.098 70.8772C174.207 69.8391 174.208 68.835 174.086 67.8754C175.641 67.7731 177.155 67.6913 178.627 67.63L178.665 67.6284L178.703 67.6254C180.986 67.4427 183.171 67.3519 185.259 67.3519C192.505 67.3519 198.818 68.0405 204.218 69.3906C208.793 70.5343 212.256 72.432 214.737 74.9964L214.76 75.02L214.784 75.0428C217.185 77.367 218.511 80.7517 218.511 85.4964C218.511 86.8571 218.384 88.3234 218.123 89.8987C217.144 94.9537 215.341 99.1762 212.756 102.622L212.746 102.635L212.737 102.648C210.254 106.073 206.953 108.699 202.783 110.523Z" fill="#CE301C" stroke="#14121D" stroke-width="4"/>
<path d="M32.2839 68.3208L32.305 68.3186L32.3261 68.316C33.7828 68.1339 35.1899 67.9978 36.5478 67.9073L36.6054 67.9035L36.6628 67.8963L38.6077 67.6532L26.5958 175.761C26.1575 178.987 26.9543 181.918 28.9913 184.408L28.9973 184.415C31.0876 186.945 33.7895 188.422 37.0147 188.764C40.2384 189.2 43.167 188.403 45.655 186.368C48.11 184.359 49.5673 181.706 50.007 178.518L50.0105 178.492L50.0134 178.467L54.1197 141.643C54.3854 141.662 54.6602 141.716 54.9474 141.812L55.1677 141.885L55.3988 141.906C56.4539 142.002 57.7828 142.097 59.3794 142.191C61.01 142.287 62.775 142.334 64.6729 142.334C67.8294 142.334 71.3011 142.143 75.084 141.765C78.9427 141.379 82.8838 140.608 86.9055 139.459L86.9202 139.455L86.9349 139.451C91.0766 138.199 95.1162 136.515 99.0526 134.402L99.0602 134.398L99.0676 134.394C103.172 132.147 106.967 129.224 110.452 125.641L110.461 125.632L110.47 125.622C113.981 121.917 117.025 117.46 119.618 112.277C122.331 106.944 124.341 100.695 125.673 93.5576L125.674 93.553C126.348 89.8948 126.686 86.2762 126.686 82.6988C126.686 77.5567 125.91 72.9193 124.311 68.8218L122.448 69.5489L124.311 68.8218C122.73 64.7703 120.498 61.1939 117.614 58.1104C114.737 55.0351 111.279 52.52 107.264 50.5578C103.388 48.5255 99.0542 46.8933 94.2752 45.6507C89.8728 44.5022 85.1975 43.6924 80.2524 43.2169C75.3337 42.744 70.1869 42.5083 64.8128 42.5083C59.0742 42.5083 53.2445 42.7433 47.3237 43.2128C41.4188 43.588 35.5142 44.1503 29.61 44.8996C26.382 45.2394 23.7095 46.7189 21.7032 49.274C19.6875 51.7462 18.8448 54.6519 19.1771 57.8639L19.1806 57.8977L19.1853 57.9314C19.625 61.1193 21.0822 63.7723 23.5372 65.781L23.554 65.7947L23.5711 65.8081C26.123 67.8052 29.0632 68.654 32.2839 68.3208ZM57.2269 118.345L57.1585 118.337L57.0897 118.333L56.6826 118.31L62.1826 68.9433C62.1829 68.9412 62.1831 68.939 62.1834 68.9369C62.2959 67.9754 62.2817 67.0261 62.1427 66.0932H64.533C68.9542 66.0932 73.1835 66.2774 77.222 66.6445L77.2444 66.6465L77.267 66.6481C81.2574 66.9202 84.9531 67.508 88.3596 68.404C92.9469 69.6398 96.5401 71.5937 99.2335 74.2029L99.2452 74.2143L99.2572 74.2255C101.748 76.5608 103.102 79.897 103.102 84.5174C103.102 85.2825 103.059 86.0481 102.974 86.8145L104.962 87.0354L102.974 86.8146C102.888 87.5898 102.757 88.4183 102.581 89.3011L102.576 89.3242L102.572 89.3473C101.399 96.0262 99.2602 101.186 96.262 104.956L96.2584 104.96C93.2367 108.782 89.8519 111.67 86.1123 113.67C82.2864 115.716 78.3967 117.038 74.4377 117.654L74.4308 117.655C70.4047 118.296 66.8287 118.609 63.6936 118.609H63.6854H63.6772H63.669H63.6608H63.6527H63.6445H63.6363H63.6281H63.6199H63.6118H63.6036H63.5954H63.5872H63.5791H63.5709H63.5627H63.5546H63.5464H63.5383H63.5301H63.522H63.5138H63.5057H63.4975H63.4894H63.4812H63.4731H63.4649H63.4568H63.4487H63.4405H63.4324H63.4243H63.4162H63.408H63.3999H63.3918H63.3837H63.3756H63.3675H63.3593H63.3512H63.3431H63.335H63.3269H63.3188H63.3107H63.3026H63.2945H63.2864H63.2784H63.2703H63.2622H63.2541H63.246H63.2379H63.2299H63.2218H63.2137H63.2057H63.1976H63.1895H63.1815H63.1734H63.1653H63.1573H63.1492H63.1412H63.1331H63.1251H63.117H63.109H63.1009H63.0929H63.0849H63.0768H63.0688H63.0608H63.0527H63.0447H63.0367H63.0287H63.0206H63.0126H63.0046H62.9966H62.9886H62.9806H62.9726H62.9646H62.9565H62.9485H62.9405H62.9326H62.9246H62.9166H62.9086H62.9006H62.8926H62.8846H62.8766H62.8686H62.8607H62.8527H62.8447H62.8368H62.8288H62.8208H62.8128H62.8049H62.7969H62.789H62.781H62.7731H62.7651H62.7572H62.7492H62.7413H62.7333H62.7254H62.7174H62.7095H62.7016H62.6936H62.6857H62.6778H62.6698H62.6619H62.654H62.6461H62.6382H62.6302H62.6223H62.6144H62.6065H62.5986H62.5907H62.5828H62.5749H62.567H62.5591H62.5512H62.5433H62.5354H62.5275H62.5196H62.5118H62.5039H62.496H62.4881H62.4802H62.4724H62.4645H62.4566H62.4488H62.4409H62.433H62.4252H62.4173H62.4095H62.4016H62.3937H62.3859H62.3781H62.3702H62.3624H62.3545H62.3467H62.3388H62.331H62.3232H62.3153H62.3075H62.2997H62.2919H62.284H62.2762H62.2684H62.2606H62.2528H62.245H62.2372H62.2293H62.2215H62.2137H62.2059H62.1981H62.1903H62.1825H62.1748H62.167H62.1592H62.1514H62.1436H62.1358H62.128H62.1203H62.1125H62.1047H62.097H62.0892H62.0814H62.0737H62.0659H62.0581H62.0504H62.0426H62.0349H62.0271H62.0194H62.0116H62.0039H61.9961H61.9884H61.9806H61.9729H61.9652H61.9574H61.9497H61.942H61.9343H61.9265H61.9188H61.9111H61.9034H61.8957H61.8879H61.8802H61.8725H61.8648H61.8571H61.8494H61.8417H61.834H61.8263H61.8186H61.8109H61.8032H61.7956H61.7879H61.7802H61.7725H61.7648H61.7571H61.7495H61.7418H61.7341H61.7265H61.7188H61.7111H61.7035H61.6958H61.6881H61.6805H61.6728H61.6652H61.6575H61.6499H61.6422H61.6346H61.627H61.6193H61.6117H61.6041H61.5964H61.5888H61.5812H61.5735H61.5659H61.5583H61.5507H61.5431H61.5354H61.5278H61.5202H61.5126H61.505H61.4974H61.4898H61.4822H61.4746H61.467H61.4594H61.4518H61.4442H61.4366H61.4291H61.4215H61.4139H61.4063H61.3987H61.3912H61.3836H61.376H61.3684H61.3609H61.3533H61.3458H61.3382H61.3306H61.3231H61.3155H61.308H61.3004H61.2929H61.2853H61.2778H61.2703H61.2627H61.2552H61.2476H61.2401H61.2326H61.2251H61.2175H61.21H61.2025H61.195H61.1875H61.1799H61.1724H61.1649H61.1574H61.1499H61.1424H61.1349H61.1274H61.1199H61.1124H61.1049H61.0974H61.0899H61.0824H61.075H61.0675H61.06H61.0525H61.045H61.0376H61.0301H61.0226H61.0152H61.0077H61.0002H60.9928H60.9853H60.9778H60.9704H60.9629H60.9555H60.948H60.9406H60.9331H60.9257H60.9183H60.9108H60.9034H60.896H60.8885H60.8811H60.8737H60.8662H60.8588H60.8514H60.844H60.8366H60.8292H60.8217H60.8143H60.8069H60.7995H60.7921H60.7847H60.7773H60.7699H60.7625H60.7551H60.7477H60.7403H60.733H60.7256H60.7182H60.7108H60.7034H60.6961H60.6887H60.6813H60.6739H60.6666H60.6592H60.6518H60.6445H60.6371H60.6298H60.6224H60.6151H60.6077H60.6004H60.593H60.5857H60.5783H60.571H60.5637H60.5563H60.549H60.5417H60.5343H60.527H60.5197H60.5123H60.505H60.4977H60.4904H60.4831H60.4758H60.4685H60.4611H60.4538H60.4465H60.4392H60.4319H60.4246H60.4173H60.4101H60.4028H60.3955H60.3882H60.3809H60.3736H60.3663H60.3591H60.3518H60.3445H60.3372H60.33H60.3227H60.3154H60.3082H60.3009H60.2937H60.2864H60.2791H60.2719H60.2646H60.2574H60.2502H60.2429H60.2357H60.2284H60.2212H60.214H60.2067H60.1995H60.1923H60.185H60.1778H60.1706H60.1634H60.1562H60.1489H60.1417H60.1345H60.1273H60.1201H60.1129H60.1057H60.0985H60.0913H60.0841H60.0769H60.0697H60.0625H60.0553H60.0481H60.041H60.0338H60.0266H60.0194H60.0122H60.0051H59.9979H59.9907H59.9836H59.9764H59.9692H59.9621H59.9549H59.9478H59.9406H59.9334H59.9263H59.9192H59.912H59.9049H59.8977H59.8906H59.8834H59.8763H59.8692H59.862H59.8601C58.7939 118.52 57.9182 118.432 57.2269 118.345Z" fill="#CE301C" stroke="#14121D" stroke-width="4"/>
<path d="M1043.12 335.069C1043.14 333.572 1046.68 343.87 1037.13 344.597C1027.75 345.277 1029.07 347.987 1022.19 348.702C1020.93 346.223 1012.03 345.648 1007.25 344.597C998.559 337.039 996.209 336.942 1001.25 335.069C997.983 336.505 1009.23 325.197 1007.25 325.54C1008.38 329.154 1021.38 315.133 1022.19 321.437C1026.45 325.854 1029.97 319.843 1037.13 325.54C1043.63 324.895 1044.69 330.178 1043.12 335.069Z" fill="#D9D9D9"/>
<path d="M1043.12 335.069C1045.95 337.092 1040.68 341.474 1037.13 344.597ZM1037.13 344.597C1030.5 347.447 1025.4 351.185 1022.19 348.702ZM1022.19 348.702C1013.18 349.449 1010.74 344.077 1007.25 344.597ZM1007.25 344.597C1000.95 343.371 1001.81 339.903 1001.25 335.069ZM1001.25 335.069C1000.27 329.366 1006.87 330.53 1007.25 325.539ZM1007.25 325.539C1013.67 321.097 1012.85 318.16 1022.19 321.436ZM1022.19 321.436C1026.53 323.946 1036.89 325.774 1037.13 325.539ZM1037.13 325.539C1043.05 329.765 1043.84 334.402 1043.12 335.069Z" stroke="#D9D9D9" stroke-linecap="round"/>
<path d="M1043.12 335.069C1045.18 339.373 1040.49 345.982 1037.13 344.598C1027.32 351.911 1026.11 343.247 1022.19 348.702C1013.89 348.069 1011.88 346.496 1007.25 344.598C998.636 338.292 998.869 335.623 1001.25 335.069C1007.01 325.829 1001.97 332.2 1007.25 325.54C1011.42 317.476 1012.41 318.335 1022.19 321.437C1033.61 319.547 1030.61 328.567 1037.13 325.54C1034.67 325.806 1038.81 328.745 1043.12 335.069Z" fill="#CE301C"/>
<path d="M1043.12 335.07C1043.67 335.676 1043.82 340.273 1037.13 344.598ZM1037.13 344.598C1033.72 345.78 1031.38 350.248 1022.19 348.702ZM1022.19 348.702C1015.78 350.371 1010.91 343.879 1007.25 344.598ZM1007.25 344.598C1000.17 338.869 1001.87 340.039 1001.25 335.07ZM1001.25 335.07C999.176 333.4 1002.88 331.32 1007.25 325.54ZM1007.25 325.54C1007.57 320.677 1018.45 318.322 1022.19 321.437ZM1022.19 321.437C1030.55 322.585 1034.32 324.216 1037.13 325.54ZM1037.13 325.54C1041.61 327.799 1043.12 331.204 1043.12 335.07Z" stroke="#CE301C" stroke-linecap="round"/>
<path d="M1043.12 335.07C1039.68 338.693 1040.59 341.677 1037.13 344.598ZM1037.13 344.598C1036.09 343.921 1028.95 348.36 1022.19 348.702ZM1022.19 348.702C1013.74 346.319 1014.54 350.612 1007.25 344.598ZM1007.25 344.598C1002.26 342.731 1001.25 338.763 1001.25 335.07ZM1001.25 335.07C1000.22 334.525 1003.41 324.672 1007.25 325.54ZM1007.25 325.54C1007.98 324.645 1018.77 323.891 1022.19 321.437ZM1022.19 321.437C1025.69 321.034 1034.81 320.443 1037.13 325.54ZM1037.13 325.54C1040.48 326.606 1045.84 334.968 1043.12 335.07Z" stroke="black" stroke-linecap="round"/>
<path d="M884.781 380.241C836.794 424.245 828.746 509.89 824.969 548.835C930.977 523.517 1088.43 598.777 1152.32 587.554C1211.07 585.529 1205.07 571.561 1214.56 522.215C1197.38 291.388 936.057 317.648 884.781 380.241Z" fill="#CE301C"/>
<path d="M884.781 380.241C839.331 430.464 829.685 511.915 824.969 548.834M884.781 380.241C841.867 428.414 825.511 513.357 824.969 548.834M884.781 380.241C933.898 322.235 1190.75 294.135 1214.56 522.215M884.781 380.241C935.099 321.122 1193.98 293.731 1214.56 522.215M824.969 548.834C936.244 525.908 1085.52 597.74 1152.32 587.554M824.969 548.834C938.849 527.634 1083.24 594.184 1152.32 587.554M1152.32 587.554C1205.11 578.097 1206.37 573.302 1214.56 522.215M1152.32 587.554C1207.7 584.654 1207.09 569.207 1214.56 522.215" stroke="black" stroke-width="3" stroke-linecap="round"/>
<path d="M1048.25 339.909C1124.73 392.403 1160.04 427.172 1150.51 588.361ZM1048.25 339.909C1125.01 388.884 1161.61 429.3 1150.51 588.361Z" stroke="black" stroke-linecap="round"/>
<path d="M944.594 693.227C1051.98 695.508 1129.26 626.491 1151.51 588.361C1065.78 502.289 892.171 520.023 824.16 548.027C812.203 558.074 788.144 607.432 770.813 617.402C753.381 632.202 762.191 649.402 764.348 650.474C781.671 664.144 839.452 689.573 944.594 693.227Z" fill="#CE301C"/>
<path d="M944.594 693.227C1055.79 696.187 1129.91 620.341 1151.51 588.361ZM1151.51 588.361C1060.54 495.948 894.79 521.143 824.16 548.027ZM824.16 548.027C811.602 566.693 784.911 598.381 770.813 617.402ZM770.813 617.402C761.812 635.94 764.069 646.219 764.348 650.474ZM764.348 650.474C777.995 662.63 829.859 690.006 944.594 693.227Z" stroke="black" stroke-width="3" stroke-linecap="round"/>
</svg>
